<?xml version="1.0" encoding="UTF-8" standalone="no"?>
<!-- Created with Inkscape (http://www.inkscape.org/) -->

<svg
   xmlns:osb="http://www.openswatchbook.org/uri/2009/osb"
   xmlns:dc="http://purl.org/dc/elements/1.1/"
   xmlns:cc="http://creativecommons.org/ns#"
   xmlns:rdf="http://www.w3.org/1999/02/22-rdf-syntax-ns#"
   xmlns:svg="http://www.w3.org/2000/svg"
   xmlns="http://www.w3.org/2000/svg"
   xmlns:sodipodi="http://sodipodi.sourceforge.net/DTD/sodipodi-0.dtd"
   xmlns:inkscape="http://www.inkscape.org/namespaces/inkscape"
   width="85mm"
   height="54mm"
   id="svg6045"
   version="1.1"
   inkscape:version="0.48.4 r9939"
   inkscape:export-filename="/home/rdevera/workspacephpnew/catbibips15/prestashop/modules/giftcard/img/icon/giftcard_block.png"
   inkscape:export-xdpi="13.267522"
   inkscape:export-ydpi="13.267522"
   sodipodi:docname="Nouveau document 44">
  <defs
     id="defs3">
    <linearGradient
       id="linearGradient8004"
       osb:paint="solid">
      <stop
         style="stop-color:#000000;stop-opacity:1;"
         offset="0"
         id="stop8006" />
    </linearGradient>
  </defs>
  <sodipodi:namedview
     id="base"
     pagecolor="#ffffff"
     bordercolor="#666666"
     borderopacity="1.0"
     inkscape:pageopacity="0.0"
     inkscape:pageshadow="2"
     inkscape:zoom="1"
     inkscape:cx="-105.20098"
     inkscape:cy="-50.083039"
     inkscape:document-units="mm"
     inkscape:current-layer="layer1"
     showgrid="false"
     inkscape:window-width="1920"
     inkscape:window-height="1041"
     inkscape:window-x="1920"
     inkscape:window-y="0"
     inkscape:window-maximized="1" />
  <metadata
     id="metadata6049">
    <rdf:RDF>
      <cc:Work
         rdf:about="">
        <dc:format>image/svg+xml</dc:format>
        <dc:type
           rdf:resource="http://purl.org/dc/dcmitype/StillImage" />
        <dc:title></dc:title>
      </cc:Work>
    </rdf:RDF>
  </metadata>
  <g
     inkscape:label="Layer 1"
     inkscape:groupmode="layer"
     id="layer1">
    <rect
       style="opacity:0.87999998000000001;fill:#ffffff;fill-opacity:1;stroke:#5e5e5e;stroke-width:9.44789981999999995;stroke-linejoin:round;stroke-miterlimit:4;stroke-opacity:1;stroke-dasharray:none"
       id="rect6052"
       width="277.12042"
       height="173.45374"
       x="21.106462"
       y="13.111708"
       ry="20.186426" />
    <rect
       style="fill:#6d6d6d;fill-opacity:1"
       id="rect8020"
       width="275.93622"
       height="25.936207"
       x="18.031897"
       y="123.37047"
       ry="12.968103"
       rx="0" />
    <g
       transform="matrix(1.6101339,-1.1539874,1.2058083,1.5670805,-13.247,59.303904)"
       id="g8287"
       style="fill:#fc7070"
       inkscape:export-xdpi="13"
       inkscape:export-ydpi="13">
      <path
         inkscape:connector-curvature="0"
         d="m 7.931,24.56 c 2.808,0 6.565,-0.735 10.025,-1.601 0.422,-0.106 0.838,-0.212 1.248,-0.321 0.017,-0.011 0.033,-0.023 0.05,-0.034 0.371,-0.243 0.75,-0.482 1.136,-0.719 0.724,-0.444 1.47,-0.877 2.25,-1.298 C 22.4,20.579 22.155,20.572 21.904,20.565 20.89,20.538 19.792,20.52 18.65,20.52 c -7.296,0 -12.303,0.74 -14.32,2.077 -0.085,0.231 -0.14,0.43 -0.174,0.584 -0.018,0.078 -0.03,0.145 -0.039,0.198 0.215,0.408 0.667,0.676 1.221,0.857 0.768,0.248 1.736,0.324 2.593,0.324 z"
         id="path8289"
         style="fill:#fc7070" />
      <path
         inkscape:connector-curvature="0"
         d="M 3.261,59.972 C 5.434,53.094 9.269,49.795 9.452,49.642 l 0.709,-0.598 0.278,0.885 c 1.285,4.103 3.24,7.8 4.458,9.896 0.49,-23.321 8.885,-32.962 13.128,-36.361 -1.151,-0.138 -2.187,-0.568 -3.028,-1.213 -0.195,-0.15 -0.38,-0.306 -0.552,-0.478 -0.161,-0.16 -0.322,-0.321 -0.46,-0.498 -0.866,0.448 -1.705,0.906 -2.503,1.382 C 20.857,23.03 20.253,23.411 19.668,23.8 2.602,35.163 2.536,53.004 3.261,59.972 z"
         id="path8291"
         style="fill:#fc7070" />
      <path
         inkscape:connector-curvature="0"
         d="m 44.697,22.604 c 0.017,0.011 0.033,0.022 0.049,0.033 0.411,0.108 0.826,0.215 1.248,0.321 3.46,0.866 7.217,1.601 10.025,1.601 0.856,0 1.824,-0.076 2.591,-0.325 0.555,-0.18 1.009,-0.449 1.223,-0.858 -0.008,-0.053 -0.02,-0.119 -0.036,-0.196 -0.032,-0.152 -0.084,-0.349 -0.165,-0.576 -2.008,-1.343 -7.021,-2.086 -14.332,-2.086 -1.141,0 -2.24,0.018 -3.254,0.045 -0.251,0.007 -0.496,0.014 -0.736,0.022 0.78,0.421 1.527,0.855 2.251,1.298 0.386,0.239 0.765,0.478 1.136,0.721 z"
         id="path8293"
         style="fill:#fc7070" />
      <path
         inkscape:connector-curvature="0"
         d="m 39.477,21.026 c -0.017,0.024 -0.028,0.051 -0.045,0.075 -0.13,0.182 -0.283,0.346 -0.436,0.512 -0.159,0.172 -0.32,0.34 -0.502,0.492 -0.738,0.618 -1.65,1.067 -2.667,1.28 4.21,3.327 12.734,12.933 13.227,36.44 1.218,-2.098 3.173,-5.797 4.458,-9.896 l 0.278,-0.885 0.709,0.598 c 0.183,0.154 4.015,3.451 6.188,10.324 0.719,-6.975 0.639,-24.814 -16.409,-36.167 -0.584,-0.389 -1.187,-0.77 -1.811,-1.142 -0.808,-0.483 -1.66,-0.947 -2.538,-1.4 -0.15,-0.078 -0.3,-0.155 -0.452,-0.231 z"
         id="path8295"
         style="fill:#fc7070" />
      <path
         inkscape:connector-curvature="0"
         d="m 3.903,21.38 c 0.136,-0.078 0.309,-0.146 0.461,-0.22 0.354,-0.172 0.752,-0.333 1.194,-0.481 2.732,-0.921 7.094,-1.395 13.093,-1.395 0.166,0 0.326,0.002 0.491,0.003 0.467,0.002 0.923,0.007 1.37,0.014 0.904,0.015 1.758,0.037 2.545,0.065 -0.004,-0.017 -0.007,-0.033 -0.011,-0.05 -0.048,-0.214 -0.057,-0.438 -0.075,-0.661 -0.01,-0.124 -0.042,-0.242 -0.042,-0.369 v -5.015 c 0,-0.784 0.206,-1.521 0.552,-2.189 0.015,-0.029 0.035,-0.055 0.051,-0.083 0.043,-0.078 0.092,-0.153 0.139,-0.229 C 23.607,10.735 23.544,10.7 23.48,10.665 22.837,10.313 22.203,9.98 21.587,9.685 20.389,9.111 19.246,8.644 18.158,8.26 14.709,7.045 11.833,6.7 9.692,6.7 7.486,6.7 5.657,7.077 4.262,7.628 2.969,8.138 2.048,8.797 1.578,9.457 1.22,9.96 1.117,10.439 1.271,10.883 c 0.344,0.99 0.689,2.203 1.017,3.458 0.641,2.45 1.203,5.043 1.523,6.591 0.03,0.148 0.066,0.32 0.092,0.448 z"
         id="path8297"
         style="fill:#fc7070" />
      <path
         inkscape:connector-curvature="0"
         d="M 59.688,7.628 C 58.293,7.077 56.464,6.7 54.257,6.7 c -2.141,0 -5.017,0.345 -8.467,1.56 -1.088,0.383 -2.231,0.85 -3.428,1.424 -0.616,0.295 -1.25,0.628 -1.893,0.98 -0.228,0.125 -0.452,0.243 -0.683,0.375 0.36,0.68 0.578,1.43 0.578,2.231 v 5.015 c 0,0.193 -0.041,0.375 -0.064,0.562 -0.022,0.181 -0.03,0.366 -0.072,0.541 0.152,-0.006 0.314,-0.012 0.473,-0.017 0.838,-0.031 1.759,-0.056 2.737,-0.072 0.448,-0.007 0.904,-0.012 1.37,-0.014 0.164,-0.001 0.324,-0.003 0.491,-0.003 6.028,0 10.405,0.478 13.134,1.408 0.425,0.145 0.809,0.301 1.153,0.468 0.152,0.074 0.325,0.142 0.461,0.22 0.026,-0.128 0.062,-0.3 0.093,-0.449 0.32,-1.548 0.882,-4.141 1.523,-6.591 0.328,-1.255 0.674,-2.468 1.017,-3.458 0.154,-0.443 0.05,-0.922 -0.307,-1.426 -0.47,-0.657 -1.392,-1.316 -2.685,-1.826 z"
         id="path8299"
         style="fill:#fc7070" />
      <path
         inkscape:connector-curvature="0"
         d="m 29.662,22.298 h 1.02 0.617 1.353 0.616 1.02 0.204 c 0.943,0 1.819,-0.248 2.552,-0.667 0.227,-0.13 0.436,-0.281 0.633,-0.443 0.173,-0.142 0.325,-0.299 0.471,-0.463 0.041,-0.046 0.089,-0.086 0.127,-0.134 0.131,-0.16 0.238,-0.334 0.341,-0.51 0.014,-0.024 0.032,-0.047 0.045,-0.072 10e-4,-0.001 0.002,-0.003 0.003,-0.004 0.099,-0.178 0.175,-0.364 0.243,-0.556 0.001,-0.002 0.001,-0.003 0.002,-0.005 0.021,-0.06 0.047,-0.118 0.065,-0.18 0.092,-0.315 0.156,-0.639 0.156,-0.979 V 13.27 c 0,-0.571 -0.143,-1.112 -0.393,-1.604 -0.092,-0.182 -0.206,-0.353 -0.327,-0.52 -0.014,-0.02 -0.024,-0.042 -0.039,-0.062 C 38.26,10.937 38.128,10.805 37.997,10.673 37.146,9.815 35.898,9.259 34.492,9.259 h -0.981 -3.072 -1.638 c -1.271,0 -2.423,0.446 -3.262,1.165 -0.163,0.14 -0.304,0.298 -0.442,0.457 -0.059,0.068 -0.122,0.132 -0.176,0.204 -0.071,0.094 -0.125,0.198 -0.186,0.297 -0.353,0.566 -0.572,1.203 -0.572,1.889 v 5.015 c 0,0.257 0.034,0.507 0.088,0.751 0.029,0.131 0.08,0.254 0.123,0.38 0.027,0.079 0.052,0.157 0.084,0.234 0.015,0.036 0.023,0.074 0.039,0.109 0.046,0.099 0.103,0.192 0.158,0.287 0.029,0.051 0.062,0.099 0.094,0.149 0.083,0.131 0.161,0.263 0.259,0.384 0.031,0.038 0.07,0.07 0.102,0.107 0.003,0.003 0.006,0.005 0.008,0.008 0.05,0.057 0.104,0.11 0.157,0.164 0.168,0.171 0.349,0.329 0.547,0.474 0.218,0.159 0.45,0.3 0.699,0.423 0.676,0.333 1.447,0.539 2.28,0.539 h 0.861 z"
         id="path8301"
         style="fill:#fc7070" />
    </g>
  </g>
</svg>
