<svg xmlns="http://www.w3.org/2000/svg" width="57" height="56"><g fill="none"><path fill="#25195B" d="M55.964 41.282L39.554 2.159C38.95.605 37.137-.086 35.583.52l-24.96 10.45c-1.554.604-2.245 2.417-1.64 3.972L25.39 54.064c.604 1.554 2.418 2.245 3.973 1.64l24.959-10.45a3.084 3.084 0 0 0 1.64-3.972zm-41.11-23.146c-1.64 0-3.022-1.381-3.022-3.022 0-1.641 1.382-3.023 3.023-3.023 1.64 0 3.022 1.382 3.022 3.023a3.004 3.004 0 0 1-3.022 3.022z"/><path fill="#E31366" d="M12.61 53.027c0 1.641 1.38 3.023 3.022 2.937l7.34-.087L12.265 32.3l.345 20.727z"/><path fill="#25195B" d="M.777 44.305c-.69 1.554.087 3.281 1.555 3.972l6.736 2.937-.086-25.91-8.205 19z"/></g></svg>