<svg xmlns="http://www.w3.org/2000/svg" width="100" height="100"><g fill="none"><g transform="translate(.426 3.404)"><path fill="#BA2758" d="M43.013 21.783c.11-.123.217-.238.323-.353-3.579-3.745-12.949-10.996-28.455-5.762 2.642 1.32 3.336 1.613 3.336 1.613s-5.196.523-9.953 1.698c5.285 2.23 4.413 2.804 4.413 2.804s-3.094-.915-6.299.176c-.149.05-2.239 4.245-2.111 4.248 2.06.049 1.954.619 1.954.619s-1.082.283-2.59 1.078c-.235.123-4.35 17.258-3.515 16.419 1.496-1.503 2.629-2.26 2.629-2.26l1.102 4.499s2.106-5.613 5.45-8.788c0 3.435.856 5.635.856 5.635s7.796-12.766 16.251-12.8c8.86-.035 18.6-7.188 18.6-7.188-1.021-.102-2.042-.2-3.068-.302.17-.204.477-.587 1.077-1.336z"/><path fill="#373478" d="M84.492 81.763c-1.556-5.631-1.699-4.902-3.062-6.265l-4.51-4.51-13.15 2.45s-11.574 9.281-20.855 0c-11.817-1.447-17.502-1.736-17.502-1.736l-3.779 3.796s-2.035 2.758-3.384 9.41l.083.069c.74.369 6.122 2.89 14.361 5.894 1.123.41 2.992.987 5.607 1.734 1.01.232 1.772.4 2.284.5.511.101 1.154.212 1.926.332 9.045.103 15.354-.175 18.93-.832 8.407-1.546 23.093-10.69 23.051-10.842z"/><path fill="#F1BD49" d="M79.864 69.97H63.48l-4.336 3.468h17.783a2.98 2.98 0 0 0 2.94 2.506 2.986 2.986 0 0 0 2.987-2.987 2.992 2.992 0 0 0-2.991-2.987zm-42.502 0H23.196a2.986 2.986 0 0 0-2.987 2.987 2.983 2.983 0 1 0 5.928.48l18.454.001-7.23-3.468z"/><path fill="#2D2B62" d="M26.28 82.306s-1.41 2.641-2.355 6.607c-.001.005 1.29.757 1.29.757.108-1.862.41-4.277 1.066-7.364zm50.52 0s.916 1.714 1.765 4.454c.01.03-.901.665-.904.643a56.92 56.92 0 0 0-.861-5.097z"/><path fill="#7C5C45" d="M56.894 95.026c-12.239-4.528-17.222-21.588-17.222-21.588H29.298s4.983 17.06 17.221 21.588h10.375z"/><path fill="#F1BD49" d="M43.094 93.434h-4.37l-.01.004a2.404 2.404 0 0 0-4.678.147c.001 0 5.3 1.432 5.335 1.432.828 0 2.07.003 3.727.009-.004-.494-.004-1.026-.004-1.592zm26.005-1.348a2.4 2.4 0 0 0-3.69 1.352l-.009-.004h-3.506v1.069c0 .12 7.414-2.272 7.205-2.417z"/><path fill="#E3E1DC" d="M43.094 80.472v14.554h16.668c1.421-.684 2.132-1.216 2.132-1.596V80.472c0-3.468-18.8-3.468-18.8 0z"/><path fill="#E3E1DC" d="M43.094 80.472v14.554h16.668l2.132-.48V93.43 80.472c0-3.468-18.8-3.468-18.8 0z"/><path fill="#BCBDBE" d="M50.57 22.996c-14.953 1.25-26.064 14.391-24.808 29.349.004.06.012.123.017.183l4.71-.354 10.111-.761 7.796-.656 6.315-.527-1.013-12.094c4.45.528 7.4 2.251 7.4 2.251 2.766 1.566 4.08 2.783 4.08 2.783s.788-9.476 5.567-10.293c2.723-.494 5.038 3.319 5.578 4.897.826.626 1.328 1.213 1.337 1.222-4.575-10.256-15.264-16.992-27.09-16zM34.753 45.46c.294-.332.6-.656.92-.97a20.774 20.774 0 0 0-.92.97z"/><path fill="#FFF" d="M79.94 48.115L48.4 50.757l-7.796.656-10.153.85c.013-.029.03-.059.043-.089l-4.711.354.013.127a27.142 27.142 0 0 0 5.247 13.634c5.42 7.281 14.361 11.677 24.072 10.864C69.962 75.906 81.017 62.94 79.94 48.115z"/><path fill="#E6DEDC" d="M70.745 32.877c-4.779.817-5.566 10.293-5.566 10.293 3.932-9.242 8.825-7.153 11.144-5.396-.54-1.574-2.855-5.387-5.578-4.897z"/><path fill="#E6DEDC" d="M75.74 37.366c-2.485-1.604-6.931-2.723-10.557 5.804 0 0-1.315-1.217-4.08-2.783 0 0-2.95-1.723-7.4-2.25l1.012 12.093 21.949-1.839-.924-11.025z"/><path fill="#BCBDBE" d="M77.66 39c-.013-.013-.75-.877-1.92-1.63l.924 11.021 3.276-.276c-.008-.102-.012-.209-.02-.31A27.113 27.113 0 0 0 77.66 39z"/><path fill="#BA1D55" d="M66.774 73.268c8.839-1.685 16.588-11.753 16.588-11.753-9.23 6.06-20.013 4.69-20.039 4.685-.319 2.528.622 4.498 3.451 7.068z"/><path fill="#FEB132" d="M67.098 47.52c-.63-2.49-1.575-4.086-1.575-4.09-2.778-2.132-4.421-3.043-4.421-3.043.553 4.098 1.068 10.26-1.34 16.353-.958 2.422-1.562 4.251-1.94 5.583 8.42-8.161 9.276-14.795 9.276-14.804z"/><path fill="#000" d="M48.204 61.306c2.438 2.975 8.685 6.57 8.685 6.57s-.693 4.18 5.57 5.477c1.452.238 2.898.183 4.32-.085-5.137-4.664-4.056-7.34-.524-14.987 1.868-4.047 1.558-7.966.847-10.762 0 .013-.851 6.643-9.277 14.804-.574 2.013-.638 2.873-.638 2.873s-4.476-1.14-8.983-3.89z"/><path fill="#FC1C69" d="M83.362 61.515c-7.32-9.268-13.788-14.975-17.839-18.085.005.004 4.256 7.204.728 14.85-1.583 3.43-2.672 5.86-2.928 7.92.026.004 10.809 1.374 20.039-4.685z"/><path fill="#909494" d="M57.026 47.426l-3.15-7.235-1.795 7.54h.004a3.633 3.633 0 0 1 2.332-1.11 3.634 3.634 0 0 1 2.609.805z"/><path fill="#666A6A" d="M51.902 47.928l-10.025 3.374 10.404 1.694a3.658 3.658 0 0 1-1.213-2.422 3.673 3.673 0 0 1 .834-2.646z"/><path fill="#000" d="M57.026 47.426a3.653 3.653 0 0 0-4.945.302 4.075 4.075 0 0 0-.183.2 3.656 3.656 0 0 0-.834 2.642 3.63 3.63 0 0 0 1.213 2.421 3.663 3.663 0 0 0 6.09-3.038 3.643 3.643 0 0 0-1.341-2.527z"/><circle cx="54.57" cy="48.468" r="1.374" fill="#FFF"/><path fill="#909494" d="M76.328 45.796c.566-.047 1.106.434 1.438 1.191l-1.762-6.464-.902 6.69c.204-.8.655-1.366 1.226-1.417z"/><path fill="#666A6A" d="M78.034 49.451l.872-1.213-1.017-.936a4.286 4.286 0 0 1 .145 2.15z"/><path fill="#000" d="M77.89 47.306a3.459 3.459 0 0 0-.124-.315c-.332-.757-.872-1.242-1.438-1.191-.566.047-1.017.613-1.222 1.417-.102.404-.144.864-.102 1.353.124 1.46.91 2.583 1.766 2.51.617-.05 1.094-.714 1.268-1.625.068-.353.09-.74.056-1.144a4.514 4.514 0 0 0-.205-1.005z"/><ellipse cx="76.435" cy="47.101" fill="#FFF" rx="1" ry="1.017" transform="rotate(-4.79 76.435 47.1)"/><path fill="#373478" d="M13.37 58.779l22.328-18.251 1.749-7.694-21.596 14.685z"/><g fill="#FEB132"><path d="M26.723 8.749l2.085 4.225 4.66.677-3.375 3.289.796 4.639-4.166-2.192-4.17 2.192.795-4.639-3.37-3.289 4.66-.677zM52.025.238l2.085 4.226 4.66.676-3.37 3.29.795 4.638-4.17-2.191-4.17 2.191.796-4.638-3.371-3.29 4.66-.676zM73.761 8.749l2.085 4.225 4.66.677-3.37 3.289.795 4.639-4.17-2.192-4.166 2.192.796-4.639-3.374-3.289 4.659-.677z"/></g><path fill="#373478" d="M15.638 42.668a59.503 59.503 0 0 1 2.256-4.736 51.676 51.676 0 0 1 3.132-5.123c-2.57 2.927-4.775 6.748-6.14 11.77.088-.136.127-.353.186-.502.18-.473.366-.945.566-1.409z"/><path fill="#2D2B62" d="M68.434 27.885c.796.417 6.366 4.221 6.779 3.966 5.034-3.145 9.966-6.923 9.966-6.923-5.034-3.145-25.175-3.145-25.175-3.145l2.387 3.545c2.154.43 4.103 1.544 6.043 2.557z"/><path fill="#373478" d="M74.791 34.872c-.71-.293-1.361-.723-2.055-1.055-4.06-1.936-7.532-4.655-11.991-5.694-1.885-.438-11.128-1.302-11.128-1.302-2.749-.46-5.536-.727-8.306-1.03-1.532-.17-3.068-.336-4.605-.489-1.336-.132-2.655-.123-4.004.145-.617.123-1.285.613-1.791 1a48.346 48.346 0 0 0-3.975 3.43c-4.6 4.383-8.553 9.43-12.064 14.714-1.085 3.983-1.642 8.711-1.446 14.332 4.404-23.285 29.595-20.26 29.595-20.26v.005c.966-.451 1.91-.745 2.817-.83 7.885 2.92 34.728 10.702 38.8-8.064-2.37 1.503-4.647 3.15-7.072 4.562-1.11.643-1.575 1.03-2.775.536z"/><path fill="#F1BD49" d="M14.881 44.583v-.004z"/><path fill="#373478" d="M60.004 21.783s-5.86-12.026-16.668-.353c1.115 1.166 1.668 1.996 1.668 1.996.239.025.477.046.72.072.19.017.387.038.578.055 5.35.51 10.979.753 16.09 1.775l-2.388-3.545z"/><path fill="#BA2758" d="M43.336 21.43c-.106.115-.217.234-.323.353-.6.749-.907 1.136-1.073 1.34 1.022.098 2.043.2 3.069.303 0-.005-.558-.83-1.673-1.996z"/><path fill="#F1BD49" d="M75.213 31.851c-.413.26-5.983-3.549-6.779-3.966-1.94-1.017-3.89-2.132-6.038-2.562-5.107-1.025-10.74-1.263-16.09-1.774-.191-.017-.387-.038-.578-.055-1.26-.124-2.524-.251-3.783-.37-.89-.086-1.783-.17-2.673-.243-.872-.068-1.749-.12-2.625-.166-.204-.009-.409-.03-.613-.038-.94-.039-2.055-.217-2.966.06-2.374.723-4.52 2.037-6.404 3.637-1.924 1.635-3.592 3.558-5.077 5.596-.196.273-.37.562-.561.839a51.19 51.19 0 0 0-3.132 5.123 58.807 58.807 0 0 0-2.256 4.736c-.195.468-.387.936-.57 1.409-.06.153-.098.366-.187.502v.004c3.51-5.28 7.464-10.332 12.064-14.715a48.346 48.346 0 0 1 3.974-3.43c.507-.387 1.175-.876 1.792-1 1.349-.268 2.668-.276 4.004-.144 1.536.153 3.068.323 4.604.489 2.77.302 5.558.574 8.307 1.03 0 0 9.242.864 11.127 1.302 4.46 1.038 7.932 3.757 11.992 5.694.693.331 1.34.761 2.055 1.055 1.2.498 1.664.106 2.779-.54 2.425-1.413 4.702-3.06 7.072-4.562.315-1.456.51-3.051.532-4.839-.004.005-4.936 3.783-9.97 6.928z"/><path fill="#2D2B62" d="M13.434 58.915s7.587 5.651 13.936.528c1.37-6.843 12.039-18.6 18.473-21.613 0 0-28.005-2.2-32.409 21.085z"/><path fill="#373478" d="M62.391 25.328s-3.578-8.996-10.114-8.992c3.357 5.451 5.646 7.043 5.646 7.043l4.468 1.949z"/><path fill="#BBBBBA" d="M52.626 84.774c-4.707 0-7.724-1.293-9.528-2.531v1.038c.638.391 1.383.779 2.264 1.119v4.374h.85v-4.072a17.67 17.67 0 0 0 1.865.485v7.528h.85V85.34c.669.107 1.375.188 2.137.234v4.588h.85v-4.545c.235.004.473.013.716.013.608 0 1.187-.021 1.74-.06v5.132h.851V85.49a19.517 19.517 0 0 0 2.536-.442v6.29h.852v-6.528c1.365-.422 2.442-.966 3.289-1.528v-1.055c-1.651 1.242-4.515 2.548-9.272 2.548z"/><path fill="#BBBBBA" d="M58.043 80.464c-6.166 3.102-11.009.055-11.056.021l-.464.715c.14.09 2.405 1.528 5.834 1.528 1.758 0 3.822-.38 6.064-1.502l-.378-.762z"/></g><path fill="#8F8F8E" d="M50.06 99.494C22.638 99.494.328 77.183.328 49.762.328 22.34 22.638.03 50.06.03 77.48.03 99.79 22.34 99.79 49.762c0 27.421-22.31 49.732-49.731 49.732zm0-97.332c-26.247 0-47.605 21.353-47.605 47.604 0 26.251 21.354 47.604 47.605 47.604 26.246 0 47.604-21.353 47.604-47.604 0-26.251-21.358-47.604-47.604-47.604z"/></g></svg>