<svg xmlns="http://www.w3.org/2000/svg" width="57" height="53"><g fill="none"><path fill="#E31366" d="M34.693 15.622c-.352 0-.634-.14-.915-.352l-1.97-1.9c-.493-.492-.564-1.337 0-1.83.492-.492 1.336-.562 1.829 0l1.056 1.056 4.081-4.081a1.317 1.317 0 0 1 1.83 0 1.317 1.317 0 0 1 0 1.83l-4.997 4.925c-.281.282-.563.352-.914.352zm-9.149 36.804a4.865 4.865 0 0 1-4.855-4.856 4.865 4.865 0 0 1 4.855-4.855A4.865 4.865 0 0 1 30.4 47.57c0 2.745-2.181 4.856-4.856 4.856zm0-7.037a2.223 2.223 0 0 0-2.251 2.252c0 1.266.985 2.252 2.251 2.252a2.223 2.223 0 0 0 2.252-2.252 2.223 2.223 0 0 0-2.252-2.252zm16.467 7.037a4.865 4.865 0 0 1-4.855-4.856 4.865 4.865 0 0 1 4.855-4.855 4.865 4.865 0 0 1 4.856 4.855c0 2.745-2.182 4.856-4.856 4.856zm0-7.037a2.223 2.223 0 0 0-2.252 2.252c0 1.266.985 2.252 2.252 2.252a2.223 2.223 0 0 0 2.252-2.252 2.223 2.223 0 0 0-2.252-2.252z"/><path fill="#25195B" d="M56.085 16.537c-.21-.352-.633-.563-1.055-.563h-8.163c-.352.915-.845 1.83-1.408 2.604h7.6l-7.6 17.733H22.87l-5.207-17.733h9.289a11.605 11.605 0 0 1-1.408-2.604H16.89L12.596 1.337c-.14-.563-.633-.915-1.266-.915H1.478C.774.422.21.985.21 1.69s.563 1.267 1.267 1.267h8.866l4.293 14.566v.07l5.982 20.267c.14.563.633.915 1.266.915h24.419A1.3 1.3 0 0 0 47.5 38l8.726-20.267c.14-.352.14-.774-.14-1.196z"/><path fill="#25195B" d="M36.17.422c-6.333 0-11.47 5.137-11.47 11.47 0 1.478.281 2.815.774 4.082.352.915.845 1.83 1.407 2.604 2.112 2.885 5.419 4.785 9.29 4.785 3.87 0 7.177-1.9 9.288-4.785a11.605 11.605 0 0 0 1.408-2.604 11.37 11.37 0 0 0 .774-4.081c0-6.334-5.137-11.47-11.47-11.47zm5.841 18.156c-1.548 1.337-3.589 2.181-5.77 2.181-2.182 0-4.222-.844-5.77-2.181a8.18 8.18 0 0 1-2.041-2.604c-.634-1.196-.986-2.604-.986-4.081 0-4.856 3.941-8.867 8.867-8.867a8.83 8.83 0 0 1 8.867 8.867c0 1.477-.352 2.885-.985 4.081-.704.985-1.408 1.9-2.182 2.604z"/></g></svg>