<svg xmlns="http://www.w3.org/2000/svg" width="57" height="57"><g fill="none"><path d="M28.824.26l.777 2.266h2.397a.32.32 0 0 1 .194.583l-1.943 1.425.712 2.332c.065.324-.259.518-.518.389L28.5 5.83l-1.943 1.425c-.26.194-.583-.065-.518-.39l.712-2.33-1.943-1.426a.32.32 0 0 1 .194-.583H27.4L28.176.26c.13-.259.583-.259.648 0zm0 49.291l.777 2.267h2.397a.32.32 0 0 1 .194.583l-1.943 1.425.712 2.332c.065.324-.259.518-.518.389L28.5 55.122l-1.943 1.425c-.26.194-.583-.065-.518-.389l.712-2.332-1.943-1.425a.32.32 0 0 1 .194-.583H27.4l.777-2.267c.13-.324.583-.324.648 0zm24.613-24.614l.778 2.268h2.396a.32.32 0 0 1 .195.583l-1.944 1.424.713 2.332c.065.324-.26.518-.518.389l-1.943-1.425-1.944 1.425c-.259.194-.583-.065-.518-.389l.713-2.332-1.943-1.424a.32.32 0 0 1 .194-.583h2.397l.777-2.267c.13-.324.583-.324.648 0zm-49.227 0l.777 2.268h2.397a.32.32 0 0 1 .194.583l-1.943 1.424.713 2.332c.064.324-.26.518-.518.389l-1.944-1.425-1.943 1.425c-.259.194-.583-.065-.518-.389l.713-2.332-1.944-1.424a.32.32 0 0 1 .195-.583h2.396l.777-2.267c.13-.324.519-.324.648 0zm3.692-12.89l.778 2.268h2.396a.32.32 0 0 1 .194.583l-1.943 1.425.713 2.332c.065.323-.26.518-.518.388l-1.944-1.425-1.943 1.425c-.259.195-.583-.065-.518-.388l.713-2.332-1.944-1.425a.32.32 0 0 1 .195-.583h2.396l.778-2.267c.13-.324.518-.324.647 0zm42.685 24.614l.778 2.267h2.396a.32.32 0 0 1 .195.583l-1.944 1.425.713 2.332c.065.324-.26.518-.518.389l-1.943-1.425-1.944 1.425c-.259.194-.583-.065-.518-.389l.713-2.332-1.943-1.425a.32.32 0 0 1 .194-.583h2.397l.777-2.267c.13-.259.518-.259.648 0zM41.52 3.044l.778 2.267h2.396a.32.32 0 0 1 .195.583L42.944 7.32l.713 2.332c.065.324-.26.518-.518.389l-1.944-1.425-1.943 1.425c-.259.194-.583-.065-.518-.389l.713-2.332-1.944-1.425a.32.32 0 0 1 .195-.583h2.396l.778-2.267c.13-.324.583-.324.647 0zM16.906 45.73l.777 2.267h2.397a.32.32 0 0 1 .194.583l-1.943 1.425.712 2.331c.065.324-.259.519-.518.389L16.582 51.3l-1.943 1.425c-.26.194-.583-.065-.519-.389l.713-2.331-1.943-1.425a.32.32 0 0 1 .194-.583h2.397l.777-2.267c.13-.324.518-.324.648 0zM49.94 12.048l-.777 2.267h-2.397a.32.32 0 0 0-.194.583l1.943 1.425-.713 2.332c-.065.323.26.518.518.388l1.944-1.425 1.943 1.425c.259.195.583-.065.518-.388l-.712-2.332 1.943-1.425a.32.32 0 0 0-.195-.583h-2.396l-.778-2.267c-.129-.324-.518-.324-.647 0zM7.255 36.66l-.778 2.267H4.081a.32.32 0 0 0-.195.583l1.944 1.425-.713 2.332c-.065.324.26.518.518.389l1.943-1.425 1.944 1.425c.259.194.583-.065.518-.389l-.713-2.332 1.943-1.425a.32.32 0 0 0-.194-.583H8.68l-.778-2.267c-.13-.259-.518-.259-.647 0zm9.003-33.617l-.777 2.267h-2.397a.32.32 0 0 0-.194.583l1.943 1.425-.713 2.332c-.064.324.26.518.519.389l1.943-1.425 1.943 1.425c.26.194.583-.065.518-.389l-.712-2.332 1.943-1.425a.32.32 0 0 0-.194-.583h-2.397l-.777-2.267c-.13-.324-.518-.324-.648 0zM40.936 45.73l-.777 2.267h-2.396a.32.32 0 0 0-.195.583l1.943 1.425-.712 2.331c-.065.324.259.519.518.389L41.26 51.3l1.943 1.425c.26.194.583-.065.519-.389l-.713-2.331 1.943-1.425a.32.32 0 0 0-.194-.583h-2.397l-.777-2.267c-.13-.324-.583-.324-.648 0z" fill="#25195B"/><path fill="#E31366" d="M37.633 27.075a1.517 1.517 0 0 0-1.101-.453h-.518v-3.174c0-2.073-.713-3.822-2.203-5.247-1.49-1.49-3.238-2.202-5.246-2.202-2.008 0-3.822.712-5.247 2.202-1.49 1.49-2.202 3.239-2.202 5.247v3.174h-.518c-.454 0-.842.13-1.101.453a1.517 1.517 0 0 0-.454 1.101v9.587c0 .453.13.842.454 1.1.323.325.712.454 1.1.454h16c.453 0 .842-.13 1.1-.453.325-.324.454-.713.454-1.101v-9.587c-.065-.388-.194-.777-.518-1.101zM28.5 36.467c-.972 0-1.814-.842-1.814-1.814 0-.583.324-1.166.842-1.49V31.35c0-.583.454-1.036 1.037-1.036s1.036.453 1.036 1.036v1.814c.518.323.777.906.777 1.49-.064.971-.842 1.813-1.878 1.813zm4.275-9.845h-8.55v-3.174c0-1.166.389-2.203 1.23-3.045.843-.842 1.814-1.23 3.045-1.23 1.166 0 2.202.388 3.044 1.23.842.842 1.231 1.814 1.231 3.045v3.174z"/></g></svg>