<svg xmlns="http://www.w3.org/2000/svg" width="57" height="57"><g fill="none"><path fill="#7D7DBC" d="M28.144 10.616c-1.568 0-2.708-1.211-2.708-2.707V2.92c0-1.567 1.212-2.707 2.708-2.707 1.567 0 2.707 1.211 2.707 2.707V7.91c0 1.496-1.14 2.707-2.707 2.707z"/><path fill="#2B2366" d="M28.144 56.43c-1.568 0-2.708-1.211-2.708-2.708v-4.987c0-1.568 1.212-2.707 2.708-2.707 1.567 0 2.707 1.21 2.707 2.707v4.987c0 1.497-1.14 2.708-2.707 2.708z"/><path fill="#8F8FCC" d="M17.884 13.395c-.927 0-1.782-.428-2.351-1.354L13.11 7.766c-.712-1.282-.285-2.992.998-3.705 1.282-.712 2.992-.285 3.704.998l2.423 4.275c.713 1.282.285 2.992-.997 3.705-.357.142-.855.356-1.354.356z"/><path fill="#312C70" d="M40.826 52.939c-.926 0-1.781-.428-2.351-1.354l-2.422-4.275c-.713-1.282-.285-2.992.997-3.705 1.283-.712 2.992-.285 3.705.998l2.422 4.274c.713 1.283.285 2.993-.997 3.706-.428.285-.855.356-1.354.356z"/><path fill="#B0B0EA" d="M10.474 20.805c-.428 0-.927-.071-1.354-.356l-4.275-2.423c-1.282-.712-1.71-2.422-.997-3.705.712-1.282 2.422-1.71 3.705-.997l4.275 2.422c1.282.713 1.71 2.423.997 3.705a2.75 2.75 0 0 1-2.351 1.354z"/><path fill="#39387C" d="M50.16 43.748c-.427 0-.926-.072-1.354-.357L44.46 40.97c-1.282-.713-1.71-2.423-.998-3.705.713-1.283 2.423-1.71 3.705-.998l4.276 2.423c1.282.712 1.71 2.422.997 3.705-.427.855-1.354 1.354-2.28 1.354z"/><path fill="#E31366" d="M7.766 31.065H2.78C1.21 31.065.07 29.854.07 28.358c0-1.568 1.212-2.708 2.708-2.708h4.987c1.568 0 2.708 1.211 2.708 2.708 0 1.496-1.283 2.707-2.708 2.707z"/><path fill="#424284" d="M53.509 31.065H48.52c-1.567 0-2.707-1.211-2.707-2.707 0-1.568 1.211-2.708 2.707-2.708h4.988c1.567 0 2.707 1.211 2.707 2.708.072 1.496-1.14 2.707-2.707 2.707z"/><path fill="#25195B" d="M6.128 43.748c-.927 0-1.782-.428-2.352-1.354-.712-1.283-.285-2.993.998-3.705l4.275-2.423c1.282-.712 2.992-.285 3.705.998.712 1.282.285 2.992-.998 3.705L7.481 43.39c-.356.214-.784.357-1.353.357z"/><path fill="#559" d="M45.814 20.805c-.926 0-1.782-.427-2.352-1.354-.712-1.282-.285-2.992.998-3.705l4.275-2.422c1.282-.713 2.992-.285 3.705.997.713 1.283.285 2.993-.997 3.705l-4.276 2.423c-.427.285-.855.356-1.353.356z"/><path fill="#25195B" d="M15.461 52.939c-.427 0-.926-.072-1.354-.356-1.282-.713-1.71-2.423-.997-3.706l2.423-4.275c.712-1.282 2.422-1.71 3.705-.997 1.282.713 1.71 2.423.997 3.705l-2.422 4.275c-.5.926-1.425 1.354-2.352 1.354z"/><path fill="#6A6AAA" d="M38.404 13.395c-.428 0-.927-.071-1.354-.356-1.282-.713-1.71-2.423-.997-3.705l2.422-4.275c.712-1.283 2.422-1.71 3.705-.998 1.282.713 1.71 2.423.998 3.705l-2.423 4.275c-.57.784-1.425 1.354-2.351 1.354z"/></g></svg>