<svg xmlns="http://www.w3.org/2000/svg" width="57" height="57"><g fill="none"><circle cx="44.158" cy="12.911" r="2.61" fill="#E31366"/><path fill="#E31366" d="M28.294 42.784c-7.76 0-14.078-6.318-14.078-14.078s6.318-14.078 14.078-14.078 14.078 6.318 14.078 14.078-6.318 14.078-14.078 14.078zm0-25.272c-6.112 0-11.125 5.013-11.125 11.125s5.013 11.126 11.125 11.126 11.125-5.014 11.125-11.126c0-6.112-5.013-11.125-11.125-11.125z"/><path fill="#25195B" d="M41.548 56.863H14.971C6.731 56.863.07 50.133.07 41.96V15.383C.069 7.143 6.799.481 14.97.481h26.577c8.241 0 14.903 6.73 14.903 14.902V41.96c0 8.241-6.662 14.903-14.903 14.903zM14.971 2.884c-6.867 0-12.499 5.632-12.499 12.5V41.96c0 6.868 5.632 12.499 12.5 12.499h26.576c6.868 0 12.499-5.631 12.499-12.499V15.383c0-6.867-5.631-12.499-12.499-12.499H14.971z"/></g></svg>