<svg xmlns="http://www.w3.org/2000/svg" width="57" height="57"><path fill="#25195B" d="M49.4 31.338a1.9 1.9 0 0 1-3.8 0V14.25a1.9 1.9 0 0 1 3.8 0v17.088zm-.663 11.893c-.294.252-7.332 6.158-20.237 6.158-12.905 0-19.943-5.907-20.237-6.158a1.9 1.9 0 0 1 2.47-2.889c.11.093 6.396 5.246 17.767 5.246 11.514 0 17.702-5.19 17.763-5.242a1.9 1.9 0 1 1 2.474 2.885zM7.6 14.25a1.9 1.9 0 0 1 3.8 0v17.088a1.9 1.9 0 0 1-3.8 0V14.25zm9.5-3.8a1.9 1.9 0 0 1 3.8 0v25.383a1.9 1.9 0 0 1-3.8 0V10.45zm9.5-.962a1.9 1.9 0 1 1 3.8 0v27.55a1.9 1.9 0 0 1-3.8 0V9.488zm9.5.962a1.9 1.9 0 0 1 3.8 0v25.383a1.9 1.9 0 0 1-3.8 0V10.45zM49.875 0H7.125A7.125 7.125 0 0 0 0 7.125v42.75A7.125 7.125 0 0 0 7.125 57h42.75A7.125 7.125 0 0 0 57 49.875V7.125A7.125 7.125 0 0 0 49.875 0z"/></svg>