<svg xmlns="http://www.w3.org/2000/svg" width="57" height="52"><g fill="none"><path fill="#25195B" d="M26.067 48.867C13.277 48.867 2.92 38.44 2.92 25.72c0-12.721 10.426-23.148 23.147-23.148 11.192 0 20.506 7.924 22.661 18.49H51.3C49.076 9.106 38.58 0 25.998 0 11.818 0 .278 11.539.278 25.72c0 14.18 11.54 25.719 25.72 25.719 9.94 0 18.56-5.63 22.87-13.902h-2.92a23.071 23.071 0 0 1-19.88 11.33z"/><path fill="#E31366" d="M38.51 27.596l-12.373-2.502-6.952-10.496c-.417-.557-1.181-.765-1.807-.348-.626.417-.765 1.182-.348 1.807l7.3 10.983c.069.14.208.278.347.348.139.07.278.139.486.208l12.93 2.642c.347.07.695 0 .973-.209.278-.208.486-.486.556-.834 0-.765-.487-1.46-1.112-1.599z"/><path fill="#25195B" d="M56.93 20.367a.47.47 0 0 0-.417-.278H44.071c-.14 0-.348.07-.417.278-.07.14 0 .348.07.487l6.255 6.256c.07.07.209.139.278.139.07 0 .209-.07.278-.14l6.256-6.255c.14-.14.14-.348.14-.487z"/></g></svg>