<svg xmlns="http://www.w3.org/2000/svg" width="57" height="57"><g fill="none"><path fill="#25195B" d="M55.453.733h-9.69c-.57 0-.977.407-.977.977v43.239H1.14c-.57 0-.977.407-.977.977v9.201c0 .57.407.977.977.977h54.394c.57 0 .977-.407.977-.977V1.71c0-.57-.488-.977-1.058-.977zm-.977 53.417H2.117v-7.247h5.537v2.931c0 .407.326.815.815.815.488 0 .814-.326.814-.815v-2.931h5.944v2.931c0 .407.326.815.814.815.489 0 .815-.326.815-.815v-2.931h6.025v2.931c0 .407.326.815.815.815a.816.816 0 0 0 .814-.815v-2.931h6.433v2.931c0 .407.326.815.814.815.489 0 .814-.326.814-.815v-2.931h6.27v2.931c0 .407.326.815.815.815.488 0 .814-.326.814-.815v-2.931h5.456c.57 0 .977-.407.977-.977v-5.212h2.443a.816.816 0 0 0 .814-.814.816.816 0 0 0-.814-.814h-2.443V33.14h2.443a.816.816 0 0 0 .814-.814.816.816 0 0 0-.814-.814h-2.443v-6.026h2.443a.816.816 0 0 0 .814-.814c0-.489-.326-.814-.814-.814h-2.443v-6.433h2.443a.816.816 0 0 0 .814-.815c0-.488-.326-.814-.814-.814h-2.443v-6.27h2.443a.816.816 0 0 0 .814-.814c0-.489-.326-.814-.814-.814h-2.443V2.524h7.736V54.15h-.163z"/><g fill="#E31366"><path d="M15.553 10.83c1.14 0 2.036.652 2.036 1.059 0 .57-.896 1.058-2.036 1.058-1.14 0-2.036-.651-2.036-1.058 0-.489.896-1.059 2.036-1.059zm0 3.583c1.873 0 3.42-1.058 3.42-2.443 0-1.384-1.466-2.443-3.42-2.443s-3.42 1.059-3.42 2.443c0 1.303 1.547 2.443 3.42 2.443z"/><path d="M34.526 22.882H13.599c-.407 0-.652.244-.652.651v7.492c-3.582-.733-6.107-2.769-6.107-5.212V15.31c1.792 2.036 4.967 3.42 8.713 3.42h18.973c1.14 0 2.036.896 2.036 2.036 0 1.221-.815 2.117-2.036 2.117zm2.036 12.377c0 1.14-.896 2.036-2.036 2.036h-.814V34.2c0-.407-.245-.651-.652-.651-.407 0-.651.244-.651.651v3.176h-2.524V34.2c0-.407-.245-.651-.652-.651-.407 0-.651.244-.651.651v3.176h-2.525V34.2c0-.407-.244-.651-.651-.651-.407 0-.651.244-.651.651v3.176H22.23V34.2c0-.407-.244-.651-.651-.651-.407 0-.652.244-.652.651v3.176h-2.524V34.2c0-.407-.244-.651-.651-.651-.407 0-.652.244-.652.651v3.176H14.74v-5.293c0-.081.081-.163.081-.163 0-.163 0-.244-.081-.325v-7.41h20.276c.732 0 1.465-.245 2.035-.652V35.26h-.488zM15.553 6.515c4.886 0 8.713 2.442 8.713 5.455s-3.909 5.456-8.713 5.456c-4.804 0-8.713-2.443-8.713-5.456 0-3.013 3.909-5.455 8.713-5.455zm8.794 10.911H21.58c1.058-.57 2.036-1.221 2.768-2.036v2.036zm10.179 0H25.65V11.97c0-3.745-4.478-6.84-10.097-6.84-5.618 0-10.097 3.095-10.097 6.84v13.925c0 3.094 3.094 5.781 7.41 6.595v5.619c0 .407.244.651.651.651h20.928c1.872 0 3.42-1.465 3.42-3.42V20.765c.081-1.873-1.385-3.339-3.339-3.339z"/></g></g></svg>