<svg xmlns="http://www.w3.org/2000/svg" width="40" height="36"><g fill="none"><path fill="#25195B" d="M27.167 3.163L16.963 9.057a1.682 1.682 0 0 1-2.298-.616 1.681 1.681 0 0 1 .613-2.298L25.482.253a1.683 1.683 0 0 1 2.298.612c.469.8.191 1.833-.613 2.298zm-9.363 7.347l10.204-5.89 5.894 10.204-10.204 5.89-5.894-10.204zm18.62 8.686l-10.204 5.89a1.682 1.682 0 0 1-1.685-2.915l10.204-5.89a1.682 1.682 0 0 1 2.298.617 1.67 1.67 0 0 1-.613 2.298zm-35.163 4.75l18.645-9.79 1.682 2.913-17.8 11.253a2.523 2.523 0 0 1-3.45-.922 2.53 2.53 0 0 1 .923-3.453z"/><path fill="#E31366" d="M19.743 32.449c0-.93.755-1.682 1.681-1.682h15.152c.93 0 1.681.751 1.681 1.682v1.682l1.739-.037-.057 1.718H18.06l-.077-1.612 1.657-.07c-.004 0 .102-.754.102-1.681z"/></g></svg>