<svg xmlns="http://www.w3.org/2000/svg" width="57" height="57"><g fill="none"><path fill="#E31366" d="M53.336 2.036a5.8 5.8 0 0 0-8.225 0L22.067 25.08c-.163.163-.244.326-.326.57L18.73 36.561c-.163.489 0 .896.325 1.222.326.326.815.488 1.222.326l10.911-3.013c.244-.082.407-.163.57-.326l23.044-23.044a5.8 5.8 0 0 0 0-8.225l-1.465-1.465zm-28.5 23.94L43.727 7.084l6.107 6.107-18.891 18.892-6.107-6.107zm-1.222 2.443l4.886 4.885-6.759 1.873 1.873-6.758zM53.01 9.934l-1.384 1.385-6.107-6.108 1.384-1.384c1.303-1.221 3.338-1.221 4.56 0l1.547 1.547c1.303 1.303 1.303 3.339 0 4.56z"/><path fill="#25195B" d="M33.711 51.951c0 .733-.57 1.303-1.302 1.303H4.64c-.732 0-1.302-.57-1.302-1.303V24.184c0-.733.57-1.303 1.302-1.303H20.44l3.012-3.012H4.641c-2.361 0-4.315 1.954-4.315 4.315v27.767c0 2.362 1.954 4.316 4.315 4.316H32.41c2.361 0 4.315-1.954 4.315-4.316V33.55l-3.013 3.012v15.39z"/></g></svg>