<svg xmlns="http://www.w3.org/2000/svg" width="57" height="57"><g fill="none"><path fill="#E31366" d="M35.49 21.036c-.272-.272-.612-.272-.883-.136l-8.957 4.546c-.204.136-.407.34-.407.543-.068.272.068.475.203.679l4.411 4.41a.77.77 0 0 0 .543.204h.136c.271-.068.475-.204.542-.407l4.547-8.957c.136-.34.136-.679-.136-.882z"/><path fill="#25195B" d="M30.943 29.993l-4.411-4.411c-.204-.204-.407-.271-.679-.204-.271.068-.475.204-.542.408l-4.547 8.957c-.136.271-.068.678.136.882a.77.77 0 0 0 .543.203c.135 0 .271 0 .339-.067l8.957-4.547c.204-.136.407-.34.407-.543.068-.271 0-.475-.203-.678z"/><g fill="#25195B"><path d="M28.16.204C12.622.204.069 12.825.069 28.296c0 15.54 12.621 28.093 28.093 28.093 15.539 0 28.093-12.621 28.093-28.093C56.32 12.825 43.7.204 28.16.204zm0 53.742c-14.114 0-25.65-11.467-25.65-25.65 0-14.114 11.469-25.65 25.65-25.65 14.115 0 25.65 11.468 25.65 25.65 0 14.183-11.467 25.65-25.65 25.65z"/><path d="M28.16 4.479C14.997 4.479 4.276 15.2 4.276 28.364c0 13.165 10.721 23.886 23.886 23.886 13.164 0 23.885-10.721 23.885-23.886C52.046 15.2 41.325 4.48 28.161 4.48zM29.722 51.3v-5.429c0-.678-.542-1.221-1.221-1.221s-1.221.543-1.221 1.221v5.497C15.404 50.893 5.836 41.46 5.225 29.654h5.225c.679 0 1.221-.543 1.221-1.222 0-.678-.542-1.221-1.221-1.221H5.225c.61-11.807 10.179-21.375 22.054-21.85v5.496c0 .679.542 1.222 1.221 1.222s1.221-.543 1.221-1.222V5.43c11.604.814 20.833 10.178 21.443 21.782H45.94c-.678 0-1.221.543-1.221 1.221 0 .679.543 1.222 1.221 1.222h5.225c-.61 11.535-9.839 20.9-21.443 21.646z"/></g></g></svg>