<svg xmlns="http://www.w3.org/2000/svg" width="55" height="57"><g fill="none"><path fill="#E31366" d="M43.527.518h-32.04c-2.505 0-4.578 2.073-4.578 4.577v23.923l3.196 2.85V5.095c0-.777.604-1.381 1.381-1.381h32.041c.778 0 1.382.604 1.382 1.381V32.041l3.196-2.764V5.095c0-2.504-2.073-4.577-4.578-4.577z"/><path fill="#25195B" d="M50.35 24.96h-2.245v3.195h1.381L36.36 39.64 28.5 33.68c-.605-.431-1.382-.431-1.9 0l-7.945 5.96-10.623-9.414-1.21-1.036-1.036-.95h1.037v-3.196h-2.16c-2.504 0-4.577 2.073-4.577 4.578v22.195c0 .777.173 1.468.519 2.073A5.656 5.656 0 0 0 1.9 55.445c.777.519 1.64.864 2.677.864h45.6a4.462 4.462 0 0 0 2.764-.95c.432-.345.777-.69 1.036-1.123.518-.69.778-1.554.778-2.504V29.45c.172-2.505-1.9-4.49-4.405-4.49zM3.368 51.126V30.141l12.696 11.314-12.696 9.672zM5.873 53.2L27.55 36.79 49.055 53.2H5.873zm45.859-1.986l-12.782-9.76 12.782-11.14v20.9zM42.145 16.84H13.126c-.259 0-.518-.26-.518-.518 0-.26.26-.518.518-.518h29.019c.259 0 .518.259.518.518s-.26.518-.518.518zm0-3.714H13.126c-.259 0-.518-.259-.518-.518s.26-.518.518-.518h29.019c.259 0 .518.26.518.518 0 .26-.26.518-.518.518zm0 7.428H13.126c-.259 0-.518-.26-.518-.519s.26-.518.518-.518h29.019c.259 0 .518.26.518.518 0 .26-.26.519-.518.519z"/></g></svg>