<svg xmlns="http://www.w3.org/2000/svg" width="53" height="56"><g fill="none"><path fill="#25195B" d="M48.41 55.796H5.058c-2.328 0-4.255-1.927-4.255-4.255V20.713c0-2.328 1.927-4.255 4.255-4.255H48.41c2.328 0 4.255 1.927 4.255 4.255V51.54a4.231 4.231 0 0 1-4.255 4.255zM5.058 19.348c-.723 0-1.285.562-1.285 1.284v30.829c0 .722.562 1.284 1.285 1.284H48.41c.722 0 1.284-.562 1.284-1.284V20.632c0-.722-.562-1.284-1.284-1.284H5.058z"/><g fill="#25195B"><path d="M.803 28.178h51.862v2.97H.803zM.803 41.184h51.862v2.97H.803z"/><g><path d="M12.845 16.377h2.97v39.418h-2.97zM25.289 16.377h2.97v39.418h-2.97zM38.053 16.377h2.97v39.418h-2.97z"/></g></g><path fill="#E31366" d="M49.935 8.189h-5.459V3.13c0-1.525-1.284-2.81-2.81-2.81h-6.101c-1.526 0-2.81 1.285-2.81 2.81v5.058H20.713V3.13c0-1.525-1.285-2.81-2.81-2.81H11.8c-1.525 0-2.81 1.285-2.81 2.81v5.058H3.533c-1.525 0-2.81 1.284-2.81 2.81v9.714c0-2.328 1.927-4.255 4.255-4.255H48.33c2.328 0 4.255 1.927 4.255 4.255v-9.714a2.66 2.66 0 0 0-2.65-2.81zm-32.594 3.773a2.501 2.501 0 0 1-2.489 2.489 2.501 2.501 0 0 1-2.489-2.489V4.897a2.501 2.501 0 0 1 2.49-2.489 2.501 2.501 0 0 1 2.488 2.49v7.064zm23.763 0a2.501 2.501 0 0 1-2.489 2.489 2.501 2.501 0 0 1-2.488-2.489V4.897a2.501 2.501 0 0 1 2.488-2.489 2.501 2.501 0 0 1 2.49 2.49v7.064z"/></g></svg>