<svg xmlns="http://www.w3.org/2000/svg" width="57" height="57"><g fill="none"><g fill="#25195B"><path d="M27.961.616l-2.85 1.156c-1.54.616-2.234 2.387-1.617 3.851l.693 1.772a20.997 20.997 0 0 0-3.697 3.697l-1.772-.693a2.815 2.815 0 0 0-2.234 0c-.693.308-1.31.847-1.617 1.617l-1.156 2.85c-.616 1.54.077 3.235 1.618 3.852l2.619 1.078c.616.231 1.232 0 1.463-.616.231-.616 0-1.233-.616-1.464l-2.619-1.078c-.308-.154-.54-.54-.385-.847l1.155-2.85a.928.928 0 0 1 .385-.386c.155-.077.309-.077.54 0l2.619 1.079c.539.23 1.078 0 1.386-.385a14.91 14.91 0 0 1 4.39-4.39c.463-.309.617-.848.463-1.387l-1.079-2.62c-.154-.307 0-.77.386-.847l2.85-1.155c.154-.077.308-.077.539 0a.928.928 0 0 1 .385.385l1.078 2.62c.231.538.77.77 1.31.692 2.08-.385 4.16-.385 6.162 0 .54.077 1.078-.154 1.31-.693l1.078-2.619c.154-.308.539-.54.847-.385l2.85 1.155a.928.928 0 0 1 .385.386c.077.154.077.308 0 .539l-1.078 2.619c-.231.539 0 1.078.385 1.386a14.91 14.91 0 0 1 4.39 4.39c.309.463.848.617 1.387.463l2.619-1.079c.154-.077.308-.077.539 0a.928.928 0 0 1 .385.386l1.156 2.85c.077.154.077.308 0 .539a.928.928 0 0 1-.386.385l-2.618 1.078c-.54.231-.77.77-.694 1.31.385 2.08.385 4.16 0 6.162-.077.54.154 1.078.694 1.31l2.618 1.078c.309.154.54.539.386.847l-1.156 2.85c-.154.308-.539.54-.847.385l-2.62-1.078c-.538-.231-1.077 0-1.386.385a14.91 14.91 0 0 1-4.39 4.39c-.462.309-.616.848-.462 1.387l1.078 2.619c.077.154.077.308 0 .54a.928.928 0 0 1-.385.384l-2.85 1.156c-.154.077-.308.077-.54 0a.928.928 0 0 1-.384-.386l-1.079-2.618c-.23-.617-.924-.848-1.463-.617-.616.231-.848.925-.616 1.464l1.078 2.619c.308.693.847 1.31 1.618 1.617.385.154.77.231 1.155.231s.77-.077 1.155-.23l2.85-1.156c.694-.308 1.31-.847 1.618-1.618a2.815 2.815 0 0 0 0-2.233l-.693-1.772a20.997 20.997 0 0 0 3.697-3.697l1.772.693c1.54.616 3.235-.077 3.85-1.618l1.156-2.85c.617-1.54-.077-3.235-1.617-3.851l-1.772-.693a19.874 19.874 0 0 0 0-5.238l1.772-.693c.693-.308 1.31-.848 1.617-1.618a2.815 2.815 0 0 0 0-2.234l-1.155-2.85c-.308-.693-.847-1.31-1.618-1.617a2.815 2.815 0 0 0-2.233 0l-1.772.693a20.997 20.997 0 0 0-3.697-3.697l.693-1.772a2.815 2.815 0 0 0 0-2.234c-.308-.693-.847-1.31-1.618-1.617L42.52.924c-1.54-.616-3.235.077-3.851 1.618l-.693 1.772a19.874 19.874 0 0 0-5.238 0l-.693-1.772c-.308-.693-.848-1.31-1.618-1.618-.924-.616-1.695-.616-2.465-.308z"/><path d="M44.445 21.876c0-5.084-4.16-9.167-9.243-9.167h-.077c-2.465 0-4.776 1.002-6.548 2.773-1.771 1.772-2.696 4.083-2.696 6.548 0 .616.54 1.155 1.156 1.155.616 0 1.155-.54 1.155-1.155 0-1.849.694-3.62 2.003-4.93 1.31-1.31 3.081-2.08 4.93-2.08h.077c3.851 0 6.932 3.081 7.01 6.933 0 3.851-3.082 7.01-6.933 7.01-.616 0-1.156.538-1.156 1.155 0 .616.54 1.155 1.156 1.155 5.084-.077 9.166-4.237 9.166-9.397z"/></g><g fill="#E31366"><path d="M15.945 56.153h2.233a2.433 2.433 0 0 0 2.465-2.465v-1.155a16.081 16.081 0 0 0 3.158-1.31l.77.77c.463.463 1.079.694 1.772.694.693 0 1.31-.231 1.772-.694l1.54-1.54c.463-.462.694-1.079.694-1.772 0-.693-.231-1.31-.694-1.771l-.77-.77a16.081 16.081 0 0 0 1.31-3.159h1.155a2.433 2.433 0 0 0 2.465-2.465v-2.233a2.433 2.433 0 0 0-2.465-2.465h-1.155a16.081 16.081 0 0 0-1.31-3.158l.77-.77c.463-.463.694-1.079.694-1.772 0-.616-.231-1.31-.694-1.772l-1.54-1.54c-.462-.463-1.079-.694-1.772-.694-.616 0-1.31.231-1.771.694l-.77.77a16.081 16.081 0 0 0-3.159-1.31v-1.155a2.433 2.433 0 0 0-2.465-2.465h-2.233a2.433 2.433 0 0 0-2.465 2.465v1.155c-1.079.308-2.157.77-3.158 1.31l-.77-.77c-.463-.463-1.079-.694-1.772-.694-.616 0-1.31.231-1.772.694l-1.54 1.54c-.925.924-.925 2.542 0 3.466l.77.77a16.081 16.081 0 0 0-1.31 3.159H2.773a2.433 2.433 0 0 0-2.465 2.465v2.233a2.433 2.433 0 0 0 2.465 2.465h1.155c.308 1.079.77 2.157 1.31 3.158l-.77.77c-.925.925-.925 2.542 0 3.467l1.54 1.54c.462.463 1.078.694 1.772.694.616 0 1.31-.231 1.771-.694l.77-.77c1.002.54 2.08 1.001 3.159 1.31v1.155c.077 1.54 1.155 2.619 2.465 2.619zm-5.084-7.24c-.231-.155-.385-.232-.616-.232-.309 0-.617.077-.77.308L8.01 50.453c-.077.077-.077.077-.154.077 0 0-.077 0-.154-.077l-1.54-1.54c-.078-.078-.078-.155 0-.232l1.463-1.463a1.166 1.166 0 0 0 .154-1.464c-.848-1.232-1.387-2.619-1.695-4.005a1.08 1.08 0 0 0-1.078-.925H3.004a.166.166 0 0 1-.154-.154v-2.233c0-.077.077-.154.154-.154h2.003a1.08 1.08 0 0 0 1.078-.925c.308-1.463.847-2.85 1.695-4.005a1.166 1.166 0 0 0-.154-1.464l-1.464-1.463c-.077-.077-.077-.154 0-.231l1.54-1.54c.078-.078.078-.078.155-.078 0 0 .077 0 .154.077l1.463 1.464a1.166 1.166 0 0 0 1.464.154c1.232-.848 2.619-1.387 4.005-1.695.54-.077.925-.539.925-1.078v-2.003c0-.077.077-.154.154-.154h2.233c.077 0 .154.077.154.154V27.5c0 .539.386 1.001.925 1.078 1.463.308 2.85.847 4.005 1.695a1.166 1.166 0 0 0 1.464-.154l1.463-1.464c.077-.077.077-.077.154-.077 0 0 .077 0 .154.077l1.54 1.54c.078.078.078.078.078.155 0 0 0 .077-.077.154l-1.464 1.463a1.166 1.166 0 0 0-.154 1.464c.848 1.232 1.387 2.619 1.695 4.005.077.54.54.925 1.078.925h2.003c.077 0 .154.077.154.154v2.233a.166.166 0 0 1-.154.155H29.27a1.08 1.08 0 0 0-1.078.924c-.308 1.463-.847 2.85-1.695 4.005a1.166 1.166 0 0 0 .154 1.464l1.464 1.463c.077.077.077.077.077.154 0 0 0 .077-.077.154l-1.54 1.54c-.078.078-.078.078-.155.078 0 0-.077 0-.154-.077l-1.463-1.464a1.166 1.166 0 0 0-1.464-.154c-1.232.848-2.619 1.387-4.005 1.695a1.08 1.08 0 0 0-.925 1.078v2.003a.166.166 0 0 1-.154.154h-2.233a.166.166 0 0 1-.154-.154v-2.003a1.08 1.08 0 0 0-.925-1.078c-1.54-.385-2.85-.924-4.082-1.772z"/><path d="M23.801 39.515c0-3.697-3.004-6.778-6.778-6.778-3.697 0-6.778 3.004-6.778 6.778 0 3.697 3.004 6.778 6.778 6.778a6.74 6.74 0 0 0 6.778-6.778zm-11.169 0a4.47 4.47 0 0 1 4.468-4.468 4.47 4.47 0 0 1 4.468 4.468 4.47 4.47 0 0 1-4.468 4.468c-2.465.077-4.468-2.003-4.468-4.468z"/></g></g></svg>