<svg xmlns="http://www.w3.org/2000/svg" width="57" height="38"><g fill="none"><path d="M55.338 3.563H12.113a1.42 1.42 0 0 1-1.425-1.425A1.42 1.42 0 0 1 12.113.713h43.225a1.42 1.42 0 0 1 1.425 1.425 1.42 1.42 0 0 1-1.425 1.425zm0 17.495H12.113a1.42 1.42 0 0 1-1.425-1.425 1.42 1.42 0 0 1 1.425-1.425h43.225a1.42 1.42 0 0 1 1.425 1.425c0 .713-.633 1.425-1.425 1.425zm0 16.942H12.113a1.42 1.42 0 0 1-1.425-1.425 1.42 1.42 0 0 1 1.425-1.425h43.225a1.42 1.42 0 0 1 1.425 1.425A1.42 1.42 0 0 1 55.338 38z" fill="#E31366"/><path d="M7.046 3.563H1.425A1.42 1.42 0 0 1 0 2.138 1.42 1.42 0 0 1 1.425.713h5.62a1.42 1.42 0 0 1 1.426 1.425 1.42 1.42 0 0 1-1.425 1.425zm0 17.495H1.425A1.42 1.42 0 0 1 0 19.633a1.42 1.42 0 0 1 1.425-1.425h5.62a1.42 1.42 0 0 1 1.426 1.425c0 .713-.633 1.425-1.425 1.425zm0 16.942H1.425A1.42 1.42 0 0 1 0 36.575a1.42 1.42 0 0 1 1.425-1.425h5.62a1.42 1.42 0 0 1 1.426 1.425A1.42 1.42 0 0 1 7.046 38z" fill="#25195B"/></g></svg>