<svg xmlns="http://www.w3.org/2000/svg" width="57" height="57"><g fill="none"><path fill="#25195B" d="M54.197 38.498H20.93a2.612 2.612 0 0 1-2.616-2.616V2.616A2.612 2.612 0 0 1 20.93 0h33.266a2.612 2.612 0 0 1 2.616 2.616v33.266a2.612 2.612 0 0 1-2.616 2.616z"/><path fill="#E31366" d="M14.764 9.157h-2.056c-1.775 0-3.27 1.495-3.27 3.27v32.145c0 1.776 1.495 3.27 3.27 3.27h32.144c1.776 0 3.271-1.494 3.271-3.27V42.05H14.857V9.157h-.093z"/><path fill="#25195B" d="M6.074 18.315H4.018c-1.775 0-3.27 1.495-3.27 3.27V53.73c0 1.775 1.495 3.27 3.27 3.27h32.144c1.776 0 3.27-1.495 3.27-3.27v-2.523H6.168V18.315h-.093z"/><path fill="#FFF" d="M24.015 27.472h27.098L41.021 10.933l-8.036 12.801-3.644-5.513z"/></g></svg>