<svg xmlns="http://www.w3.org/2000/svg" width="57" height="53"><g fill="none"><path fill="#25195B" d="M37.358 24.264l-1.232.539-4.237 1.848-3.466 1.464-3.466-1.464-4.237-1.848-2.465-1.079-1.694-.693-2.773-1.232-3.235-1.387-2.85-1.232-.54.23c-.077 0-.154.078-.154.078-.077 0-.154.077-.23.23L.923 28.732c-.23.308-.23.693-.154 1.001.077.386.308.617.694.77l5.083 2.157v6.933c0 .462.231.847.617 1.078l20.643 11.708c.154.077.385.154.616.154.231 0 .385-.077.616-.154L49.682 40.67a1.23 1.23 0 0 0 .617-1.078v-6.856l5.237-2.233c.309-.154.617-.462.694-.77.077-.386.077-.694-.154-1.002l-6.008-9.012c-.077-.077-.077-.154-.154-.154-.078-.077-.155-.077-.232-.154l-.308-.154-12.016 5.007zM3.774 28.885l4.39-6.855 18.333 7.934-4.467 6.624-18.256-7.703zm23.494 20.412L9.012 38.976v-5.161l13.095 5.546c.154.077.308.077.462.077.385 0 .77-.231 1.078-.54l3.62-5.391v15.79zm20.566-10.321L29.732 49.297V33.353l3.698 5.546c.308.462.924.693 1.54.462l12.94-5.47v5.085h-.076zm.847-16.946l4.545 6.855-18.333 7.78-4.467-6.701L48.68 22.03z"/><path fill="#E31366" d="M7.703 19.18l.308.154v-.925l9.166 3.62v1.233l.924.385v-1.694l3.467-1.387v4.545l1 .462v-7.857l12.633 5.007v2.465l.848-.385.154-.077v-2.003l12.478-5.007v1.772l.616-.231.308.154c.077 0 .077.077.077.077v-2.465-.154c0-.077-.077-.077-.077-.154-.077-.077-.077-.077-.154-.077l-9.705-4.16V5.7v-.154c0-.077-.077-.077-.077-.154-.077-.077-.077-.077-.154-.077L28.577.616c-.154-.077-.308-.077-.385 0L17.1 5.315c-.154.077-.231.154-.231.308v7.934l-9.32 3.928-.231.231v1.926l.077-.077.308-.385zm40.208-2.157l-12.17 4.853-12.325-4.853 12.325-5.238 12.17 5.238zm-9.166-5.084l-2.773-1.155c-.154-.077-.308-.077-.386 0l-6.7 2.85v-3.235l9.859-3.929v5.47zm-10.4-10.475l9.552 4.082-9.551 3.851-9.705-3.851 9.705-4.082zm-10.552 4.93l10.014 3.928v3.697l-3.775 1.617-6.162-2.618h-.077V6.393zm-.154 7.625s.077 0 .077.077h.077v-.077l5.007 2.157-.924.385c-.154.077-.231.154-.231.23v2.774l-3.929 1.54-8.858-3.466 8.781-3.62z"/></g></svg>