<svg xmlns="http://www.w3.org/2000/svg" width="223" height="60" viewBox="0 0 223 60">
  <path d="M117.326126,0.245545546 C116.165365,0.513413413 115.160861,1.16076076 114.714414,1.94204204 C114.513514,2.27687688 114.022422,3.72782783 113.642943,5.13413413 C113.263463,6.54044044 112.45986,9.26376376 111.879479,11.1611612 L110.808008,14.6211211 L109.379379,14.9113113 C107.682883,15.2461461 107.057858,15.7372372 106.589089,17.2105105 C106.031031,18.8623624 106.544444,19.7329329 107.995395,19.6213213 C109.334735,19.5097097 109.401702,19.5766767 109.245445,20.4695696 C108.888288,22.5009009 106.856957,29.0413413 106.142643,30.46997 C105.316717,32.1664665 103.977377,33.6843844 102.794294,34.2424424 C101.678178,34.7781782 99.5798799,35.1576577 99.312012,34.8897898 C99.1557558,34.7335335 99.2896897,34.2201201 99.7807808,33.2602603 C100.606707,31.6307307 101.12012,29.4654655 101.12012,27.5680681 C101.12012,25.3581582 99.8031031,22.2107107 98.0842843,20.3133133 C97.6601602,19.8445445 97.3253253,19.3088088 97.3253253,19.1079079 C97.3253253,18.907007 97.6601602,18.3043043 98.0842843,17.7462462 C99.1334334,16.3845846 99.5352352,14.5764765 99.0887888,13.3264264 C98.6423423,12.0540541 97.8610611,11.5406406 96.3431431,11.562963 C94.0439439,11.5852853 91.5438438,13.1478478 90.4946947,15.2015015 C89.891992,16.4069069 89.7803804,18.0141141 90.2045045,19.4204204 C90.3607608,19.8891892 90.4054054,20.5142142 90.3161161,20.8267267 C90.1152152,21.6526527 84.3337337,30.403003 82.7265265,32.345045 C79.4451451,36.2514515 77.1236236,37.9479479 74.9583584,37.9479479 C73.8199199,37.9479479 72.7707708,37.5907908 72.7707708,37.188989 C72.7707708,37.0550551 73.4627628,36.1844845 74.2886887,35.2692693 C78.0388388,31.161962 80.1371371,26.6528529 80.1371371,22.7910911 C80.1371371,16.4961962 73.5074074,15.0229229 67.1009009,19.8668669 C65.3597598,21.1838839 63.7748749,23.1482482 62.7257257,25.3358358 C61.497998,27.8582583 61.0961962,29.5993994 61.0738739,32.3673674 C61.0515516,34.421021 61.1408408,34.9344344 61.6988989,36.4523524 C62.0337337,37.3898899 62.2792793,38.3051051 62.2123123,38.4613614 C62.0560561,38.8854855 59.0202202,39.7783784 57.3683684,39.9123123 C56.5647648,39.956957 55.5602603,39.9123123 55.1361361,39.8007007 C53.8637638,39.4658659 53.9530531,38.8631632 56.2076076,33.2156156 C57.3014014,30.46997 58.2612613,27.8582583 58.3282282,27.4118118 C58.6407407,25.3135135 57.5023023,23.9518519 53.9753754,22.2553554 L51.5645646,21.0945946 L51.5645646,19.3980981 C51.5645646,17.9917918 51.4752753,17.58999 51.0734735,17.0765766 C50.5377377,16.3845846 49.4216216,15.8488488 48.5064064,15.8488488 C46.7652653,15.8488488 44.1535536,17.9248248 43.8187187,19.5766767 C43.5062062,21.1392392 43.6401401,22.6125125 44.1758759,23.5500501 L44.666967,24.4429429 L43.0151151,28.5725726 C42.0998999,30.8494494 41.0284284,33.3718719 40.6489489,34.2201201 C38.7069069,38.4836837 36.6309309,41.0507508 34.0415415,42.3231231 C32.2780781,43.1936937 32.1664665,43.3945946 31.8316316,45.917017 C31.6307307,47.2786787 31.8093093,47.5465465 32.9031031,47.5465465 C34.6665666,47.5465465 38.3274274,45.3812813 40.581982,43.0151151 C42.8365365,40.6266266 44.1535536,38.2381381 46.7652653,31.8093093 C48.684985,27.0992993 48.8635636,26.8760761 49.8903904,27.5457457 C50.7832833,28.1261261 50.627027,29.1306306 49.0198198,33.1486486 C47.5242242,36.8318318 46.6536537,39.7560561 46.6536537,40.9391391 C46.675976,42.7472472 48.0822823,44.2874875 50.2252252,44.8901902 C53.5066066,45.8054054 60.9176176,44.5776777 64.6677678,42.5017017 C65.4267267,42.0775776 66.2303303,41.7427427 66.4535536,41.7427427 C66.6767768,41.7427427 67.4134134,42.0106106 68.0830831,42.3454454 C69.1768769,42.8588589 69.6456456,42.9481481 72.235035,43.0374374 C76.0298298,43.1713714 77.012012,42.9481481 79.3112112,41.4525526 C80.3157157,40.7828829 81.2532533,40.1801802 81.3871872,40.1132132 C81.5434434,40.0239239 82.3024024,40.2694695 83.106006,40.6266266 C85.8516517,41.9213213 89.891992,41.6757758 93.1510511,40.0239239 C94.1778779,39.5105105 94.3787788,39.4881882 95.4056056,39.6890891 C97.5262262,40.1355355 98.5530531,40.2025025 99.937037,39.9792793 C101.655856,39.7114114 104.780981,38.2604605 106.298899,37.0550551 C106.923924,36.563964 107.504304,36.1621622 107.593594,36.1621622 C107.682883,36.1621622 107.995395,36.3407407 108.285586,36.5862863 C109.200801,37.2782783 109.758859,37.5015015 111.656256,37.8586587 C114.937638,38.4836837 118.285986,37.9925926 121.924525,36.3407407 L123.42012,35.6487487 L124.536236,36.1398398 C127.415816,37.3675676 131.366867,36.0728729 134.625926,32.8361361 C135.563463,31.8985986 136.434034,30.9387387 136.545646,30.7155155 C136.88048,30.1128128 137.282282,30.46997 137.282282,31.3628629 C137.282282,32.9700701 137.996597,33.6620621 140.318118,34.2647648 C142.081582,34.7112112 145.809409,34.7112112 147.193393,34.2424424 C147.773774,34.0415415 148.30951,33.9522523 148.376476,34.0192192 C148.622022,34.2647648 147.037137,39.4435435 146.568368,39.88999 C146.501401,39.956957 121.009309,43.282983 89.9366366,47.301001 C58.863964,51.2966967 33.5727728,54.6004004 33.729029,54.6227227 C33.9076076,54.6673674 72.6591592,52.7476476 119.848549,50.3591592 C187.418218,46.9438438 205.7002,45.9616617 205.945746,45.7384384 C206.637738,45.0018018 216.526527,31.1396396 216.37027,31.094995 C216.258659,31.0503504 202.173273,32.8361361 185.052052,35.046046 C167.953153,37.255956 153.89009,38.9970971 153.845445,38.9524525 C153.666867,38.7738739 155.14014,32.9031031 155.474975,32.4566567 C155.742843,32.0771772 155.876777,32.0771772 156.791992,32.3227227 C158.845646,32.8584585 161.055556,32.5236236 163.89049,31.2066066 L165.363764,30.5369369 L166.680781,31.028028 C167.618318,31.3851852 168.645145,31.5637638 170.453253,31.6307307 C173.221221,31.7646647 174.694494,31.4298298 176.971371,30.1128128 C180.877778,27.8805806 184.784184,22.2553554 187.351251,15.1568569 C188.958458,10.7147147 189.025425,10.6477477 190.297798,11.6522523 C191.101401,12.2772773 191.012112,12.9692693 189.538839,16.4292292 C186.436036,23.8179179 186.212813,26.451952 188.623624,28.0591592 C190.967467,29.6663664 195.789089,29.4208208 201.124124,27.4564565 C202.173273,27.076977 203.110811,26.6751752 203.244745,26.5412412 C203.557257,26.2287287 204.092993,26.2956957 205.164464,26.7644645 C207.441341,27.768969 210.78969,27.5011011 213.401401,26.0947948 C216.236336,24.5768769 219.361461,20.4249249 221.214214,15.7149149 C222.642843,12.0317317 222.866066,10.9602603 222.888388,7.7012012 C222.888388,4.24124124 222.531231,3.03583584 221.258859,2.05365365 C220.544545,1.51791792 220.276677,1.45095095 218.624825,1.45095095 C216.995295,1.45095095 216.727427,1.38398398 216.214014,0.915215215 C215.722923,0.446446446 215.4997,0.401801802 214.450551,0.513413413 C213.133534,0.647347347 210.834334,1.60720721 209.338739,2.63403403 C206.66006,4.48678679 203.601902,8.57177177 202.217918,12.121021 C201.146446,14.9336336 200.856256,16.6747748 200.945546,19.8668669 L201.012513,22.6571572 L199.44995,23.1705706 C197.485586,23.8402402 195.275676,23.9295295 194.73994,23.3937938 C194.382783,23.0366366 194.382783,22.925025 194.695295,21.8312312 C194.896196,21.1838839 195.744444,18.9293293 196.615015,16.8533534 C198.981181,11.0941942 199.115115,9.82182182 197.552553,8.25925926 C197.083784,7.79049049 195.655155,6.8975976 194.293493,6.22792793 L191.86036,5.02252252 L191.927327,3.77247247 C192.083584,1.27237237 190.945145,0 188.556657,0 C187.016416,0 186.302102,0.334834835 185.208308,1.54024024 C183.868969,3.03583584 183.511812,5.64754755 184.404705,7.41101101 C184.962763,8.52712713 184.895796,8.97357357 183.735035,11.6968969 C183.243944,12.813013 182.52963,14.5318318 182.15015,15.514014 C181.056356,18.3266266 179.114314,21.6972973 177.261562,24.0411411 C175.989189,25.6483483 174.694494,26.384985 172.774775,26.5189189 C171.18989,26.6305305 170.096096,26.4742743 170.096096,26.1394394 C170.096096,26.0278278 170.743443,25.1795796 171.524725,24.2643644 C174.828428,20.3802803 176.56957,16.206006 176.591892,12.2326326 C176.591892,9.26376376 175.721321,7.63423423 173.444444,6.29489489 C172.551552,5.75915916 172.216717,5.69219219 170.430931,5.69219219 C168.667467,5.69219219 168.265666,5.78148148 167.127227,6.31721722 C165.653954,7.05385385 163.466366,8.97357357 162.461862,10.4468468 C161.301101,12.121021 161.278779,11.2727728 162.394895,7.81281281 C163.109209,5.58058058 163.377077,4.41981982 163.287788,3.97337337 C162.863664,2.05365365 159.426026,2.20990991 157.394695,4.26356356 C156.278579,5.402002 155.631231,7.03153153 154.894595,10.5584585 C153.153453,18.8846847 152.05966,22.6794795 150.519419,25.4474474 C148.622022,28.9074074 146.925526,30.0012012 144.670971,29.2199199 C144.001301,28.9966967 143.978979,28.9297297 143.978979,27.768969 C143.978979,25.6706707 146.568368,18.3043043 149.090791,13.1924925 C150.497097,10.3352352 150.631031,9.88878879 150.206907,9.10750751 C149.671171,8.103003 146.635335,7.34404404 144.916517,7.79049049 C144.157558,7.99139139 143.867367,8.23693694 143.398599,9.04054054 C142.751251,10.1566567 142.505706,10.2236236 141.054755,9.68788789 C139.559159,9.12982983 137.237638,9.21911912 135.295596,9.88878879 C132.84014,10.7593594 131.366867,11.7192192 129.000701,14.0630631 C126.612212,16.4069069 124.848749,18.9293293 123.330831,22.1660661 C122.036136,24.8893894 121.58969,26.6974975 121.612012,29.019019 C121.612012,30.0681682 121.522723,31.094995 121.388789,31.3182182 C121.031632,31.9878879 119.357457,32.5905906 117.482382,32.7245245 C115.91982,32.8361361 115.62963,32.7914915 114.736737,32.3227227 C113.799199,31.8093093 113.732232,31.72002 113.665265,30.7378378 C113.620621,30.1351351 113.799199,28.9743744 114.044745,28.0591592 C115.584985,22.6348348 116.701101,18.9293293 116.87968,18.7507508 C116.991291,18.6391391 117.973473,18.4382382 119.067267,18.3043043 C121.545045,17.9917918 122.237037,17.656957 122.795095,16.4515516 C123.330831,15.2461461 123.330831,14.3978979 122.795095,13.8621622 C122.437938,13.505005 122.125425,13.4603604 120.317317,13.571972 L118.241341,13.6835836 L118.375275,13.0139139 C118.442242,12.6344344 119.268168,10.178979 120.183383,7.56726727 C121.120921,4.93323323 121.87988,2.5001001 121.87988,2.16526527 C121.87988,1.22772773 121.545045,0.758958959 120.540541,0.357157157 C119.558358,-0.0446446446 118.665465,-0.066966967 117.326126,0.245545546 Z M214.383584,6.96456456 C214.584484,8.25925926 214.919319,8.77267267 216.035435,9.57627628 C216.548849,9.95575576 216.972973,10.4468468 216.972973,10.6700701 C216.972973,10.9156156 216.772072,11.8754755 216.526527,12.8576577 C215.030931,18.7061061 210.477177,23.6393393 208.468168,21.6303303 C208.044044,21.2062062 207.999399,20.982983 208.111011,19.1079079 C208.222623,16.6747748 208.86997,14.5987988 210.611111,11.0495495 C211.74955,8.75035035 213.602302,6.02702703 214.048749,6.02702703 C214.16036,6.02702703 214.316617,6.45115115 214.383584,6.96456456 Z M168.868368,12.3665666 C170.029129,13.5273273 169.761261,16.4069069 168.198699,19.5097097 C167.372773,21.0945946 165.140541,24.3982983 164.671772,24.7108108 C164.515516,24.8001001 163.444044,24.8893894 162.283283,24.8893894 C161.122523,24.8893894 159.760861,24.9786787 159.292092,25.0902903 L158.421522,25.2911912 L158.577778,24.5322322 C158.801001,23.3714715 161.077878,18.9516517 162.752052,16.4069069 C164.26997,14.1077077 165.497698,12.8353353 166.814715,12.187988 C167.796897,11.6968969 168.243343,11.7415415 168.868368,12.3665666 Z M140.496697,14.8666667 C140.697598,14.9336336 140.853854,15.2015015 140.853854,15.447047 C140.853854,16.0274274 137.304605,22.8803804 135.764364,25.2242242 C134.134835,27.7243243 131.857958,30.0235235 130.652553,30.336036 C129.223924,30.7378378 129.023023,30.5369369 129.023023,28.8181181 C129.023023,22.6794795 136.67958,13.3933934 140.496697,14.8666667 Z M74.7128128,23.5500501 C75.1592593,24.4875876 74.9583584,25.5367367 73.8645646,27.9029029 C72.7930931,30.2021021 69.9135135,33.795996 69.3108108,33.5727728 C68.8866867,33.3941942 68.5295295,32.2557558 68.5295295,31.0057057 C68.5295295,29.6663664 69.667968,26.0724725 70.4492492,24.934034 C71.1412412,23.8848849 72.8600601,22.7687688 73.7083083,22.7687688 C74.2217217,22.7687688 74.4226226,22.925025 74.7128128,23.5500501 Z M93.218018,26.9207207 C93.4412412,28.1707708 93.1733734,31.2289289 92.7046046,32.478979 C92.2804805,33.6620621 90.2045045,35.9389389 89.5571572,35.9389389 C89.3785786,35.9389389 88.7981982,35.4701702 88.2624625,34.9121121 C87.3472472,33.9299299 87.3249249,33.8406406 87.6151151,33.2825826 C87.7713714,32.9700701 88.1731732,32.4566567 88.4856857,32.1664665 C88.7981982,31.853954 89.8696697,30.3806807 90.8741742,28.8627628 C91.8563564,27.3448448 92.7492492,26.1171171 92.8608609,26.1171171 C92.9724725,26.1171171 93.1287287,26.4742743 93.218018,26.9207207 Z M26.7867868,6.27257257 C23.3491491,7.16546547 19.532032,9.46466466 16.6524525,12.3442442 C14.5095095,14.5095095 10.8932933,19.2641642 8.92892893,22.5232232 C5.24574575,28.6618619 1.94204204,37.5015015 0.535735736,44.9794795 C0,47.8367367 0,52.3904905 0.535735736,54.1316316 C1.33933934,56.7656657 2.2991992,58.1496496 3.86176176,58.9532533 C6.13863864,60.1363363 9.53163163,59.5113113 12.187988,57.4353353 C15.0229229,55.2254254 18.0587588,49.243043 20.2017017,41.6757758 L20.8267267,39.5105105 L22.7687688,39.5105105 C28.8404404,39.5105105 33.6174174,36.1621622 36.8987988,29.5770771 C42.4347347,18.4382382 40.6935936,7.67887888 33.0816817,6.04934935 C31.3182182,5.69219219 28.6841842,5.78148148 26.7867868,6.27257257 Z M30.3806807,13.3487487 C30.7155155,13.7282282 31.094995,14.4202202 31.2289289,14.888989 C32.478979,19.6882883 30.6039039,26.8983984 27.0992993,30.7601602 C25.4697698,32.5682683 22.6794795,33.9968969 22.2107107,33.2602603 C22.1437437,33.1486486 22.1883884,31.1842843 22.3,28.9074074 C22.5901902,23.8848849 22.4339339,21.541041 21.8089089,20.916016 C21.1615616,20.2686687 19.8668669,20.5365365 18.2373373,21.6526527 C17.5007007,22.1437437 16.8533534,22.5009009 16.7863864,22.4339339 C16.2283283,21.8758759 21.8981982,15.5586587 24.3313313,14.0184184 C26.2510511,12.813013 27.1885886,12.4781782 28.5502503,12.5674675 C29.5770771,12.6344344 29.8672673,12.7683684 30.3806807,13.3487487 Z M14.955956,26.384985 C14.955956,27.1885886 14.3532533,32.3896897 13.8621622,35.8273273 C13.3487487,39.5105105 12.0540541,44.9571572 11.1388388,47.3233233 C10.3129129,49.4439439 8.9958959,51.2297297 8.25925926,51.2297297 C7.61191191,51.2297297 7.14314314,50.4707708 7.14314314,49.3992993 C7.14314314,48.2831832 7.79049049,44.0419419 8.25925926,42.1891892 C8.86196196,39.8676677 10.9825826,33.6843844 12.0763764,31.0726727 C13.9514515,26.6751752 14.955956,25.0233233 14.955956,26.384985 Z"/>
</svg>
