<svg xmlns="http://www.w3.org/2000/svg" width="56" height="57"><g fill="none"><path fill="#E31366" d="M54.274 56.587c-.413 0-.744-.165-1.074-.413L37.009 39.983c-.579-.579-.579-1.57 0-2.148.578-.578 1.57-.578 2.148 0l16.19 16.191c.58.578.58 1.57 0 2.148-.33.248-.743.413-1.073.413z"/><g fill="#25195B"><path d="M21.148 41.883C9.748 41.883.496 32.63.496 21.23.496 9.83 9.748.578 21.148.578S41.8 9.83 41.8 21.23c.083 11.4-9.252 20.653-20.652 20.653zm0-38.248c-9.748 0-17.596 7.93-17.596 17.595 0 9.748 7.93 17.596 17.596 17.596 9.748 0 17.595-7.93 17.595-17.596.083-9.665-7.847-17.595-17.595-17.595z"/><path d="M10.326 22.8a1.48 1.48 0 0 1-1.487-1.487c0-8.84 8.013-11.896 12.226-12.226.826-.083 1.57.578 1.652 1.404.083.826-.578 1.57-1.404 1.652-.413 0-9.417.91-9.417 9.17 0 .744-.661 1.487-1.57 1.487z"/></g></g></svg>