<svg xmlns="http://www.w3.org/2000/svg" width="57" height="57"><g fill="none"><path fill="#25195B" d="M28.424.304C12.844.304.152 12.996.152 28.576c0 5.168 1.368 10.032 3.8 14.212l-1.52 10.336c-.076.456.076.836.38 1.216.228.304.608.38.988.38h.152l10.564-1.368C18.62 55.632 23.332 57 28.272 57c15.58 0 28.272-12.692 28.272-28.272 0-15.58-12.54-28.424-28.12-28.424zm0 53.732c-4.94 0-9.5-1.368-13.452-3.8l-3.952.608-5.624.76.836-5.472.684-3.876c-2.508-3.952-4.028-8.664-4.028-13.68 0-14.06 11.4-25.46 25.46-25.46s25.46 11.4 25.46 25.46-11.324 25.46-25.384 25.46z"/><g fill="#E31366"><path d="M15.048 20.9H41.8v2.812H15.048zM15.048 28.196H41.8v2.812H15.048zM15.048 35.568H41.8v2.812H15.048z"/></g></g></svg>