<svg xmlns="http://www.w3.org/2000/svg" width="57" height="53"><g fill="none"><path fill="#25195B" d="M3.026 47.922l10.133-10.344H3.026zM56.367 16.959l-13.089 6.263 9.5 3.519z"/><path fill="#25195B" d="M15.763 5.7C19 4.011 22.589 3.096 26.459 3.096c12.456 0 22.73 9.852 23.293 22.167h2.604C51.722 11.541 40.393.493 26.459.493c-3.8 0-7.459.844-10.696 2.322V5.7zm32.44 29.274C44.757 43.63 36.312 49.752 26.46 49.752c-8.866 0-16.537-4.926-20.548-12.245H3.026c4.152 8.726 13.089 14.849 23.433 14.849 10.556 0 19.704-6.334 23.715-15.482l-1.97-1.9z"/><path fill="#E31366" d="M15.622 2.885H5.348L9.43 6.896C3.94 11.681.493 18.648.493 26.46c0 3.941.914 7.741 2.533 11.119H5.91c-1.83-3.308-2.815-7.108-2.815-11.119 0-7.107 3.167-13.44 8.234-17.733l4.433 4.293V2.885h-.14z"/></g></svg>