<svg xmlns="http://www.w3.org/2000/svg" width="57" height="47"><g fill="none"><path fill="#E31366" d="M4.509 4.594h14.973l4.169 5.87c.17.255.51.426.85.426h22.715v4.168h3.914v-4.594a3.45 3.45 0 0 0-3.488-3.488H25.948l-4.169-5.87c-.17-.255-.51-.425-.85-.425H4.083A3.45 3.45 0 0 0 .596 4.169V43.728l3.828-11.655V4.594h.085z"/><path fill="#25195B" d="M56.064 16.76c-.595-1.021-1.616-1.617-2.807-1.617H13.016c-.17 0-.425 0-.51.085-1.276.17-2.297 1.191-2.637 2.297L4.424 32.243.596 43.9c.085.595.255 1.19.68 1.701.596.85 1.617 1.276 2.637 1.276H44.07c1.446 0 2.807-1.02 3.147-2.297l9.188-25.182c0-.085.086-.255.086-.34v-.17c.085-.851-.086-1.532-.426-2.127z"/></g></svg>