<svg xmlns="http://www.w3.org/2000/svg" width="48" height="57"><g fill="none"><path fill="#25195B" d="M43.304.475H4.75C2.454.475.554 2.375.554 4.671v36.258c0 2.296 1.9 4.196 4.196 4.196h10.767L22.8 55.813c.238.395.712.633 1.188.633.474 0 .87-.238 1.187-.633l7.917-10.767h10.212c2.296 0 4.196-1.9 4.196-4.196V4.592c0-2.296-1.82-4.117-4.196-4.117zm1.346 40.454a1.25 1.25 0 0 1-1.267 1.267H31.667l-2.138 2.929-5.383 7.362-5.067-7.362-1.979-2.93H4.75a1.25 1.25 0 0 1-1.267-1.266V4.671A1.25 1.25 0 0 1 4.75 3.404h38.554a1.25 1.25 0 0 1 1.267 1.267v36.258h.079z"/><path d="M24.067 31.825a1.42 1.42 0 0 1-1.425-1.425v-9.896a1.42 1.42 0 0 1 1.425-1.425 1.42 1.42 0 0 1 1.425 1.425V30.4a1.42 1.42 0 0 1-1.425 1.425zm0-13.617a1.42 1.42 0 0 1-1.425-1.425V15.2a1.42 1.42 0 0 1 1.425-1.425 1.42 1.42 0 0 1 1.425 1.425v1.583a1.42 1.42 0 0 1-1.425 1.425z" fill="#E31366"/></g></svg>