<svg xmlns="http://www.w3.org/2000/svg" width="58" height="48"><path fill="#25195B" d="M18.655 47.781c-6.358 0-12.452-1.766-17.75-5.21-.619-.441-.883-1.236-.619-1.943.265-.706.972-1.148 1.678-1.06.795.089 1.59.177 2.473.177 3.356 0 6.535-.795 9.45-2.296-3.533-1.325-6.359-4.239-7.595-7.948-.177-.53-.089-1.148.353-1.59l.265-.264c-2.738-2.385-4.504-5.829-4.504-9.715v-.176c0-.618.265-1.148.795-1.413.265-.177.618-.265.883-.265-1.06-1.855-1.59-3.974-1.59-6.182s.618-4.416 1.678-6.358c.265-.442.707-.795 1.237-.795.53 0 1.06.176 1.412.618 4.858 6.005 11.922 9.803 19.517 10.774v-.707C26.338 6.452 31.99.8 38.967.8c3.179 0 6.181 1.148 8.566 3.356 1.943-.442 3.886-1.237 5.652-2.296.618-.354 1.324-.265 1.854.088.53.442.707 1.148.53 1.766-.265.883-.706 1.766-1.148 2.561.177-.088.265-.088.442-.176.706-.265 1.413-.089 1.943.441.441.53.53 1.325.088 1.943-1.413 2.12-3.18 3.974-5.21 5.564v.618c0 16.337-12.364 33.116-33.029 33.116zM8.323 42.66c3.267 1.237 6.8 1.855 10.332 1.855 18.634 0 29.673-15.101 29.673-29.673v-1.324c0-.53.265-1.06.706-1.413.53-.353 1.06-.795 1.501-1.237-.441.089-.794.089-1.236.177-.795.088-1.501-.353-1.766-1.06-.265-.706.088-1.5.706-1.942.53-.265.972-.619 1.413-1.06-.794.265-1.59.441-2.384.618-.53.088-1.148-.088-1.501-.442-1.767-1.942-4.24-3.002-6.889-3.002-5.21 0-9.36 4.239-9.36 9.36 0 .796.088 1.502.264 2.12.089.53 0 1.06-.353 1.413s-.795.618-1.325.618A33.099 33.099 0 0 1 5.938 7.512c-.265.794-.353 1.678-.353 2.56 0 3.18 1.59 6.094 4.15 7.772.619.442.884 1.148.619 1.855-.177.706-.883 1.148-1.59 1.148h-.088c-.971 0-2.031-.177-3.003-.442.884 3.356 3.621 6.094 7.242 6.8a1.794 1.794 0 0 1 1.325 1.501c0 .795-.442 1.413-1.237 1.59-.883.265-1.766.353-2.737.441 1.678 2.561 4.503 4.151 7.683 4.24.706 0 1.324.44 1.501 1.147.177.619 0 1.413-.53 1.767-3.002 2.472-6.623 4.062-10.597 4.768z"/></svg>