<svg xmlns="http://www.w3.org/2000/svg" width="57" height="56"><g fill="none"><path fill="#211567" d="M6.633 41.222c0-.918.306-1.734.918-2.347l7.143-7.142c.612-.612 1.428-.918 2.347-.918a3.26 3.26 0 0 1 2.448 1.122c-.102.102 4.694 4.694 4.694 4.694.714.714 1.122 1.53 1.122 2.55 0 .919-.306 1.735-.918 2.347l-7.04 7.143c-.613.612-1.429.918-2.347.918-.918 0-1.735-.306-2.347-.918l-5.102-5c-.612-.714-.918-1.53-.918-2.449zM30.815 17.04c0-.918.306-1.735.919-2.347l7.04-7.142c.612-.613 1.429-.919 2.347-.919.918 0 1.632.306 2.347.919l5.101 5c.613.612.919 1.428.919 2.346 0 .918-.306 1.735-.919 2.347l-7.142 7.142c-.612.613-1.429.919-2.347.919-.918 0-1.836-.306-2.449-1.02.028-.028-.702-.536-2.602-2.34-1.161-1.103-2.091-2.354-2.091-2.354-.817-.817-1.123-1.633-1.123-2.551zm1.123 11.734c1.938 2.04 4.387 3.06 7.142 3.06 2.755 0 5.102-.917 7.04-2.856l7.143-7.142c1.939-1.94 2.857-4.286 2.857-7.04 0-2.756-1.02-5.103-2.959-6.94l-5.102-4.999C46.121.918 43.876 0 41.121 0s-5.102 1.02-7.04 2.959l-7.041 7.142c-1.939 1.94-2.857 4.184-2.857 6.939 0 2.857 1.02 5.204 3.061 7.142m-3.061 3.061c-1.939-2.04-4.387-3.06-7.142-3.06-2.755 0-5.102.918-7.04 2.856l-7.143 7.143C.919 36.222 0 38.467 0 41.222s1.02 5.102 2.959 6.939l5.101 5c1.94 1.938 4.184 2.856 6.939 2.856s5.102-1.02 7.04-2.959l7.04-7.142c1.94-1.939 2.858-4.184 2.858-6.939 0-2.857-1.02-5.203-3.061-7.142-2.38-2.261-2.433-2.211-4.694-4.592z"/><path fill="#E31366" d="M37.958 22.958c.102-.102.306-.306.51-.612.204-.306.408-.613.408-.919.102-.306.102-.612.102-.918 0-.918-.306-1.735-.918-2.347-.612-.612-1.429-.918-2.347-.918-.306 0-.612 0-.918.102-.306.102-.613.204-.919.408-.306.204-.51.408-.612.51l-.4.4-14.123 13.993c-.319.268-.884.913-1.088 1.219-.204.306-.408.612-.408.918-.102.306-.102.612-.102.918 0 .919.306 1.735.918 2.347.612.612 1.428.918 2.347.918.306 0 .612 0 .918-.102.306-.102.612-.204.918-.408.306-.204.51-.408.613-.51"/></g></svg>