<?xml version="1.0" encoding="UTF-8" standalone="no"?>
<!-- Created with Inkscape (http://www.inkscape.org/) -->

<svg
   xmlns:dc="http://purl.org/dc/elements/1.1/"
   xmlns:cc="http://creativecommons.org/ns#"
   xmlns:rdf="http://www.w3.org/1999/02/22-rdf-syntax-ns#"
   xmlns:svg="http://www.w3.org/2000/svg"
   xmlns="http://www.w3.org/2000/svg"
   xmlns:sodipodi="http://sodipodi.sourceforge.net/DTD/sodipodi-0.dtd"
   xmlns:inkscape="http://www.inkscape.org/namespaces/inkscape"
   width="300px"
   height="191px"
   id="svg2985"
   version="1.1"
   inkscape:version="0.48.4 r9939"
   sodipodi:docname="5novariable.svg"
   inkscape:export-filename="/home/rdevera/workspacephpnew/catbibips15/prestashop/modules/giftcard/logo.png"
   inkscape:export-xdpi="15.423112"
   inkscape:export-ydpi="15.423112">
  <defs
     id="defs3">
    <filter
       id="filter8109"
       inkscape:label="Fancy blur"
       inkscape:menu="Blurs"
       inkscape:menu-tooltip="Smooth colorized contour which allows desaturation and hue rotation"
       color-interpolation-filters="sRGB">
      <feGaussianBlur
         id="feGaussianBlur8111"
         stdDeviation="5"
         result="result1" />
      <feComposite
         k4="0"
         k3="0"
         k1="0"
         id="feComposite8113"
         in2="result1"
         operator="arithmetic"
         k2="2"
         in="result1" />
    </filter>
  </defs>
  <sodipodi:namedview
     id="base"
     pagecolor="#ffffff"
     bordercolor="#666666"
     borderopacity="1.0"
     inkscape:pageopacity="0.0"
     inkscape:pageshadow="2"
     inkscape:zoom="1.6970563"
     inkscape:cx="-25.96383"
     inkscape:cy="58.231982"
     inkscape:document-units="mm"
     inkscape:current-layer="var_color1"
     showgrid="false"
     inkscape:window-width="1920"
     inkscape:window-height="1014"
     inkscape:window-x="0"
     inkscape:window-y="27"
     inkscape:window-maximized="1">
    <inkscape:grid
       type="xygrid"
       id="grid6082" />
  </sodipodi:namedview>
  <metadata
     id="metadata2989">
    <rdf:RDF>
      <cc:Work
         rdf:about="">
        <dc:format>image/svg+xml</dc:format>
        <dc:type
           rdf:resource="http://purl.org/dc/dcmitype/StillImage" />
        <dc:title></dc:title>
      </cc:Work>
    </rdf:RDF>
  </metadata>
  <g
     inkscape:label="Layer 1"
     inkscape:groupmode="layer"
     id="layer1">
    <g
       id="var_color1"
       style="fill:#996600"
       transform="translate(-2.0833333,2.0833333)">
      <rect
         style="fill:#ff3300;fill-opacity:1;stroke:#990000;stroke-width:1.98298811999999991"
         id="rect4099"
         width="297.16046"
         height="188.58302"
         x="3.7114422"
         y="-0.28855756"
         ry="9.8954525" />
      <text
         xml:space="preserve"
         style="font-size:25.78211212px;font-style:normal;font-variant:normal;font-weight:normal;font-stretch:normal;line-height:125%;letter-spacing:0px;word-spacing:0px;fill:#ffffff;fill-opacity:1;stroke:none;font-family:Bebas Neue;-inkscape-font-specification:Bebas Neue"
         x="153.90445"
         y="50.403996"
         id="text4101"
         sodipodi:linespacing="125%"
         transform="scale(0.94409602,1.0592143)"><tspan
           sodipodi:role="line"
           x="153.90445"
           y="50.403996"
           id="tspan4303"
           style="font-size:62.87733841px;text-align:center;text-anchor:middle">BON</tspan></text>
      <path
         style="fill:#ffffff"
         inkscape:connector-curvature="0"
         d="m 159.64021,146.45965 c 2.55858,0 4.6333,1.42163 4.6333,3.17479 0,1.75317 -2.07472,3.1748 -4.6333,3.1748 -2.55856,0 -4.63329,-1.42163 -4.63329,-3.1748 0,-1.75316 2.07473,-3.17479 4.63329,-3.17479 z m 12.07548,19.72951 c -0.42449,2.1466 -5.16359,1.2289 -4.74297,-0.89558 0.52901,-2.66202 1.37928,-5.68032 -1.05414,-7.40521 l 0.0464,12.15988 v 12.20143 c 0,1.00168 -1.07091,1.81593 -2.57664,1.81593 -1.50573,0 -2.72501,-0.81425 -2.72501,-1.81593 v -12.71332 c 0,0 -0.0878,-0.64451 -1.04639,-0.65069 -0.95995,-0.008 -0.93415,0.62063 -0.93415,0.62063 v 12.71066 c 0,1.00257 -1.21929,1.81683 -2.72502,1.81683 -1.50571,0 -2.72501,-0.81426 -2.72501,-1.81683 l -0.089,-13.1147 c 0,-0.12466 -0.0194,-8.86661 -0.0232,-11.19531 l 0.0878,-1.13076 c -2.38826,0.17416 -4.92231,-0.20069 -7.11316,-0.78331 -1.16639,-0.31121 -1.58315,-1.28017 -2.02957,-1.99895 -0.80641,-1.29344 -1.41412,-2.65759 -1.76119,-4.04297 -0.19613,-0.78244 0.46965,-1.3182 1.35218,-1.55425 l -3.26176,-7.46797 -1.36122,0.23871 0.78447,-0.67899 c -2.43986,0.49952 -5.2939,-1.05119 -6.39449,-3.47892 -1.10317,-2.43746 -0.0155,-4.83512 2.43084,-5.35498 1.61926,-0.3448 3.42561,0.22456 4.78425,1.35444 0.75351,-1.72575 2.5031,-2.92725 4.48364,-2.87951 2.55986,0.0637 4.5262,2.18195 4.39459,4.73257 -0.1187,2.29512 -1.89795,4.15349 -4.11848,4.45762 l 0.31481,0.16268 -0.43094,0.076 v 8.74903 c 0.0606,0.01 0.12387,0.0195 0.18322,0.0319 l 4.67588,-5.62728 -0.92512,-0.26699 1.23994,-0.21926 c -1.58056,-0.83901 -1.66314,-2.7964 -0.11612,-4.5142 1.62184,-1.79825 4.39847,-2.63726 6.20224,-1.87428 1.80506,0.76385 1.95344,2.83972 0.33159,4.63796 -1.36767,1.518 -3.55594,2.34817 -5.29003,2.11388 l 0.25289,0.6118 -0.95609,-0.27584 -4.70424,5.66087 c 0.3819,0.19981 0.67092,0.49068 0.77027,0.89118 0.33675,1.3509 0.7548,2.34462 1.52636,3.5019 1.79604,0.48891 3.71852,0.98489 5.55713,0.64097 0.20644,-0.0389 0.39868,-0.0522 0.5832,-0.053 2.06439,-0.20158 5.50421,-0.38282 8.38277,-0.15295 0.26708,-0.0195 0.54835,-0.0185 0.85414,0.0283 0.649,0.0999 1.24638,0.22279 1.80506,0.36336 0.0335,0.007 0.0645,0.0159 0.0955,0.0247 7.52475,1.93088 6.94801,7.40609 5.96483,12.3588 z m -27.22949,-26.49374 -1.52766,0.26789 0.81286,-0.70374 c -0.52514,-0.11494 -1.01156,-0.32004 -1.44767,-0.59677 -0.31095,0.60826 -0.80382,1.11132 -1.45153,1.44992 l 0.0542,0.12466 0.86189,0.4447 -0.62061,0.10962 3.26949,7.47947 c 0.0155,-0.001 0.0322,-0.002 0.049,-0.002 v -8.57309 z"
         id="path3125" />
      <text
         xml:space="preserve"
         style="font-size:40px;font-style:normal;font-variant:normal;font-weight:normal;font-stretch:normal;line-height:125%;letter-spacing:0px;word-spacing:0px;fill:#000000;fill-opacity:1;stroke:none;font-family:Bebas Neue;-inkscape-font-specification:Bebas Neue"
         x="13.868449"
         y="117.61673"
         id="text2993"
         sodipodi:linespacing="125%"><tspan
           sodipodi:role="line"
           id="tspan2995"
           x="13.868449"
           y="117.61673"
           style="font-size:64px">ANNIVERSAIRE</tspan></text>
      <path
         inkscape:connector-curvature="0"
         d="m 228.3993,32.709673 c 1.70776,4.58617 2.12481,9.43192 1.85997,14.1977 -0.035,0.58065 0.94521,0.21282 0.96804,-0.21036 0.27093,-4.8273 -0.13546,-9.75054 -1.86606,-14.397 -0.19026,-0.5093 -1.10807,0.0135 -0.96195,0.40966 z m 15.54037,4.13838 c 0.42162,1.21913 0.12329,2.47393 0.2131,3.71889 0.11872,1.66445 1.38052,2.94263 2.92086,3.96 0.0944,-0.24235 0.19482,-0.48347 0.29376,-0.72459 -1.40944,0.49454 -3.67277,1.31385 -3.55253,2.83807 0.10503,1.31262 1.344,2.25249 1.05328,3.65122 -0.12024,0.56466 0.88128,0.19806 0.96804,-0.20913 0.22222,-1.04444 -0.20396,-1.94002 -0.71842,-2.87866 -0.20852,-0.38136 -0.43227,-0.80209 -0.2755,-1.21913 0.28311,-0.74673 1.91477,-1.18099 2.68342,-1.45286 0.2755,-0.0972 0.59818,-0.52529 0.29224,-0.72459 -1.58144,-1.04812 -2.66211,-2.25495 -2.72299,-3.94524 -0.0411,-1.15761 0.20091,-2.2857 -0.19635,-3.42241 -0.17504,-0.51176 -1.09437,0.0111 -0.95891,0.40843 z m 0.35465,-22.97639 c -6.18723,0 -11.20856,5.15576 -11.20856,11.51711 0,6.35888 8.36076,11.97719 11.20856,11.97719 2.85237,0 11.21007,-5.61708 11.21007,-11.97719 0,-6.36135 -5.01827,-11.51711 -11.21007,-11.51711 z m 2.95434,3.49499 2.06698,-0.75288 c 6.33031,5.39196 1.57839,9.53034 1.57839,9.53034 2.17352,-5.01675 -3.64537,-8.77746 -3.64537,-8.77746 z m -17.1903,15.13758 h -1.51446 c 0,0 -0.25723,1.15392 -0.92999,1.50453 -0.67124,0.35183 1.91933,-0.81809 2.97717,-0.032 -0.18417,-0.1304 -0.83409,-0.66061 -0.53272,-1.47254 z m 0.53272,1.47254 c 0.0304,0.0221 0.0487,0.032 0.0487,0.032 -0.0167,-0.0111 -0.035,-0.0197 -0.0487,-0.032 z m 15.09898,2.6031 h -1.51294 c 0,0 -0.25875,1.15269 -0.92847,1.50453 -0.67428,0.35183 1.91782,-0.81808 2.97414,-0.0308 -0.18417,-0.13409 -0.83258,-0.66307 -0.53273,-1.47377 z m 0.5312,1.47254 c 0.032,0.0197 0.0502,0.0308 0.0502,0.0308 -0.0152,-0.0111 -0.032,-0.0197 -0.0502,-0.0308 z m -8.11113,-23.48076 c -2.0274,-2.97831 -5.3851,-4.9281696 -9.1918,-4.9281696 -6.19028,0 -11.20856,5.1557496 -11.20856,11.5158696 0,6.36012 8.35923,11.9772 11.20856,11.9772 1.11111,0 3.06241,-0.85745 5.02893,-2.27956 -1.32268,-1.76287 -2.2405,-3.78039 -2.2405,-5.88034 0,-4.59232 2.61797,-8.55602 6.40337,-10.405 z m -13.71236,1.00138 c -0.10351,0.0873 -0.20548,0.17591 -0.30746,0.26695 -0.20092,0.18207 -0.39726,0.37152 -0.586,0.56466 -0.38052,0.38751 -0.72908,0.79471 -1.04871,1.21789 -0.63775,0.84638 -1.14003,1.76288 -1.41401,2.72981 -0.27397,0.96447 -0.2968,1.98308 -0.003,2.97216 0.28767,0.98907 0.89498,1.93141 1.69559,2.76179 -0.94521,-0.72336 -1.74886,-1.60172 -2.25571,-2.6154 -0.51294,-1.01122 -0.70624,-2.143 -0.60274,-3.2551 0.0989,-1.11456 0.47032,-2.20697 1,-3.23419 0.26484,-0.51545 0.57078,-1.01614 0.91324,-1.50207 0.172,-0.24358 0.3516,-0.48224 0.54186,-0.71843 0.0974,-0.11933 0.19331,-0.23497 0.29529,-0.35307 0.10654,-0.11933 0.20243,-0.22882 0.33333,-0.36045 l 1.73821,1.28679 c -0.0883,0.0627 -0.20244,0.15377 -0.29985,0.23866 z"
         id="path3193"
         style="fill:#ffffff" />
      <path
         style="fill:#ffffff"
         id="path3219"
         d="m 46.908565,32.709672 c 1.70776,4.58617 2.12481,9.43192 1.85997,14.1977 -0.035,0.58065 0.94521,0.21282 0.96804,-0.21036 0.27093,-4.8273 -0.13546,-9.75054 -1.86606,-14.397 -0.19026,-0.5093 -1.10807,0.0135 -0.96195,0.40966 z m 15.54037,4.13838 c 0.42162,1.21913 0.12329,2.47393 0.2131,3.71889 0.11872,1.66445 1.38052,2.94263 2.92086,3.96 0.0944,-0.24235 0.19482,-0.48347 0.29376,-0.72459 -1.40944,0.49454 -3.67277,1.31385 -3.55253,2.83807 0.10503,1.31262 1.344,2.25249 1.05328,3.65122 -0.12024,0.56466 0.88128,0.19806 0.96804,-0.20913 0.22222,-1.04444 -0.20396,-1.94002 -0.71842,-2.87866 -0.20852,-0.38136 -0.43227,-0.80209 -0.2755,-1.21913 0.28311,-0.74673 1.91477,-1.18099 2.68342,-1.45286 0.2755,-0.0972 0.59818,-0.52529 0.29224,-0.72459 -1.58144,-1.04812 -2.66211,-2.25495 -2.72299,-3.94524 -0.0411,-1.15761 0.20091,-2.2857 -0.19635,-3.42241 -0.17504,-0.51176 -1.09437,0.0111 -0.95891,0.40843 z m 0.35465,-22.97639 c -6.18723,0 -11.20856,5.15576 -11.20856,11.51711 0,6.35888 8.36076,11.97719 11.20856,11.97719 2.85237,0 11.21007,-5.61708 11.21007,-11.97719 0,-6.36135 -5.01827,-11.51711 -11.21007,-11.51711 z m 2.95434,3.49499 2.06698,-0.75288 c 6.33031,5.39196 1.57839,9.53034 1.57839,9.53034 2.17352,-5.01675 -3.64537,-8.77746 -3.64537,-8.77746 z m -17.1903,15.13758 h -1.51446 c 0,0 -0.25723,1.15392 -0.92999,1.50453 -0.67124,0.35183 1.91933,-0.81809 2.97717,-0.032 -0.18417,-0.1304 -0.83409,-0.66061 -0.53272,-1.47254 z m 0.53272,1.47254 c 0.0304,0.0221 0.0487,0.032 0.0487,0.032 -0.0167,-0.0111 -0.035,-0.0197 -0.0487,-0.032 z m 15.09898,2.6031 h -1.51294 c 0,0 -0.25875,1.15269 -0.92847,1.50453 -0.67428,0.35183 1.91782,-0.81808 2.97414,-0.0308 -0.18417,-0.13409 -0.83258,-0.66307 -0.53273,-1.47377 z m 0.5312,1.47254 c 0.032,0.0197 0.0502,0.0308 0.0502,0.0308 -0.0152,-0.0111 -0.032,-0.0197 -0.0502,-0.0308 z m -8.11113,-23.48076 c -2.0274,-2.97831 -5.3851,-4.9281688 -9.1918,-4.9281688 -6.19028,0 -11.20856,5.1557488 -11.20856,11.5158688 0,6.36012 8.35923,11.9772 11.20856,11.9772 1.11111,0 3.06241,-0.85745 5.02893,-2.27956 -1.32268,-1.76287 -2.2405,-3.78039 -2.2405,-5.88034 0,-4.59232 2.61797,-8.55602 6.40337,-10.405 z m -13.71236,1.00138 c -0.10351,0.0873 -0.20548,0.17591 -0.30746,0.26695 -0.20092,0.18207 -0.39726,0.37152 -0.586,0.56466 -0.38052,0.38751 -0.72908,0.79471 -1.04871,1.21789 -0.63775,0.84638 -1.14003,1.76288 -1.41401,2.72981 -0.27397,0.96447 -0.2968,1.98308 -0.003,2.97216 0.28767,0.98907 0.89498,1.93141 1.69559,2.76179 -0.94521,-0.72336 -1.74886,-1.60172 -2.25571,-2.6154 -0.51294,-1.01122 -0.70624,-2.143 -0.60274,-3.2551 0.0989,-1.11456 0.47032,-2.20697 1,-3.23419 0.26484,-0.51545 0.57078,-1.01614 0.91324,-1.50207 0.172,-0.24358 0.3516,-0.48224 0.54186,-0.71843 0.0974,-0.11933 0.19331,-0.23497 0.29529,-0.35307 0.10654,-0.11933 0.20243,-0.22882 0.33333,-0.36045 l 1.73821,1.28679 c -0.0883,0.0627 -0.20244,0.15377 -0.29985,0.23866 z"
         inkscape:connector-curvature="0" />
    </g>
  </g>
</svg>
