<?xml version="1.0" encoding="UTF-8" standalone="no"?>
<!-- Created with Inkscape (http://www.inkscape.org/) -->

<svg
   xmlns:dc="http://purl.org/dc/elements/1.1/"
   xmlns:cc="http://creativecommons.org/ns#"
   xmlns:rdf="http://www.w3.org/1999/02/22-rdf-syntax-ns#"
   xmlns:svg="http://www.w3.org/2000/svg"
   xmlns="http://www.w3.org/2000/svg"
   xmlns:sodipodi="http://sodipodi.sourceforge.net/DTD/sodipodi-0.dtd"
   xmlns:inkscape="http://www.inkscape.org/namespaces/inkscape"
   width="300px"
   height="191px"
   id="svg2985"
   version="1.1"
   inkscape:version="0.48.4 r9939"
   sodipodi:docname="11novariable.svg"
   inkscape:export-filename="/home/rdevera/workspacephpnew/catbibips15/prestashop16/modules/giftcard/datadefault/template/11novariable_fr.png"
   inkscape:export-xdpi="243.6996"
   inkscape:export-ydpi="243.6996">
  <defs
     id="defs3">
    <filter
       id="filter8109"
       inkscape:label="Fancy blur"
       inkscape:menu="Blurs"
       inkscape:menu-tooltip="Smooth colorized contour which allows desaturation and hue rotation"
       color-interpolation-filters="sRGB">
      <feGaussianBlur
         id="feGaussianBlur8111"
         stdDeviation="5"
         result="result1" />
      <feComposite
         k4="0"
         k3="0"
         k1="0"
         id="feComposite8113"
         in2="result1"
         operator="arithmetic"
         k2="2"
         in="result1" />
    </filter>
  </defs>
  <sodipodi:namedview
     id="base"
     pagecolor="#ffffff"
     bordercolor="#666666"
     borderopacity="1.0"
     inkscape:pageopacity="0.0"
     inkscape:pageshadow="2"
     inkscape:zoom="1.6970563"
     inkscape:cx="-25.96383"
     inkscape:cy="58.231982"
     inkscape:document-units="mm"
     inkscape:current-layer="var_color1"
     showgrid="false"
     inkscape:window-width="1920"
     inkscape:window-height="1014"
     inkscape:window-x="0"
     inkscape:window-y="27"
     inkscape:window-maximized="1">
    <inkscape:grid
       type="xygrid"
       id="grid6082" />
  </sodipodi:namedview>
  <metadata
     id="metadata2989">
    <rdf:RDF>
      <cc:Work
         rdf:about="">
        <dc:format>image/svg+xml</dc:format>
        <dc:type
           rdf:resource="http://purl.org/dc/dcmitype/StillImage" />
        <dc:title></dc:title>
      </cc:Work>
    </rdf:RDF>
  </metadata>
  <g
     inkscape:label="Layer 1"
     inkscape:groupmode="layer"
     id="layer1">
    <g
       id="var_color1"
       style="fill:#996600"
       transform="translate(-2.0833333,2.0833333)">
      <rect
         style="fill:#ff3d7f;fill-opacity:1;stroke:#d81848;stroke-width:1.98298811999999991"
         id="rect4099"
         width="297.16046"
         height="188.58302"
         x="3.7114422"
         y="-0.28855756"
         ry="9.8954525"
         inkscape:export-filename="/home/rdevera/workspacephpnew/catbibips15/prestashop16/modules/giftcard/datadefault/template/11novariable_fr.png"
         inkscape:export-xdpi="243.6996"
         inkscape:export-ydpi="243.6996" />
      <text
         xml:space="preserve"
         style="font-size:25.78211212px;font-style:normal;font-variant:normal;font-weight:normal;font-stretch:normal;line-height:125%;letter-spacing:0px;word-spacing:0px;fill:#ffffff;fill-opacity:1;stroke:none;font-family:Bebas Neue;-inkscape-font-specification:Bebas Neue"
         x="156.40105"
         y="51.516624"
         id="text4101"
         sodipodi:linespacing="125%"
         transform="scale(0.94409602,1.0592143)"
         inkscape:export-filename="/home/rdevera/workspacephpnew/catbibips15/prestashop16/modules/giftcard/datadefault/template/11novariable_fr.png"
         inkscape:export-xdpi="243.6996"
         inkscape:export-ydpi="243.6996"><tspan
           sodipodi:role="line"
           x="156.40105"
           y="51.516624"
           id="tspan4303"
           style="font-size:62.87733841px;text-align:center;text-anchor:middle">JOYEUX</tspan></text>
      <text
         xml:space="preserve"
         style="font-size:40px;font-style:normal;font-variant:normal;font-weight:normal;font-stretch:normal;line-height:125%;letter-spacing:0px;word-spacing:0px;fill:#000000;fill-opacity:1;stroke:none;font-family:Bebas Neue;-inkscape-font-specification:Bebas Neue"
         x="14.457705"
         y="108.18864"
         id="text2993"
         sodipodi:linespacing="125%"
         inkscape:export-filename="/home/rdevera/workspacephpnew/catbibips15/prestashop16/modules/giftcard/datadefault/template/11novariable_fr.png"
         inkscape:export-xdpi="243.6996"
         inkscape:export-ydpi="243.6996"><tspan
           sodipodi:role="line"
           id="tspan2995"
           x="14.457705"
           y="108.18864"
           style="font-size:64px">ANNIVERSAIRE</tspan></text>
      <g
         transform="matrix(2.97174,0,0,2.6384647,112.82702,113.81815)"
         id="g3300"
         style="fill:#ffffff">
        <path
           style="fill:#ffffff"
           inkscape:connector-curvature="0"
           d="M 24,11.765 C 23.501,12.385 22.502,13 20.5,13 18.45,13 17.451,12.355 16.964,11.721 16.41,12.354 15.285,13 13,13 10.707,13 9.582,12.351 9.031,11.715 8.542,12.351 7.542,13 5.5,13 3.495,13 2.499,12.375 2,11.75 V 16 h 22 v -4.235 z"
           id="path3302" />
        <path
           style="fill:#ffffff"
           inkscape:connector-curvature="0"
           d="m 5.5,12 c 2.89,0 2.997,-1.454 3,-1.516 0.014,-0.267 0.234,-0.479 0.5,-0.479 0.002,0 0.005,0 0.008,0 0.269,0.004 0.486,0.216 0.492,0.484 C 9.504,10.54 9.645,12 13,12 c 3.355,0 3.496,-1.46 3.501,-1.522 0.019,-0.27 0.241,-0.479 0.517,-0.471 0.27,0.01 0.482,0.224 0.482,0.493 0.002,0.053 0.09,1.5 3,1.5 3.203,0 3.326,-1.967 3.326,-1.967 C 23.422,8.854 22.314,8 21,8 H 13.853 C 14.26,7.602 14.715,7.225 15.161,6.861 16.513,5.751 17.914,4.607 17.914,2.838 17.913,1.23 16.785,0.106 15.171,0.106 c -0.93,0 -1.733,0.665 -2.172,1.124 -0.437,-0.459 -1.239,-1.124 -2.168,-1.124 -1.613,0 -2.743,1.124 -2.743,2.732 0,1.77 1.401,2.913 2.753,4.023 0.443,0.364 0.898,0.741 1.305,1.139 H 5 C 3.684,8 2.577,8.854 2.173,10.034 2.173,10.034 2.391,12 5.5,12 z"
           id="path3304" />
        <path
           style="fill:#ffffff"
           inkscape:connector-curvature="0"
           d="M 22.5,22 C 20.45,22 18.451,21.355 17.964,20.721 17.41,21.354 15.285,22 13,22 10.707,22 8.582,21.352 8.031,20.715 7.542,21.352 5.542,22 3.5,22 1.495,22 0.499,21.375 0,20.75 V 24 c 0,1.656 1.344,2 3,2 h 20 c 1.656,0 3,-0.344 3,-2 V 20.766 C 25.501,21.385 24.502,22 22.5,22 z"
           id="path3306" />
        <path
           style="fill:#ffffff"
           inkscape:connector-curvature="0"
           d="m 3.5,21 c 2.89,0 3.997,-1.454 4,-1.516 0.014,-0.268 0.234,-0.479 0.5,-0.479 0.002,0 0.005,0 0.008,0 0.269,0.004 0.486,0.216 0.492,0.484 C 8.504,19.54 9.645,21 13,21 c 3.355,0 4.496,-1.46 4.501,-1.521 0.019,-0.271 0.241,-0.479 0.517,-0.472 0.27,0.011 0.482,0.224 0.482,0.493 0.002,0.053 1.09,1.5 4,1.5 3.203,0 3.326,-1.967 3.326,-1.967 C 25.422,17.854 24.314,17 23,17 H 3 c -1.316,0 -2.423,0.854 -2.827,2.034 0,0 0.218,1.966 3.327,1.966 z"
           id="path3308" />
      </g>
      <path
         inkscape:connector-curvature="0"
         d="m 270.6362,11.934565 c 0.44433,0 0.91351,0.02688 1.42464,0.07273 3.07612,0.308312 6.63695,3.174828 7.0673,8.673857 v 1.826159 c -0.39772,5.257123 -4.3019,11.747499 -15.70682,19.890111 -11.40493,-8.142612 -15.30755,-14.631407 -15.71304,-19.88853 v -1.82774 c 0.43035,-5.50061 3.99739,-8.365545 7.06729,-8.673857 0.50647,-0.04585 0.98498,-0.07273 1.42931,-0.07273 3.55306,0 5.25891,1.568441 7.21644,3.932169 1.94975,-2.363728 3.6556,-3.932169 7.21488,-3.932169"
         id="path3424"
         style="fill:#ffffff" />
      <path
         style="fill:#ffffff"
         id="path3480"
         d="m 47.897567,14.880843 c 0.44433,0 0.91351,0.02688 1.42464,0.07273 3.07612,0.308312 6.63695,3.174828 7.0673,8.673857 v 1.826159 c -0.39772,5.257123 -4.3019,11.747499 -15.70682,19.890111 -11.40493,-8.142612 -15.30755,-14.631407 -15.71304,-19.88853 v -1.82774 c 0.43035,-5.50061 3.99739,-8.365545 7.06729,-8.673857 0.50647,-0.04585 0.98498,-0.07273 1.42931,-0.07273 3.55306,0 5.25891,1.568441 7.21644,3.932169 1.94975,-2.363728 3.6556,-3.932169 7.21488,-3.932169"
         inkscape:connector-curvature="0" />
    </g>
  </g>
</svg>
