<?xml version="1.0" encoding="UTF-8" standalone="no"?>
<!-- Created with Inkscape (http://www.inkscape.org/) -->

<svg
   xmlns:dc="http://purl.org/dc/elements/1.1/"
   xmlns:cc="http://creativecommons.org/ns#"
   xmlns:rdf="http://www.w3.org/1999/02/22-rdf-syntax-ns#"
   xmlns:svg="http://www.w3.org/2000/svg"
   xmlns="http://www.w3.org/2000/svg"
   xmlns:sodipodi="http://sodipodi.sourceforge.net/DTD/sodipodi-0.dtd"
   xmlns:inkscape="http://www.inkscape.org/namespaces/inkscape"
   width="300px"
   height="191px"
   id="svg2985"
   version="1.1"
   inkscape:version="0.48.4 r9939"
   sodipodi:docname="13novariable.svg"
   inkscape:export-filename="/home/rdevera/workspacephpnew/catbibips15/prestashop16/modules/giftcard/datadefault/template/14.svg.png"
   inkscape:export-xdpi="243.6996"
   inkscape:export-ydpi="243.6996">
  <defs
     id="defs3">
    <filter
       id="filter8109"
       inkscape:label="Fancy blur"
       inkscape:menu="Blurs"
       inkscape:menu-tooltip="Smooth colorized contour which allows desaturation and hue rotation"
       color-interpolation-filters="sRGB">
      <feGaussianBlur
         id="feGaussianBlur8111"
         stdDeviation="5"
         result="result1" />
      <feComposite
         k4="0"
         k3="0"
         k1="0"
         id="feComposite8113"
         in2="result1"
         operator="arithmetic"
         k2="2"
         in="result1" />
    </filter>
  </defs>
  <sodipodi:namedview
     id="base"
     pagecolor="#ffffff"
     bordercolor="#666666"
     borderopacity="1.0"
     inkscape:pageopacity="0.0"
     inkscape:pageshadow="2"
     inkscape:zoom="1.6970563"
     inkscape:cx="-25.96383"
     inkscape:cy="62.062144"
     inkscape:document-units="mm"
     inkscape:current-layer="var_color1"
     showgrid="false"
     inkscape:window-width="1920"
     inkscape:window-height="1014"
     inkscape:window-x="0"
     inkscape:window-y="27"
     inkscape:window-maximized="1">
    <inkscape:grid
       type="xygrid"
       id="grid6082" />
  </sodipodi:namedview>
  <metadata
     id="metadata2989">
    <rdf:RDF>
      <cc:Work
         rdf:about="">
        <dc:format>image/svg+xml</dc:format>
        <dc:type
           rdf:resource="http://purl.org/dc/dcmitype/StillImage" />
        <dc:title></dc:title>
      </cc:Work>
    </rdf:RDF>
  </metadata>
  <g
     inkscape:label="Layer 1"
     inkscape:groupmode="layer"
     id="layer1">
    <g
       id="var_color1"
       style="fill:#996600"
       transform="translate(-2.0833333,2.0833333)">
      <rect
         style="fill:#0080e8;fill-opacity:1;stroke:#0000b8;stroke-width:1.98298811999999991"
         id="rect4099"
         width="297.16046"
         height="188.58302"
         x="3.7114422"
         y="-0.28855756"
         ry="9.8954525"
         inkscape:export-filename="/home/rdevera/workspacephpnew/catbibips15/prestashop16/modules/giftcard/datadefault/template/11novariable_en.png"
         inkscape:export-xdpi="243.6996"
         inkscape:export-ydpi="243.6996" />
      <text
         xml:space="preserve"
         style="font-size:25.78211212px;font-style:normal;font-variant:normal;font-weight:normal;font-stretch:normal;line-height:125%;letter-spacing:0px;word-spacing:0px;fill:#ffffff;fill-opacity:1;stroke:#ffffff;stroke-width:1;font-family:Bebas Neue;-inkscape-font-specification:Bebas Neue"
         x="149.53543"
         y="53.18557"
         id="text4101"
         sodipodi:linespacing="125%"
         transform="scale(0.94409602,1.0592143)"
         inkscape:export-filename="/home/rdevera/workspacephpnew/catbibips15/prestashop16/modules/giftcard/datadefault/template/13novariable_en.png"
         inkscape:export-xdpi="243.6996"
         inkscape:export-ydpi="243.6996"><tspan
           sodipodi:role="line"
           x="149.53543"
           y="53.18557"
           style="font-size:56px;text-align:center;text-anchor:middle;fill:#ffffff;stroke:#ffffff;stroke-width:1"
           id="tspan3985">POUR TOI</tspan></text>
      <g
         transform="matrix(0.57271153,0,0,0.5569057,90.623286,69.044721)"
         id="g3864"
         style="fill:#ffffff">
        <path
           inkscape:connector-curvature="0"
           d="m 68.978,104.418 v 24.148 c 0,1.944 1.576,3.52 3.521,3.52 1.945,0 3.521,-1.576 3.521,-3.52 V 106.625 L 64.867,94.853 C 62.431,92.281 61.47,88.689 62.297,85.244 L 64.981,74.06 h -3.137 l 2.353,-3.569 c 0.496,0.227 1.018,0.406 1.566,0.517 0.566,-1.671 1.526,-3.13 2.761,-4.282 1.619,-1.508 3.71,-2.482 6,-2.723 0.343,-0.036 0.689,-0.059 1.041,-0.061 V 52.421 c 0,-1.944 -1.576,-3.52 -3.52,-3.52 -1.944,0 -3.52,1.577 -3.52,3.52 v 4.248 c -0.421,-0.076 -0.853,-0.122 -1.296,-0.122 -0.446,0 -0.88,0.046 -1.304,0.123 V 46.646 c 0,-1.944 -1.576,-3.52 -3.521,-3.52 -1.944,0 -3.52,1.576 -3.52,3.52 V 65.76 L 57.179,68.347 55.474,65.76 V 46.646 c 0,-1.944 -1.576,-3.52 -3.52,-3.52 -1.944,0 -3.52,1.576 -3.52,3.52 V 56.67 c -0.424,-0.076 -0.858,-0.123 -1.304,-0.123 -0.899,0 -1.757,0.17 -2.553,0.468 V 40.646 c 0,-1.944 -1.576,-3.52 -3.521,-3.52 -1.945,0 -3.52,1.576 -3.52,3.52 V 59.76 l -2.161,3.279 V 46.646 c 0,-1.944 -1.576,-3.52 -3.52,-3.52 -1.944,0 -3.52,1.576 -3.52,3.52 v 4.369 c -0.796,-0.297 -1.653,-0.468 -2.553,-0.468 -4.034,0 -7.304,3.27 -7.304,7.304 0,4.034 3.27,7.304 7.304,7.304 0.899,0 1.757,-0.17 2.553,-0.468 v 2.128 c 0,0.428 0.087,0.848 0.237,1.244 h -2.79 -6.284 l -5.471,-8.3 V 40.646 c 0,-1.944 -1.576,-3.52 -3.52,-3.52 -1.944,0 -3.52,1.576 -3.52,3.52 v 20.17 c 0,0.689 0.202,1.362 0.581,1.937 l 9.494,14.404 v 15.389 c -0.045,0.226 -0.07,0.459 -0.07,0.698 v 29.323 c 0,1.944 1.576,3.52 3.52,3.52 1.944,0 3.521,-1.576 3.521,-3.52 V 98.418 h 1.75 1.75 v 24.148 c 0,1.944 1.576,3.52 3.521,3.52 1.945,0 3.521,-1.576 3.521,-3.52 V 93.243 c 0,-0.239 -0.025,-0.472 -0.07,-0.698 V 77.229 l 3.907,5.927 v 15.389 c -0.045,0.226 -0.07,0.459 -0.07,0.698 v 29.323 c 0,1.944 1.576,3.52 3.521,3.52 1.944,0 3.52,-1.576 3.52,-3.52 v -24.148 h 1.75 1.75 v 24.148 c 0,1.944 1.576,3.52 3.52,3.52 1.944,0 3.52,-1.576 3.52,-3.52 V 99.243 c 0,-0.239 -0.025,-0.472 -0.07,-0.698 V 83.156 l 1.329,-2.017 1.329,2.017 v 15.389 c -0.045,0.226 -0.07,0.459 -0.07,0.698 v 29.323 c 0,1.944 1.576,3.52 3.52,3.52 1.944,0 3.521,-1.576 3.521,-3.52 v -24.148 h 1.75 1.746 z M 47.128,74.06 h -6.284 l -2.151,-3.264 2.142,-3.25 c 1.27,2.157 3.609,3.609 6.293,3.609 1.083,0 2.106,-0.242 3.031,-0.664 l 2.353,3.569 h -5.384 z"
           id="path3866"
           style="fill:#ffffff" />
        <path
           inkscape:connector-curvature="0"
           d="m 83.591,67.653 c 0.362,-0.579 0.75,-1.139 1.175,-1.669 0.396,-0.494 0.811,-0.971 1.257,-1.419 0.783,-0.787 1.64,-1.498 2.559,-2.126 1.005,-0.686 2.086,-1.266 3.225,-1.734 V 55.06 c 0,-1.944 -1.576,-3.52 -3.52,-3.52 -0.867,0 -1.651,0.326 -2.264,0.845 v -5.739 c 0,-1.944 -1.576,-3.52 -3.521,-3.52 -1.945,0 -3.52,1.576 -3.52,3.52 V 64.5 c 0.808,0.273 1.559,0.643 2.254,1.087 0.894,0.57 1.684,1.269 2.355,2.066 z"
           id="path3868"
           style="fill:#ffffff" />
        <polygon
           points="81.279,126.934 81.279,112.178 78.528,109.274 78.528,130.296 "
           id="polygon3870"
           style="fill:#ffffff" />
        <path
           inkscape:connector-curvature="0"
           d="m 180.375,39.764 c -1.944,0 -3.52,1.576 -3.52,3.52 v 19.114 l -5.471,8.3 h -6.284 -2.79 c 0.15,-0.397 0.237,-0.816 0.237,-1.244 v -2.128 c 0.796,0.297 1.653,0.468 2.552,0.468 4.034,0 7.304,-3.27 7.304,-7.304 0,-4.034 -3.27,-7.304 -7.304,-7.304 -0.899,0 -1.757,0.17 -2.552,0.468 v -4.369 c 0,-1.944 -1.576,-3.52 -3.521,-3.52 -1.944,0 -3.52,1.576 -3.52,3.52 V 65.679 L 153.344,62.4 V 43.284 c 0,-1.944 -1.576,-3.52 -3.52,-3.52 -1.944,0 -3.521,1.576 -3.521,3.52 v 16.369 c -0.796,-0.297 -1.653,-0.468 -2.553,-0.468 -0.446,0 -0.88,0.046 -1.304,0.123 V 49.284 c 0,-1.944 -1.576,-3.52 -3.52,-3.52 -1.944,0 -3.52,1.576 -3.52,3.52 v 19.114 l -1.705,2.587 -0.268,-0.406 v 0.812 11.981 0.812 l 0.268,-0.406 1.329,2.017 v 15.389 c -0.045,0.226 -0.07,0.459 -0.07,0.698 v 29.323 c 0,1.944 1.576,3.52 3.521,3.52 1.944,0 3.52,-1.576 3.52,-3.52 v -24.148 h 1.75 1.75 v 24.148 c 0,1.944 1.576,3.52 3.52,3.52 1.944,0 3.521,-1.576 3.521,-3.52 v -29.323 c 0,-0.239 -0.025,-0.472 -0.07,-0.698 V 85.795 l 3.907,-5.927 v 15.316 c -0.045,0.226 -0.07,0.459 -0.07,0.698 v 29.323 c 0,1.944 1.576,3.52 3.521,3.52 1.945,0 3.52,-1.576 3.52,-3.52 v -24.148 h 1.75 1.75 v 24.148 c 0,1.944 1.576,3.52 3.521,3.52 1.945,0 3.52,-1.576 3.52,-3.52 V 95.882 c 0,-0.239 -0.025,-0.472 -0.07,-0.698 V 79.795 l 9.494,-14.404 c 0.379,-0.575 0.581,-1.248 0.581,-1.937 v -20.17 c 0,-1.943 -1.576,-3.52 -3.521,-3.52 z m -30.338,36.935 h -6.284 -5.383 l 2.353,-3.569 c 0.924,0.423 1.948,0.664 3.031,0.664 2.684,0 5.024,-1.452 6.293,-3.609 l 2.142,3.25 -2.152,3.264 z"
           id="path3872"
           style="fill:#ffffff" />
        <path
           inkscape:connector-curvature="0"
           d="m 132.374,89.047 c -0.197,0.404 -0.41,0.8 -0.66,1.179 l -13.823,20.973 v 21.821 c 0.072,0.498 0.109,1 0.109,1.497 v 0.169 c 0.127,0.014 0.252,0.039 0.383,0.039 1.944,0 3.52,-1.576 3.52,-3.52 v -24.148 h 1.75 1.75 v 24.148 c 0,1.944 1.576,3.52 3.521,3.52 1.945,0 3.52,-1.576 3.52,-3.52 v -29.323 c 0,-0.239 -0.025,-0.472 -0.07,-0.698 V 89.047 z"
           id="path3874"
           style="fill:#ffffff" />
        <path
           inkscape:connector-curvature="0"
           d="m 111.898,49.284 c 0,-1.944 -1.576,-3.52 -3.52,-3.52 -1.944,0 -3.521,1.576 -3.521,3.52 v 0.461 c -0.614,-0.52 -1.397,-0.845 -2.264,-0.845 -1.944,0 -3.52,1.577 -3.52,3.52 v 7.004 c 2.035,0.073 3.982,0.489 5.784,1.202 0.428,0.169 0.845,0.359 1.256,0.56 2.233,1.094 4.207,2.633 5.784,4.524 V 49.284 z"
           id="path3876"
           style="fill:#ffffff" />
        <path
           inkscape:connector-curvature="0"
           d="m 35.945,33.84 c 2.1,-2.756 2.194,-6.632 0.458,-9.664 C 34.525,20.897 26.317,14.651 30.85,11.018 33.366,9.001 29.804,5.487 27.314,7.482 c -2.952,2.366 -3.233,5.998 -2.206,9.438 1.369,4.583 10.362,9.352 6.52,14.396 -1.956,2.566 2.39,5.052 4.317,2.524 z"
           id="path3878"
           style="fill:#ffffff" />
        <path
           inkscape:connector-curvature="0"
           d="m 166.286,12.472 c 3.208,-0.325 2.129,-5.211 -1.045,-4.89 -3.764,0.381 -5.974,3.276 -6.982,6.722 -1.343,4.591 3.613,13.483 -2.354,15.627 -3.036,1.091 -0.74,5.54 2.251,4.465 3.261,-1.172 5.447,-4.374 5.638,-7.862 0.206,-3.773 -3.288,-13.477 2.492,-14.062 z"
           id="path3880"
           style="fill:#ffffff" />
        <path
           inkscape:connector-curvature="0"
           d="m 68.353,33.29 c 0.537,3.452 3.031,6.422 6.392,7.263 3.084,0.772 4.926,-3.883 1.797,-4.667 -6.151,-1.541 -2.104,-10.881 -3.896,-15.316 -1.345,-3.329 -3.832,-5.99 -7.616,-5.995 -3.19,-0.004 -3.779,4.965 -0.554,4.969 5.808,0.009 3.297,10.013 3.877,13.746 z"
           id="path3882"
           style="fill:#ffffff" />
        <path
           inkscape:connector-curvature="0"
           d="m 129.459,15.369 c 1.47,-3.276 1.668,-6.913 -0.949,-9.646 -2.206,-2.305 -6.199,0.712 -3.969,3.041 4.017,4.196 -4.939,9.312 -7.231,12.316 -2.119,2.778 -2.534,6.633 -0.813,9.641 1.578,2.759 6.212,0.865 4.611,-1.936 -3.148,-5.503 6.393,-9.051 8.351,-13.416 z"
           id="path3884"
           style="fill:#ffffff" />
        <path
           inkscape:connector-curvature="0"
           d="m 84.322,20.609 c 1.339,3.227 4.466,5.521 7.93,5.542 3.179,0.02 3.866,-4.939 0.64,-4.96 C 86.551,21.151 88.271,11.118 85.479,7.234 83.383,4.318 80.337,2.322 76.66,3.214 c -3.101,0.752 -2.496,5.719 0.638,4.959 5.647,-1.368 5.576,8.946 7.024,12.436 z"
           id="path3886"
           style="fill:#ffffff" />
        <path
           inkscape:connector-curvature="0"
           d="m 49,34.284 c 4.514,0 4.514,-7 0,-7 -4.514,0 -4.514,7 0,7 z"
           id="path3888"
           style="fill:#ffffff" />
        <path
           inkscape:connector-curvature="0"
           d="m 15.5,24.284 c 4.514,0 4.514,-7 0,-7 -4.514,0 -4.514,7 0,7 z"
           id="path3890"
           style="fill:#ffffff" />
        <path
           inkscape:connector-curvature="0"
           d="m 109.5,8.284 c -4.514,0 -4.514,7 0,7 4.514,0 4.514,-7 0,-7 z"
           id="path3892"
           style="fill:#ffffff" />
        <path
           inkscape:connector-curvature="0"
           d="m 103,33.284 c 4.514,0 4.514,-7 0,-7 -4.514,0 -4.514,7 0,7 z"
           id="path3894"
           style="fill:#ffffff" />
        <path
           inkscape:connector-curvature="0"
           d="m 141.5,22.784 c 4.514,0 4.514,-7 0,-7 -4.514,0 -4.514,7 0,7 z"
           id="path3896"
           style="fill:#ffffff" />
        <path
           inkscape:connector-curvature="0"
           d="m 181.5,23.284 c -4.514,0 -4.514,7 0,7 4.514,0 4.514,-7 0,-7 z"
           id="path3898"
           style="fill:#ffffff" />
        <path
           inkscape:connector-curvature="0"
           d="m 114.862,106.708 12.677,-19.233 c 0.585,-0.887 0.896,-1.926 0.896,-2.988 V 76.7 75.788 72.004 60.978 46.165 c 0,-0.133 -0.01,-0.264 -0.02,-0.395 -0.203,-2.814 -2.545,-5.036 -5.412,-5.036 -3,0 -5.431,2.432 -5.431,5.431 v 5.618 10.663 8.088 6.165 6.158 l -2.64,4.005 -5.8,8.801 H 96.04 94.842 87.487 l -9.077,-9.582 1.8,-7.499 0.706,-2.941 c 0.002,-0.01 0.003,-0.021 0.006,-0.031 0.033,-0.143 0.059,-0.286 0.08,-0.428 0.007,-0.071 0.019,-0.14 0.027,-0.211 0.07,-0.623 0.029,-1.238 -0.108,-1.825 -0.13,-0.557 -0.343,-1.089 -0.635,-1.574 -0.725,-1.203 -1.911,-2.127 -3.384,-2.481 -0.035,-0.008 -0.069,-0.011 -0.104,-0.019 -0.393,-0.087 -0.785,-0.134 -1.172,-0.134 -0.021,0 -0.041,0.005 -0.062,0.005 -2.427,0.028 -4.619,1.693 -5.211,4.16 l -0.229,0.955 -0.354,1.476 -2.61,10.875 c -0.429,1.787 0.075,3.67 1.338,5.004 l 7.521,7.94 2.58,2.724 7.68,8.108 v 0.007 18.526 l -0.71,0.867 -5.96,7.284 -11.372,13.901 c -1.819,2.225 -1.592,5.481 0.52,7.432 l 13.838,12.774 c 1.044,0.964 2.365,1.44 3.682,1.44 1.463,0 2.922,-0.588 3.992,-1.747 2.035,-2.205 1.897,-5.64 -0.307,-7.676 l -10.078,-9.303 9.155,-11.188 h 13.098 v 37.258 c 0,2.999 2.432,5.431 5.431,5.431 2.999,0 5.431,-2.432 5.431,-5.431 v -45.242 c 0,-0.369 -0.039,-0.73 -0.109,-1.078 v -23.739 l 1.972,-2.993 z"
           id="path3900"
           style="fill:#ffffff" />
        <path
           inkscape:connector-curvature="0"
           d="m 86.269,79.835 c 0.831,3.478 3.101,6.395 6.158,8.072 1.112,0.61 2.328,1.053 3.613,1.302 0.778,0.151 1.579,0.236 2.4,0.236 4.92,0 9.165,-2.844 11.214,-6.971 0.478,-0.963 0.846,-1.99 1.064,-3.074 0.161,-0.802 0.248,-1.632 0.248,-2.482 0,-0.979 -0.124,-1.927 -0.336,-2.841 -0.66,-2.843 -2.285,-5.31 -4.516,-7.044 -0.4,-0.311 -0.82,-0.596 -1.256,-0.857 -0.759,-0.454 -1.567,-0.833 -2.419,-1.12 -1.065,-0.359 -2.194,-0.573 -3.365,-0.632 -0.211,-0.011 -0.42,-0.032 -0.634,-0.032 -1.82,0 -3.545,0.397 -5.105,1.095 -0.531,0.237 -1.039,0.513 -1.528,0.819 -3.172,1.987 -5.394,5.345 -5.817,9.251 -0.008,0.071 -0.009,0.142 -0.019,0.213 -0.031,0.337 -0.048,0.678 -0.052,1.022 0,0.042 -0.006,0.083 -0.006,0.126 0,0.405 0.023,0.804 0.061,1.199 0.056,0.587 0.161,1.158 0.295,1.718 z"
           id="path3902"
           style="fill:#ffffff" />
      </g>
    </g>
  </g>
</svg>
