<?xml version="1.0" encoding="UTF-8" standalone="no"?>
<!-- Created with Inkscape (http://www.inkscape.org/) -->

<svg
   xmlns:dc="http://purl.org/dc/elements/1.1/"
   xmlns:cc="http://creativecommons.org/ns#"
   xmlns:rdf="http://www.w3.org/1999/02/22-rdf-syntax-ns#"
   xmlns:svg="http://www.w3.org/2000/svg"
   xmlns="http://www.w3.org/2000/svg"
   xmlns:sodipodi="http://sodipodi.sourceforge.net/DTD/sodipodi-0.dtd"
   xmlns:inkscape="http://www.inkscape.org/namespaces/inkscape"
   width="300px"
   height="191px"
   id="svg2985"
   version="1.1"
   inkscape:version="0.48.4 r9939"
   sodipodi:docname="15novariable.svg"
   inkscape:export-filename="/home/rdevera/workspacephpnew/catbibips15/prestashop16/modules/giftcard/datadefault/template/14novariable_en.png"
   inkscape:export-xdpi="243.6996"
   inkscape:export-ydpi="243.6996">
  <defs
     id="defs3">
    <filter
       id="filter8109"
       inkscape:label="Fancy blur"
       inkscape:menu="Blurs"
       inkscape:menu-tooltip="Smooth colorized contour which allows desaturation and hue rotation"
       color-interpolation-filters="sRGB">
      <feGaussianBlur
         id="feGaussianBlur8111"
         stdDeviation="5"
         result="result1" />
      <feComposite
         k4="0"
         k3="0"
         k1="0"
         id="feComposite8113"
         in2="result1"
         operator="arithmetic"
         k2="2"
         in="result1" />
    </filter>
  </defs>
  <sodipodi:namedview
     id="base"
     pagecolor="#ffffff"
     bordercolor="#666666"
     borderopacity="1.0"
     inkscape:pageopacity="0.0"
     inkscape:pageshadow="2"
     inkscape:zoom="1.4383333"
     inkscape:cx="120.84318"
     inkscape:cy="64.292739"
     inkscape:document-units="mm"
     inkscape:current-layer="var_color1"
     showgrid="false"
     inkscape:window-width="1920"
     inkscape:window-height="1014"
     inkscape:window-x="0"
     inkscape:window-y="27"
     inkscape:window-maximized="1">
    <inkscape:grid
       type="xygrid"
       id="grid6082" />
  </sodipodi:namedview>
  <metadata
     id="metadata2989">
    <rdf:RDF>
      <cc:Work
         rdf:about="">
        <dc:format>image/svg+xml</dc:format>
        <dc:type
           rdf:resource="http://purl.org/dc/dcmitype/StillImage" />
        <dc:title></dc:title>
      </cc:Work>
    </rdf:RDF>
  </metadata>
  <g
     inkscape:label="Layer 1"
     inkscape:groupmode="layer"
     id="layer1">
    <g
       id="var_color1"
       style="fill:#996600"
       transform="translate(-2.0833333,2.0833333)">
      <rect
         style="fill:#0080e8;fill-opacity:1;stroke:#0000b8;stroke-width:1.98298811999999991"
         id="rect4099"
         width="297.16046"
         height="188.58302"
         x="3.7114422"
         y="-0.28855756"
         ry="9.8954525"
         inkscape:export-filename="/home/rdevera/workspacephpnew/catbibips15/prestashop16/modules/giftcard/datadefault/template/14novariable_fr.png"
         inkscape:export-xdpi="243.6996"
         inkscape:export-ydpi="243.6996" />
      <text
         xml:space="preserve"
         style="font-size:25.78211212px;font-style:normal;font-variant:normal;font-weight:normal;font-stretch:normal;line-height:125%;letter-spacing:0px;word-spacing:0px;fill:#ffffff;fill-opacity:1;stroke:#ffffff;stroke-width:1;font-family:Bebas Neue;-inkscape-font-specification:Bebas Neue"
         x="157.63603"
         y="53.18557"
         id="text4101"
         sodipodi:linespacing="125%"
         transform="scale(0.94409602,1.0592143)"
         inkscape:export-filename="/home/rdevera/workspacephpnew/catbibips15/prestashop16/modules/giftcard/datadefault/template/14novariable_fr.png"
         inkscape:export-xdpi="243.6996"
         inkscape:export-ydpi="243.6996"><tspan
           sodipodi:role="line"
           x="157.63603"
           y="53.18557"
           style="font-size:56px;text-align:center;text-anchor:middle;fill:#ffffff;stroke:#ffffff;stroke-width:1"
           id="tspan3985">Félicitation</tspan></text>
      <g
         id="g4153"
         transform="matrix(1.3588383,0,0,1.475268,-159.19818,-39.757333)">
        <path
           style="fill:#eeeeee"
           id="path4079"
           d="m 203.5748,109.81202 c 2.636,7.27 8.75,12.783 16.123,14.954 1.306,2.512 3.929,4.235 6.951,4.235 3.022,0 5.644,-1.723 6.95,-4.235 7.373,-2.171 13.487,-7.685 16.123,-14.954 4.379,-0.05 7.927,-3.628 7.927,-8.019 0,-4.390996 -3.547,-7.968996 -7.927,-8.018996 -2.974,-8.203 -10.374,-14.18 -19.019,-15.627 -0.143,-0.054 -0.296,-0.094 -0.471,-0.104 -0.109,-0.006 -0.224,-0.005 -0.334,-0.01 -1.069,-0.143 -2.152,-0.232 -3.249,-0.232 -10.327,0 -19.644,6.511 -23.074,15.973 -4.379,0.05 -7.926,3.628 -7.926,8.018996 0,4.391 3.547,7.969 7.926,8.019 z m 18.24,4.594 c 0,-0.851 1.928,-2.137 4.833,-2.137 2.905,0 4.833,1.286 4.833,2.137 0,0.146 -0.076,0.307 -0.186,0.47 -1.302,-0.964 -2.906,-1.542 -4.647,-1.542 -1.741,0 -3.346,0.578 -4.648,1.542 -0.108,-0.163 -0.185,-0.323 -0.185,-0.47 z m 6.383,11.318 c -0.489,0.167 -1.004,0.278 -1.549,0.278 -0.545,0 -1.06,-0.111 -1.549,-0.278 -1.567,-0.535 -2.774,-1.838 -3.151,-3.47 -0.081,-0.35 -0.134,-0.711 -0.134,-1.086 0,-0.876 0.252,-1.688 0.662,-2.397 0.657,-1.138 1.751,-1.985 3.064,-2.296 0.357,-0.085 0.725,-0.14 1.108,-0.14 0.383,0 0.751,0.056 1.108,0.14 1.312,0.31 2.406,1.158 3.063,2.296 0.409,0.709 0.662,1.521 0.662,2.397 0,0.375 -0.052,0.735 -0.134,1.086 -0.377,1.632 -1.584,2.935 -3.15,3.47 z m -24.53,-28.950996 c 0.217,0 0.453,0.02 0.743,0.062 l 1.277,0.188 0.376,-1.235 c 1.825,-5.982 6.306,-10.734 11.939,-13.179 -1.257,2.785 0.45,6.219 3.297,7.558 3.547,1.669 9.286,1.887 11.707,-1.744 1.091,-1.636 0.122,-3.705 -1.198,-4.825 -1.847,-1.567 -4.531,-1.79 -6.725,-0.919 -1.776,0.705 -1.003,3.607 0.798,2.893 1.304,-0.517 2.492,-0.556 3.743,0.131 1.717,0.944 0.135,2.022 -1.065,2.367 -2.237,0.643 -5.538,0.118 -7.287,-1.452 -2.208,-1.982 0.636,-4.231 2.396,-4.847 1.908,-0.668 4.005,-0.816 6.024,-0.743 8.161,1.161 15.144,6.898 17.542,14.76 l 0.376,1.235 1.277,-0.188 c 0.29,-0.042 0.525,-0.062 0.743,-0.062 2.768,0 5.02,2.252 5.02,5.019996 0,2.768 -2.252,5.02 -5.02,5.02 -0.218,0 -0.453,-0.02 -0.74,-0.062 l -1.279,-0.191 -0.377,1.237 c -1.912,6.269 -6.744,11.181 -12.758,13.509 0.001,-0.046 0.007,-0.091 0.007,-0.137 0,-1.487 -0.424,-2.874 -1.147,-4.06 0.725,-0.781 1.147,-1.702 1.147,-2.702 0,-2.881 -3.44,-5.137 -7.833,-5.137 -4.393,0 -7.833,2.256 -7.833,5.137 0,1 0.422,1.921 1.147,2.702 -0.723,1.186 -1.147,2.573 -1.147,4.06 0,0.046 0.006,0.091 0.007,0.137 -6.015,-2.328 -10.846,-7.24 -12.758,-13.509 l -0.377,-1.237 -1.279,0.191 c -0.29,0.042 -0.525,0.062 -0.743,0.062 -2.768,0 -5.019,-2.252 -5.019,-5.02 0,-2.767996 2.251,-5.019996 5.019,-5.019996 z"
           inkscape:connector-curvature="0" />
        <path
           style="fill:#eeeeee"
           id="path4081"
           d="m 220.3148,104.75102 c 2.579,0 2.579,-4 0,-4 -2.579,0 -2.579,4 0,4 z"
           inkscape:connector-curvature="0" />
        <path
           style="fill:#eeeeee"
           id="path4083"
           d="m 232.9818,104.50102 c 2.579,0 2.579,-4 0,-4 -2.579,0 -2.579,4 0,4 z"
           inkscape:connector-curvature="0" />
      </g>
      <g
         transform="matrix(1,0,0,0.76229985,217.59203,136.0171)"
         id="g4254"
         style="fill:#eeeeee">
        <g
           id="g4256"
           style="fill:#eeeeee">
          <path
             inkscape:connector-curvature="0"
             d="m 18.45,37.179 c 0.102,0.749 0.271,1.514 0.438,2.252 l 0.006,0.035 c 0.706,3.145 1.26,5.627 -2.593,7.095 l -0.747,0.345 C 15.297,46.94 15.041,46.958 14.79,46.958 8.453,46.954 4.569,36.79 4.351,31.568 4.01,20.71 6.641,14.525 12.161,13.194 c 0.951,-0.193 2.789,-0.415 4.843,-0.415 2.477,0 6.929,0.341 8.907,2.614 0.846,0.971 1.167,2.234 0.957,3.751 -0.429,3.095 -2.197,5.187 -4.069,7.401 -2.353,2.786 -4.786,5.659 -4.349,10.634 z m 0.584,2.258 0,0 0,0 0,0 z"
             id="path4258"
             style="fill:#eeeeee" />
        </g>
        <g
           id="g4260"
           style="fill:#eeeeee">
          <path
             inkscape:connector-curvature="0"
             d="m 26.677,11.748 c -0.269,0 -0.531,-0.046 -0.776,-0.131 -0.788,-0.28 -1.386,-0.98 -1.684,-1.972 -0.315,-1.053 -0.256,-2.287 0.167,-3.48 0.712,-2.01 2.287,-3.413 3.833,-3.413 0.268,0 0.528,0.047 0.776,0.131 1.689,0.601 2.369,3.046 1.517,5.453 -0.711,2.008 -2.286,3.412 -3.833,3.412 z"
             id="path4262"
             style="fill:#eeeeee" />
        </g>
        <g
           id="g4264"
           style="fill:#eeeeee">
          <path
             inkscape:connector-curvature="0"
             d="m 18.258,6.426 c 0.248,-1.085 1.009,-1.902 1.768,-1.902 0.076,0 0.151,0.009 0.225,0.026 0.82,0.19 1.257,1.336 0.977,2.559 -0.266,1.17 -1.199,2.065 -1.993,1.876 -0.819,-0.19 -1.257,-1.336 -0.977,-2.559 z"
             id="path4266"
             style="fill:#eeeeee" />
        </g>
        <g
           id="g4268"
           style="fill:#eeeeee">
          <path
             inkscape:connector-curvature="0"
             d="m 13.246,7.205 c -0.029,-0.516 0.085,-1.003 0.324,-1.371 0.208,-0.327 0.481,-0.501 0.811,-0.522 0.622,0.003 1.196,0.805 1.252,1.75 0.032,0.516 -0.082,1.003 -0.321,1.371 -0.204,0.318 -0.476,0.502 -0.758,0.519 l -0.05,0.003 c -0.634,10e-4 -1.2,-0.784 -1.258,-1.75 z"
             id="path4270"
             style="fill:#eeeeee" />
        </g>
        <g
           id="g4272"
           style="fill:#eeeeee">
          <path
             inkscape:connector-curvature="0"
             d="M 8.604,7.258 C 8.747,6.908 8.98,6.675 9.261,6.599 9.325,6.584 9.392,6.576 9.459,6.576 c 0.592,0 1.205,0.633 1.427,1.476 0.151,0.578 0.096,1.176 -0.152,1.596 -0.096,0.169 -0.274,0.385 -0.557,0.458 -0.062,0.018 -0.125,0.023 -0.193,0.023 -0.586,0 -1.213,-0.645 -1.429,-1.47 C 8.423,8.159 8.444,7.663 8.604,7.258 z"
             id="path4274"
             style="fill:#eeeeee" />
        </g>
        <g
           id="g4276"
           style="fill:#eeeeee">
          <path
             inkscape:connector-curvature="0"
             d="M 5.048,10.228 C 5.144,9.983 5.302,9.823 5.486,9.776 5.533,9.764 5.574,9.758 5.617,9.758 c 0.412,0 0.855,0.473 1.012,1.077 0.097,0.368 0.085,0.735 -0.035,1.03 C 6.498,12.107 6.34,12.268 6.154,12.317 5.728,12.422 5.185,11.921 5.013,11.258 4.917,10.89 4.928,10.522 5.048,10.228 z"
             id="path4278"
             style="fill:#eeeeee" />
        </g>
        <g
           id="g4280"
           style="fill:#eeeeee">
          <path
             inkscape:connector-curvature="0"
             d="m 49.211,61.25 c -0.254,0 -0.511,-0.018 -0.765,-0.05 l -0.778,-0.359 c -3.822,-1.455 -3.265,-3.938 -2.556,-7.112 0.166,-0.738 0.335,-1.505 0.438,-2.278 0.438,-4.951 -1.995,-7.827 -4.35,-10.61 -1.873,-2.215 -3.639,-4.304 -4.067,-7.401 -0.21,-1.517 0.111,-2.78 0.957,-3.752 1.979,-2.272 6.43,-2.611 8.907,-2.611 2.057,0 3.889,0.219 4.825,0.408 5.534,1.333 8.168,7.518 7.827,18.374 -0.215,5.223 -4.101,15.391 -10.438,15.391 z"
             id="path4282"
             style="fill:#eeeeee" />
        </g>
        <g
           id="g4284"
           style="fill:#eeeeee">
          <path
             inkscape:connector-curvature="0"
             d="m 35.782,17.045 c 1.546,0 3.122,1.403 3.834,3.414 0.423,1.193 0.483,2.427 0.166,3.478 -0.298,0.992 -0.896,1.692 -1.684,1.972 -0.248,0.087 -0.511,0.131 -0.776,0.131 -1.546,0 -3.121,-1.403 -3.833,-3.411 -0.852,-2.41 -0.172,-4.854 1.518,-5.453 0.247,-0.087 0.507,-0.131 0.775,-0.131 z"
             id="path4286"
             style="fill:#eeeeee" />
        </g>
        <g
           id="g4288"
           style="fill:#eeeeee">
          <path
             inkscape:connector-curvature="0"
             d="m 43.975,18.819 c 0.761,0 1.52,0.817 1.771,1.899 0.28,1.222 -0.16,2.372 -0.98,2.558 -0.069,0.018 -0.143,0.026 -0.216,0.026 -0.753,0 -1.534,-0.834 -1.776,-1.902 -0.283,-1.223 0.157,-2.369 0.978,-2.559 0.067,-0.013 0.144,-0.022 0.223,-0.022 z"
             id="path4290"
             style="fill:#eeeeee" />
        </g>
        <g
           id="g4292"
           style="fill:#eeeeee">
          <path
             inkscape:connector-curvature="0"
             d="m 48.368,21.354 c 0.058,-0.977 0.633,-1.745 1.307,-1.748 0.283,0.021 0.555,0.204 0.759,0.522 0.236,0.365 0.35,0.852 0.32,1.368 -0.058,0.965 -0.621,1.75 -1.254,1.75 h -0.05 c -0.286,-0.018 -0.558,-0.205 -0.762,-0.522 -0.236,-0.366 -0.352,-0.85 -0.32,-1.37 z"
             id="path4294"
             style="fill:#eeeeee" />
        </g>
        <g
           id="g4296"
           style="fill:#eeeeee">
          <path
             inkscape:connector-curvature="0"
             d="m 53.117,23.09 c 0.219,-0.84 0.829,-1.476 1.424,-1.476 0.067,0 0.131,0.009 0.198,0.026 0.28,0.073 0.517,0.306 0.656,0.659 0.161,0.405 0.179,0.901 0.05,1.397 -0.239,0.919 -1.001,1.61 -1.622,1.45 -0.283,-0.076 -0.461,-0.292 -0.56,-0.461 -0.244,-0.419 -0.297,-1.014 -0.146,-1.595 z"
             id="path4298"
             style="fill:#eeeeee" />
        </g>
        <g
           id="g4300"
           style="fill:#eeeeee">
          <path
             inkscape:connector-curvature="0"
             d="m 57.371,25.876 c 0.157,-0.604 0.604,-1.077 1.015,-1.077 0.044,0 0.085,0.003 0.126,0.015 0.187,0.05 0.344,0.21 0.44,0.452 0.119,0.301 0.131,0.665 0.035,1.033 -0.155,0.601 -0.604,1.074 -1.021,1.074 -0.041,0 -0.081,-0.006 -0.119,-0.015 -0.187,-0.049 -0.345,-0.21 -0.44,-0.452 -0.121,-0.297 -0.133,-0.662 -0.036,-1.03 z"
             id="path4302"
             style="fill:#eeeeee" />
        </g>
      </g>
    </g>
  </g>
</svg>
