<?xml version="1.0" encoding="UTF-8" standalone="no"?>
<!-- Created with Inkscape (http://www.inkscape.org/) -->

<svg
   xmlns:dc="http://purl.org/dc/elements/1.1/"
   xmlns:cc="http://creativecommons.org/ns#"
   xmlns:rdf="http://www.w3.org/1999/02/22-rdf-syntax-ns#"
   xmlns:svg="http://www.w3.org/2000/svg"
   xmlns="http://www.w3.org/2000/svg"
   xmlns:sodipodi="http://sodipodi.sourceforge.net/DTD/sodipodi-0.dtd"
   xmlns:inkscape="http://www.inkscape.org/namespaces/inkscape"
   width="300px"
   height="191px"
   id="svg2985"
   version="1.1"
   inkscape:version="0.48.4 r9939"
   sodipodi:docname="15novariable.svg"
   inkscape:export-filename="/home/rdevera/workspacephpnew/catbibips15/prestashop16/modules/giftcard/datadefault/template/14novariable_en.png"
   inkscape:export-xdpi="243.6996"
   inkscape:export-ydpi="243.6996">
  <defs
     id="defs3">
    <filter
       id="filter8109"
       inkscape:label="Fancy blur"
       inkscape:menu="Blurs"
       inkscape:menu-tooltip="Smooth colorized contour which allows desaturation and hue rotation"
       color-interpolation-filters="sRGB">
      <feGaussianBlur
         id="feGaussianBlur8111"
         stdDeviation="5"
         result="result1" />
      <feComposite
         k4="0"
         k3="0"
         k1="0"
         id="feComposite8113"
         in2="result1"
         operator="arithmetic"
         k2="2"
         in="result1" />
    </filter>
  </defs>
  <sodipodi:namedview
     id="base"
     pagecolor="#ffffff"
     bordercolor="#666666"
     borderopacity="1.0"
     inkscape:pageopacity="0.0"
     inkscape:pageshadow="2"
     inkscape:zoom="1.4383333"
     inkscape:cx="120.84318"
     inkscape:cy="64.292739"
     inkscape:document-units="mm"
     inkscape:current-layer="var_color1"
     showgrid="false"
     inkscape:window-width="1920"
     inkscape:window-height="1014"
     inkscape:window-x="0"
     inkscape:window-y="27"
     inkscape:window-maximized="1">
    <inkscape:grid
       type="xygrid"
       id="grid6082" />
  </sodipodi:namedview>
  <metadata
     id="metadata2989">
    <rdf:RDF>
      <cc:Work
         rdf:about="">
        <dc:format>image/svg+xml</dc:format>
        <dc:type
           rdf:resource="http://purl.org/dc/dcmitype/StillImage" />
        <dc:title></dc:title>
      </cc:Work>
    </rdf:RDF>
  </metadata>
  <g
     inkscape:label="Layer 1"
     inkscape:groupmode="layer"
     id="layer1">
    <g
       id="var_color1"
       style="fill:#996600"
       transform="translate(-2.0833333,2.0833333)">
      <rect
         style="fill:#ff3d7f;fill-opacity:1;stroke:#81022d;stroke-width:1.98298811999999991"
         id="rect4099"
         width="297.16046"
         height="188.58302"
         x="3.7114422"
         y="-0.28855756"
         ry="9.8954525"
         inkscape:export-filename="/home/rdevera/workspacephpnew/catbibips15/prestashop16/modules/giftcard/datadefault/template/15novariable_en.png"
         inkscape:export-xdpi="243.6996"
         inkscape:export-ydpi="243.6996" />
      <text
         xml:space="preserve"
         style="font-size:25.78211212px;font-style:normal;font-variant:normal;font-weight:normal;font-stretch:normal;line-height:125%;letter-spacing:0px;word-spacing:0px;fill:#ffffff;fill-opacity:1;stroke:#ffffff;stroke-width:1;font-family:Bebas Neue;-inkscape-font-specification:Bebas Neue"
         x="161.87288"
         y="53.18557"
         id="text4101"
         sodipodi:linespacing="125%"
         transform="scale(0.94409602,1.0592143)"
         inkscape:export-filename="/home/rdevera/workspacephpnew/catbibips15/prestashop16/modules/giftcard/datadefault/template/15novariable_en.png"
         inkscape:export-xdpi="243.6996"
         inkscape:export-ydpi="243.6996"><tspan
           sodipodi:role="line"
           x="161.87288"
           y="53.18557"
           style="font-size:56px;text-align:center;text-anchor:middle;fill:#ffffff;stroke:#ffffff;stroke-width:1"
           id="tspan3985">congratulation!</tspan></text>
      <g
         transform="matrix(1,0,0,0.76229985,217.59203,136.0171)"
         id="g4254"
         style="fill:#eeeeee"
         inkscape:export-filename="/home/rdevera/workspacephpnew/catbibips15/prestashop16/modules/giftcard/datadefault/template/15novariable_en.png"
         inkscape:export-xdpi="243"
         inkscape:export-ydpi="243">
        <g
           id="g4256"
           style="fill:#eeeeee">
          <path
             inkscape:connector-curvature="0"
             d="m 18.45,37.179 c 0.102,0.749 0.271,1.514 0.438,2.252 l 0.006,0.035 c 0.706,3.145 1.26,5.627 -2.593,7.095 l -0.747,0.345 C 15.297,46.94 15.041,46.958 14.79,46.958 8.453,46.954 4.569,36.79 4.351,31.568 4.01,20.71 6.641,14.525 12.161,13.194 c 0.951,-0.193 2.789,-0.415 4.843,-0.415 2.477,0 6.929,0.341 8.907,2.614 0.846,0.971 1.167,2.234 0.957,3.751 -0.429,3.095 -2.197,5.187 -4.069,7.401 -2.353,2.786 -4.786,5.659 -4.349,10.634 z m 0.584,2.258 0,0 0,0 0,0 z"
             id="path4258"
             style="fill:#eeeeee" />
        </g>
        <g
           id="g4260"
           style="fill:#eeeeee">
          <path
             inkscape:connector-curvature="0"
             d="m 26.677,11.748 c -0.269,0 -0.531,-0.046 -0.776,-0.131 -0.788,-0.28 -1.386,-0.98 -1.684,-1.972 -0.315,-1.053 -0.256,-2.287 0.167,-3.48 0.712,-2.01 2.287,-3.413 3.833,-3.413 0.268,0 0.528,0.047 0.776,0.131 1.689,0.601 2.369,3.046 1.517,5.453 -0.711,2.008 -2.286,3.412 -3.833,3.412 z"
             id="path4262"
             style="fill:#eeeeee" />
        </g>
        <g
           id="g4264"
           style="fill:#eeeeee">
          <path
             inkscape:connector-curvature="0"
             d="m 18.258,6.426 c 0.248,-1.085 1.009,-1.902 1.768,-1.902 0.076,0 0.151,0.009 0.225,0.026 0.82,0.19 1.257,1.336 0.977,2.559 -0.266,1.17 -1.199,2.065 -1.993,1.876 -0.819,-0.19 -1.257,-1.336 -0.977,-2.559 z"
             id="path4266"
             style="fill:#eeeeee" />
        </g>
        <g
           id="g4268"
           style="fill:#eeeeee">
          <path
             inkscape:connector-curvature="0"
             d="m 13.246,7.205 c -0.029,-0.516 0.085,-1.003 0.324,-1.371 0.208,-0.327 0.481,-0.501 0.811,-0.522 0.622,0.003 1.196,0.805 1.252,1.75 0.032,0.516 -0.082,1.003 -0.321,1.371 -0.204,0.318 -0.476,0.502 -0.758,0.519 l -0.05,0.003 c -0.634,10e-4 -1.2,-0.784 -1.258,-1.75 z"
             id="path4270"
             style="fill:#eeeeee" />
        </g>
        <g
           id="g4272"
           style="fill:#eeeeee">
          <path
             inkscape:connector-curvature="0"
             d="M 8.604,7.258 C 8.747,6.908 8.98,6.675 9.261,6.599 9.325,6.584 9.392,6.576 9.459,6.576 c 0.592,0 1.205,0.633 1.427,1.476 0.151,0.578 0.096,1.176 -0.152,1.596 -0.096,0.169 -0.274,0.385 -0.557,0.458 -0.062,0.018 -0.125,0.023 -0.193,0.023 -0.586,0 -1.213,-0.645 -1.429,-1.47 C 8.423,8.159 8.444,7.663 8.604,7.258 z"
             id="path4274"
             style="fill:#eeeeee" />
        </g>
        <g
           id="g4276"
           style="fill:#eeeeee">
          <path
             inkscape:connector-curvature="0"
             d="M 5.048,10.228 C 5.144,9.983 5.302,9.823 5.486,9.776 5.533,9.764 5.574,9.758 5.617,9.758 c 0.412,0 0.855,0.473 1.012,1.077 0.097,0.368 0.085,0.735 -0.035,1.03 C 6.498,12.107 6.34,12.268 6.154,12.317 5.728,12.422 5.185,11.921 5.013,11.258 4.917,10.89 4.928,10.522 5.048,10.228 z"
             id="path4278"
             style="fill:#eeeeee" />
        </g>
        <g
           id="g4280"
           style="fill:#eeeeee">
          <path
             inkscape:connector-curvature="0"
             d="m 49.211,61.25 c -0.254,0 -0.511,-0.018 -0.765,-0.05 l -0.778,-0.359 c -3.822,-1.455 -3.265,-3.938 -2.556,-7.112 0.166,-0.738 0.335,-1.505 0.438,-2.278 0.438,-4.951 -1.995,-7.827 -4.35,-10.61 -1.873,-2.215 -3.639,-4.304 -4.067,-7.401 -0.21,-1.517 0.111,-2.78 0.957,-3.752 1.979,-2.272 6.43,-2.611 8.907,-2.611 2.057,0 3.889,0.219 4.825,0.408 5.534,1.333 8.168,7.518 7.827,18.374 -0.215,5.223 -4.101,15.391 -10.438,15.391 z"
             id="path4282"
             style="fill:#eeeeee" />
        </g>
        <g
           id="g4284"
           style="fill:#eeeeee">
          <path
             inkscape:connector-curvature="0"
             d="m 35.782,17.045 c 1.546,0 3.122,1.403 3.834,3.414 0.423,1.193 0.483,2.427 0.166,3.478 -0.298,0.992 -0.896,1.692 -1.684,1.972 -0.248,0.087 -0.511,0.131 -0.776,0.131 -1.546,0 -3.121,-1.403 -3.833,-3.411 -0.852,-2.41 -0.172,-4.854 1.518,-5.453 0.247,-0.087 0.507,-0.131 0.775,-0.131 z"
             id="path4286"
             style="fill:#eeeeee" />
        </g>
        <g
           id="g4288"
           style="fill:#eeeeee">
          <path
             inkscape:connector-curvature="0"
             d="m 43.975,18.819 c 0.761,0 1.52,0.817 1.771,1.899 0.28,1.222 -0.16,2.372 -0.98,2.558 -0.069,0.018 -0.143,0.026 -0.216,0.026 -0.753,0 -1.534,-0.834 -1.776,-1.902 -0.283,-1.223 0.157,-2.369 0.978,-2.559 0.067,-0.013 0.144,-0.022 0.223,-0.022 z"
             id="path4290"
             style="fill:#eeeeee" />
        </g>
        <g
           id="g4292"
           style="fill:#eeeeee">
          <path
             inkscape:connector-curvature="0"
             d="m 48.368,21.354 c 0.058,-0.977 0.633,-1.745 1.307,-1.748 0.283,0.021 0.555,0.204 0.759,0.522 0.236,0.365 0.35,0.852 0.32,1.368 -0.058,0.965 -0.621,1.75 -1.254,1.75 h -0.05 c -0.286,-0.018 -0.558,-0.205 -0.762,-0.522 -0.236,-0.366 -0.352,-0.85 -0.32,-1.37 z"
             id="path4294"
             style="fill:#eeeeee" />
        </g>
        <g
           id="g4296"
           style="fill:#eeeeee">
          <path
             inkscape:connector-curvature="0"
             d="m 53.117,23.09 c 0.219,-0.84 0.829,-1.476 1.424,-1.476 0.067,0 0.131,0.009 0.198,0.026 0.28,0.073 0.517,0.306 0.656,0.659 0.161,0.405 0.179,0.901 0.05,1.397 -0.239,0.919 -1.001,1.61 -1.622,1.45 -0.283,-0.076 -0.461,-0.292 -0.56,-0.461 -0.244,-0.419 -0.297,-1.014 -0.146,-1.595 z"
             id="path4298"
             style="fill:#eeeeee" />
        </g>
        <g
           id="g4300"
           style="fill:#eeeeee">
          <path
             inkscape:connector-curvature="0"
             d="m 57.371,25.876 c 0.157,-0.604 0.604,-1.077 1.015,-1.077 0.044,0 0.085,0.003 0.126,0.015 0.187,0.05 0.344,0.21 0.44,0.452 0.119,0.301 0.131,0.665 0.035,1.033 -0.155,0.601 -0.604,1.074 -1.021,1.074 -0.041,0 -0.081,-0.006 -0.119,-0.015 -0.187,-0.049 -0.345,-0.21 -0.44,-0.452 -0.121,-0.297 -0.133,-0.662 -0.036,-1.03 z"
             id="path4302"
             style="fill:#eeeeee" />
        </g>
      </g>
      <g
         id="g4563"
         transform="matrix(1.3139835,0,0,1.3420816,-47.450352,-29.224134)">
        <path
           style="fill:#ffffff"
           id="path4522"
           d="m 123.62115,110.95427 c 2.636,7.27 8.75,12.783 16.123,14.954 1.306,2.512 3.929,4.235 6.951,4.235 3.022,0 5.644,-1.723 6.95,-4.235 7.373,-2.171 13.487,-7.685 16.123,-14.954 4.379,-0.05 7.927,-3.628 7.927,-8.019 0,-4.390997 -3.547,-7.968995 -7.927,-8.018995 -1.685,-4.647 -4.794,-8.575 -8.74,-11.377005 v 3.093005 c 0,0.22 -0.036,0.431 -0.088,0.635 2.931,2.537 5.176,5.85 6.339,9.663 l 0.376,1.234998 1.277,-0.188 c 0.29,-0.042 0.525,-0.062 0.743,-0.062 2.768,0 5.02,2.251997 5.02,5.019997 0,2.768 -2.252,5.02 -5.02,5.02 -0.218,0 -0.453,-0.02 -0.74,-0.062 l -1.279,-0.191 -0.377,1.237 c -1.912,6.269 -6.744,11.181 -12.758,13.509 0.001,-0.046 0.007,-0.091 0.007,-0.137 0,-1.487 -0.424,-2.874 -1.147,-4.06 0.725,-0.781 1.147,-1.702 1.147,-2.702 0,-2.881 -3.44,-5.137 -7.833,-5.137 -4.393,0 -7.833,2.256 -7.833,5.137 0,1 0.422,1.921 1.147,2.702 -0.723,1.186 -1.147,2.573 -1.147,4.06 0,0.046 0.006,0.091 0.007,0.137 -6.015,-2.328 -10.846,-7.24 -12.758,-13.509 l -0.377,-1.237 -1.279,0.191 c -0.288,0.042 -0.523,0.062 -0.741,0.062 -2.768,0 -5.019,-2.252 -5.019,-5.02 0,-2.768 2.251,-5.019997 5.019,-5.019997 0.217,0 0.453,0.02 0.743,0.062 l 1.277,0.188 0.376,-1.234998 c 1.28,-4.198 3.876,-7.781 7.251,-10.397 V 82.87427 c -4.419,2.827005 -7.916,7.010005 -9.74,12.040005 -4.379,0.052 -7.926,3.629998 -7.926,8.020995 0,4.391 3.547,7.969 7.926,8.019 z m 18.24,11.356 c 0,-0.876 0.252,-1.688 0.662,-2.397 0.657,-1.138 1.751,-1.985 3.064,-2.296 0.357,-0.085 0.725,-0.14 1.108,-0.14 0.383,0 0.751,0.056 1.108,0.14 1.312,0.31 2.406,1.158 3.063,2.296 0.409,0.709 0.662,1.521 0.662,2.397 0,0.375 -0.052,0.735 -0.134,1.086 -0.378,1.633 -1.584,2.935 -3.151,3.47 -0.489,0.167 -1.004,0.278 -1.549,0.278 -0.545,0 -1.06,-0.111 -1.549,-0.278 -1.567,-0.535 -2.774,-1.838 -3.151,-3.47 -0.08,-0.351 -0.133,-0.711 -0.133,-1.086 z m 4.834,-8.899 c 2.905,0 4.833,1.286 4.833,2.137 0,0.146 -0.076,0.307 -0.186,0.47 -1.302,-0.964 -2.906,-1.542 -4.647,-1.542 -1.741,0 -3.346,0.578 -4.648,1.542 -0.109,-0.163 -0.186,-0.324 -0.186,-0.471 0,-0.85 1.928,-2.136 4.834,-2.136 z"
           inkscape:connector-curvature="0" />
        <path
           style="fill:#ffffff"
           id="path4524"
           d="m 140.36115,105.89327 c 2.579,0 2.579,-4 0,-4 -2.579,0 -2.579,4 0,4 z"
           inkscape:connector-curvature="0" />
        <path
           style="fill:#ffffff"
           id="path4526"
           d="m 153.02815,105.64327 c 2.579,0 2.579,-4 0,-4 -2.579,0 -2.579,4 0,4 z"
           inkscape:connector-curvature="0" />
        <path
           style="fill:#ffffff"
           id="path4528"
           d="m 138.52815,91.602275 h 0.333 l 0.302,-0.141 c 2.751,-1.286 4.666,-2.289 6.017,-3.093 0.622,0.255 1.301,0.401 2.014,0.401 0.713,0 1.392,-0.146 2.014,-0.401 1.352,0.804 3.267,1.807 6.017,3.093 l 0.302,0.141 h 0.333 c 1.581,0 2.905,-1.061 3.338,-2.503 0.095,-0.318 0.162,-0.648 0.162,-0.997 v -2.075 -3.577005 -3.68 c 0,-1.93 -1.57,-3.5 -3.5,-3.5 h -0.333 l -0.302,0.141 c -1.685,0.787 -3.055,1.469 -4.179,2.065 -0.711,0.377 -1.315,0.717 -1.838,1.028 -0.464,-0.19 -0.966,-0.296 -1.485,-0.348 -0.177,-0.018 -0.348,-0.053 -0.529,-0.053 -0.181,0 -0.353,0.036 -0.529,0.054 -0.519,0.052 -1.021,0.157 -1.485,0.348 -0.524,-0.312 -1.127,-0.651 -1.838,-1.028 -1.124,-0.596 -2.494,-1.277 -4.179,-2.065 l -0.302,-0.144 h -0.333 c -1.93,0 -3.5,1.57 -3.5,3.5 v 3.13 3.457005 2.746 c 0,0.349 0.067,0.679 0.162,0.997 0.433,1.443 1.757,2.504 3.338,2.504 z m 8.234,-10.457005 c 0.141,-0.026 0.284,-0.044 0.432,-0.044 0.148,0 0.292,0.017 0.432,0.044 0.257,0.048 0.495,0.145 0.715,0.27 0.299,0.17 0.558,0.399 0.756,0.678 0.012,0.016 0.025,0.031 0.037,0.048 0.248,0.371 0.393,0.815 0.393,1.293 0,0.332 -0.072,0.647 -0.198,0.934005 -0.055,0.126 -0.12,0.247 -0.195,0.36 -0.163,0.244 -0.372,0.454 -0.613,0.622 -0.057,0.039 -0.119,0.07 -0.18,0.104 -0.34,0.194 -0.728,0.314 -1.147,0.314 -0.419,0 -0.807,-0.12 -1.148,-0.314 -0.06,-0.034 -0.122,-0.065 -0.179,-0.104 -0.241,-0.168 -0.45,-0.378 -0.613,-0.622 -0.076,-0.113 -0.14,-0.234 -0.195,-0.359 -0.126,-0.286005 -0.198,-0.602005 -0.198,-0.934005 0,-0.478 0.146,-0.923 0.394,-1.294 0.035,-0.052 0.078,-0.096 0.116,-0.144 0.186,-0.235 0.414,-0.432 0.676,-0.581 0.22,-0.126 0.458,-0.222 0.715,-0.271 z m 9.323,-2.824 c 0.164,0.083 0.276,0.252 0.276,0.447 v 2.167 3.293 3.873005 c 0,0.04 -0.023,0.072 -0.031,0.109 -0.035,0.145 -0.115,0.273 -0.245,0.338 -1.502,-0.713 -3.09,-1.524 -4.406,-2.25 0.081,-0.126 0.145,-0.263 0.215,-0.396 0.391,-0.741 0.634,-1.573 0.634,-2.468005 0,-0.238 -0.04,-0.465 -0.07,-0.694 -0.065,-0.493 -0.177,-0.971 -0.367,-1.412 -0.115,-0.266 -0.257,-0.516 -0.411,-0.757 0.149,-0.083 0.305,-0.166 0.461,-0.251 0.311,-0.168 0.629,-0.338 0.96,-0.51 0.965,-0.504 1.992,-1.018 2.984,-1.489 z m -18.057,2.216 v -1.769 c 0,-0.195 0.113,-0.365 0.276,-0.447 0.874,0.415 1.773,0.863 2.637,1.309 0.452,0.234 0.89,0.464 1.309,0.691 0.156,0.084 0.311,0.168 0.461,0.251 -0.155,0.241 -0.297,0.491 -0.411,0.757 -0.158,0.365 -0.268,0.752 -0.341,1.153 -0.056,0.31 -0.096,0.627 -0.096,0.953 0,0.895005 0.243,1.726005 0.634,2.468005 0.07,0.133 0.134,0.269 0.215,0.395 -1.316,0.726 -2.904,1.538 -4.406,2.251 -0.13,-0.066 -0.21,-0.193 -0.245,-0.338 -0.009,-0.037 -0.031,-0.069 -0.031,-0.109 v -4.340005 -3.225 z"
           inkscape:connector-curvature="0" />
      </g>
    </g>
  </g>
</svg>
