<?xml version="1.0" encoding="UTF-8" standalone="no"?>
<!-- Created with Inkscape (http://www.inkscape.org/) -->

<svg
   xmlns:dc="http://purl.org/dc/elements/1.1/"
   xmlns:cc="http://creativecommons.org/ns#"
   xmlns:rdf="http://www.w3.org/1999/02/22-rdf-syntax-ns#"
   xmlns:svg="http://www.w3.org/2000/svg"
   xmlns="http://www.w3.org/2000/svg"
   xmlns:sodipodi="http://sodipodi.sourceforge.net/DTD/sodipodi-0.dtd"
   xmlns:inkscape="http://www.inkscape.org/namespaces/inkscape"
   width="300px"
   height="191px"
   id="svg2985"
   version="1.1"
   inkscape:version="0.48.4 r9939"
   sodipodi:docname="13novariable.svg"
   inkscape:export-filename="/home/rdevera/workspacephpnew/catbibips15/prestashop16/modules/giftcard/datadefault/template/11novariable_fr.png"
   inkscape:export-xdpi="243.6996"
   inkscape:export-ydpi="243.6996">
  <defs
     id="defs3">
    <filter
       id="filter8109"
       inkscape:label="Fancy blur"
       inkscape:menu="Blurs"
       inkscape:menu-tooltip="Smooth colorized contour which allows desaturation and hue rotation"
       color-interpolation-filters="sRGB">
      <feGaussianBlur
         id="feGaussianBlur8111"
         stdDeviation="5"
         result="result1" />
      <feComposite
         k4="0"
         k3="0"
         k1="0"
         id="feComposite8113"
         in2="result1"
         operator="arithmetic"
         k2="2"
         in="result1" />
    </filter>
  </defs>
  <sodipodi:namedview
     id="base"
     pagecolor="#ffffff"
     bordercolor="#666666"
     borderopacity="1.0"
     inkscape:pageopacity="0.0"
     inkscape:pageshadow="2"
     inkscape:zoom="1.6970563"
     inkscape:cx="-25.96383"
     inkscape:cy="81.802208"
     inkscape:document-units="mm"
     inkscape:current-layer="var_color1"
     showgrid="false"
     inkscape:window-width="1920"
     inkscape:window-height="1014"
     inkscape:window-x="0"
     inkscape:window-y="27"
     inkscape:window-maximized="1">
    <inkscape:grid
       type="xygrid"
       id="grid6082" />
  </sodipodi:namedview>
  <metadata
     id="metadata2989">
    <rdf:RDF>
      <cc:Work
         rdf:about="">
        <dc:format>image/svg+xml</dc:format>
        <dc:type
           rdf:resource="http://purl.org/dc/dcmitype/StillImage" />
        <dc:title></dc:title>
      </cc:Work>
    </rdf:RDF>
  </metadata>
  <g
     inkscape:label="Layer 1"
     inkscape:groupmode="layer"
     id="layer1">
    <g
       id="var_color1"
       style="fill:#996600"
       transform="translate(-2.0833333,2.0833333)">
      <path
         inkscape:connector-curvature="0"
         d="m 174.68434,148.18624 c -1.1157,-1.072 -11.60993,-26.89887 -11.60993,-26.89887 l -9.90874,-1.24109 -5.91728,6.14804 -7.44906,-5.87047 -6.9041,-0.52962 -22.30301,-16.47878 c 1.18935,-0.79443 1.92211,-1.75476 2.10253,-2.82676 0.27985,-1.668619 -0.69593,-3.522283 -2.91261,-5.509947 l -0.56705,-0.510475 -0.56706,0.510475 c -0.475,0.421142 -0.94264,0.835904 -1.40291,1.237903 -1.12675,-0.870999 -3.74479,-2.561949 -7.12135,-2.447092 l -0.438183,0.01914 -0.22093,0.331809 c -3.910485,5.998087 -18.444075,14.574077 -20.141563,15.563127 -0.651747,0.20419 -1.369773,0.59342 -2.135668,1.27937 -2.76164,2.479 -2.312413,6.25652 -0.721708,8.7068 1.366091,2.11209 3.479666,3.31809 5.718435,3.31809 0.38663,0 0.784306,-0.0383 1.1783,-0.11166 1.097292,-0.20738 1.93683,-0.68915 2.584895,-1.33362 1.07888,-0.96033 6.469601,-5.71095 11.628345,-9.64161 0.533914,0.54876 1.969974,2.12486 2.548077,3.7839 0.73275,2.05148 1.04942,5.20366 1.04942,5.20366 l 1.1783,-2.22376 1.71222,0.46581 c 0,0 -0.25039,-2.86504 -1.23722,-4.52409 -0.98682,-1.65904 -2.36764,-3.36594 -2.36764,-3.36594 0,0 2.54807,1.11666 4.01358,2.50452 1.45815,1.39742 2.78742,4.21142 2.78742,4.21142 l 0.97209,-1.64309 2.5849,-0.52643 22.03052,18.36116 c -0.21357,11.86218 -0.79535,40.11062 -0.93159,42.261 -0.19148,2.99585 -10.12602,4.7538 -8.25547,7.65075 0.7254,1.01138 5.6853,1.03371 12.05548,0.91247 v 2.00362 h 9.6952 v -2.18228 c 0.29089,-0.003 0.58179,-0.006 0.87268,-0.01 1.03838,-0.006 2.07675,-0.01 3.11145,-0.006 v 2.19824 h 9.70254 v -2.11847 c 5.42018,0.0447 9.4043,-0.006 9.86458,-0.59024 1.5502,-1.96533 -6.72368,-4.39647 -6.84519,-7.40828 -0.0847,-2.19504 -1.01628,-25.19515 -1.52442,-37.638 l 0.0773,-0.19143 3.57909,12.82252 c 0,0 1.10465,-0.33819 2.58857,-0.81038 l 0.99051,2.23333 6.01301,-1.99405 -0.99419,-2.2429 c 1.15621,-0.42115 1.94052,-0.75615 1.83741,-0.85186 z m -88.048423,-37.41466 -0.729073,0.14676 0.125194,0.6381 c 0.515506,2.52047 0.972097,9.23003 -3.012028,9.98936 -2.32346,0.44986 -4.205057,-1.01457 -5.180837,-2.53961 -1.310858,-2.02595 -1.719581,-5.11433 0.486049,-7.09561 1.104656,-0.99543 2.106211,-1.273 2.989935,-0.84229 0.578104,0.28395 1.067834,0.81995 1.432371,1.43572 -0.578103,0.48814 -1.789543,1.46123 -4.009901,3.10113 l -0.35349,0.26162 0.08837,0.39562 c 0.58915,2.53962 2.194583,2.85866 2.853695,2.87462 1.542836,0.0319 3.004664,-1.19643 3.608543,-3.09795 0.515506,-1.61757 -0.478685,-4.9899 -2.846331,-6.16399 -0.05891,-0.0287 -0.110465,-0.0574 -0.173062,-0.0766 2.062024,-1.23791 5.501186,-3.39148 8.962442,-5.88004 1.402913,0.22971 3.244006,0.74338 4.39653,1.9079 -6.127158,4.33266 -8.60527,4.93885 -8.638409,4.94523 z m -3.302922,3.13942 c 0.187792,0.68276 0.220932,1.33043 0.08101,1.76752 -0.430816,1.37191 -1.347681,2.09614 -2.006792,2.09614 -0.01105,0 -0.01841,0 -0.02946,-0.003 -0.52287,-0.016 -0.975779,-0.52961 -1.251943,-1.39423 1.535472,-1.139 2.551755,-1.93981 3.207184,-2.46624 z m 4.315523,4.21781 c 0.526553,-2.43114 0.220931,-5.08881 0.04419,-6.24057 1.152525,-0.42433 3.78897,-1.62076 8.428525,-4.89099 0.703298,1.2379 1.016284,2.4439 1.148842,3.32128 -3.468619,2.60343 -7.132395,5.67266 -9.621553,7.81028 z M 94.60785,101.0885 c 2.478112,-1.997239 4.676377,-4.064665 5.99829,-5.953424 2.5407,0.05424 4.59168,1.35276 5.51959,2.061045 -2.73954,2.376901 -5.14769,4.339039 -7.253903,5.962989 -1.366096,-1.4708 -2.971529,-1.95576 -4.263977,-2.07061 z m 5.169787,3.20323 c 2.651183,-2.04509 5.769993,-4.607041 9.422723,-7.84537 1.46551,1.454855 2.11726,2.740615 1.93315,3.84133 -0.15466,0.92204 -0.91687,1.72604 -2.26455,2.39285 l -0.52287,-1.73242 -5.40545,3.04052 0.59283,1.9749 c -0.74748,0.48814 -1.53179,1.005 -2.33818,1.55376 -0.0111,-0.62853 -0.22094,-1.53462 -1.417653,-3.22557 z m 5.876773,7.3987 c -0.92791,-0.56471 -3.48335,-1.99404 -4.18664,-2.61618 0.23934,-0.16591 0.47132,-0.32224 0.70698,-0.48176 l 5.22134,4.3518 c -0.7438,-0.56152 -1.41396,-1.04966 -1.74168,-1.25386 z m 25.24507,-22.298203 h -7.16921 v -2.833139 h 47.24979 v 2.836329 h -2.1283 v 6.540468 h 1.15989 v 5.532275 h -5.43123 v -5.532275 h 1.74904 v -6.543658 h -3.48703 v 9.226844 l -1.0126,0.274381 c 0.74012,1.601618 1.17094,3.340428 1.17094,5.168568 0,7.67308 -7.18393,13.8945 -16.03959,13.8945 -8.84829,0 -16.03224,-6.22142 -16.03224,-13.8945 0,-1.81857 0.43082,-3.54781 1.16357,-5.139854 l -1.19303,-0.303095 v -9.226844 z"
         id="path3683"
         style="fill:#ffffff;"
         inkscape:export-filename="/home/rdevera/workspacephpnew/catbibips15/prestashop16/modules/giftcard/datadefault/template/13novariable_fr.png"
         inkscape:export-xdpi="243"
         inkscape:export-ydpi="243" />
      <rect
         style="fill:#a71150;fill-opacity:1;stroke:#ff3d7f;stroke-width:1.98298811999999991"
         id="rect4099"
         width="297.16046"
         height="188.58302"
         x="3.7114422"
         y="-0.28855756"
         ry="9.8954525"
         inkscape:export-filename="/home/rdevera/workspacephpnew/catbibips15/prestashop16/modules/giftcard/datadefault/template/13novariable_fr.png"
         inkscape:export-xdpi="243.6996"
         inkscape:export-ydpi="243.6996" />
      <text
         xml:space="preserve"
         style="font-size:48px;font-style:normal;font-variant:normal;font-weight:normal;font-stretch:normal;line-height:125%;letter-spacing:0px;word-spacing:0px;fill:#ffffff;fill-opacity:1;stroke:#ffffff;stroke-width:1;font-family:Bebas Neue;-inkscape-font-specification:Bebas Neue"
         x="160.77008"
         y="47.066113"
         id="text4101"
         sodipodi:linespacing="125%"
         transform="scale(0.94409602,1.0592143)"
         inkscape:export-filename="/home/rdevera/workspacephpnew/catbibips15/prestashop16/modules/giftcard/datadefault/template/13novariable_fr.png"
         inkscape:export-xdpi="243.6996"
         inkscape:export-ydpi="243.6996"><tspan
           sodipodi:role="line"
           x="160.77008"
           y="47.066113"
           id="tspan4303"
           style="font-size:48px;text-align:center;text-anchor:middle;fill:#ffffff;stroke:#ffffff;stroke-width:1">BONNE Fête</tspan></text>
      <g
         transform="matrix(4.2578951,0,0,2.7846043,52.673836,85.42075)"
         id="g3620"
         style="fill:#ff3d7f">
        <path
           inkscape:connector-curvature="0"
           d="m 45.287,27.444 c -2.035,-0.88 -3.656,0.337 -5.537,1.743 -0.382,0.286 -0.761,0.602 -1.142,0.918 0.271,-0.921 0.141,-1.861 -0.414,-2.756 0.046,-0.059 0.104,-0.104 0.143,-0.169 0.186,-0.334 0.227,-0.72 0.121,-1.082 -0.212,-0.736 -1.027,-1.188 -1.764,-0.975 -0.754,0.219 -1.19,1.011 -0.975,1.768 0.178,0.604 0.738,1.024 1.367,1.024 0.135,0 0.268,-0.019 0.396,-0.056 0.023,-0.007 0.041,-0.024 0.063,-0.032 0.722,1.219 0.444,2.526 -0.795,3.719 -0.095,0.064 -0.188,0.135 -0.285,0.195 -0.028,0.018 -0.062,0.035 -0.091,0.055 -1.146,0.703 -2.379,1.088 -3.896,0.686 -0.896,-0.238 -1.615,-0.785 -2.09,-1.533 2.102,-1.105 3.612,-2.947 4.362,-5.068 0.042,-0.051 0.088,-0.103 0.101,-0.172 0.399,-2.362 2.592,-3.971 4.885,-3.584 0.219,0.04 0.425,-0.109 0.462,-0.328 0.036,-0.218 -0.11,-0.424 -0.328,-0.461 -1.769,-0.3 -3.47,0.399 -4.585,1.68 0.025,-1.22 -0.188,-2.463 -0.676,-3.663 0.66,-0.212 1.394,-0.564 1.201,-1.891 -0.084,-0.588 -0.606,-1.057 0.043,-2.731 0,0 -1.106,0.139 -1.817,1.162 -0.345,-1.005 -1.17,-1.187 -1.08,-2.285 0,0 -1.901,1.068 -0.838,2.959 -1.203,-0.413 -2.193,0.161 -2.193,0.161 1.529,0.94 1.398,1.63 1.687,2.149 0.697,1.259 1.568,0.98 2.244,0.729 0.002,0.005 0.002,0.01 0.004,0.014 1.438,3.492 0.345,7.405 -2.43,9.688 0.641,-1.101 0.859,-2.406 0.551,-3.683 0.519,-0.479 1.18,-1.469 -0.588,-2.505 -0.354,-0.21 -1.151,-0.631 -1.619,-1.455 0,0 -1.186,4.414 1.466,4.27 0.311,1.467 -0.203,2.979 -1.306,3.993 -0.222,-0.842 -0.168,-1.776 0.172,-2.665 0.08,-0.206 -0.022,-0.438 -0.229,-0.517 -0.083,-0.031 -0.167,-0.027 -0.246,-0.008 -0.165,-0.01 -0.325,0.08 -0.396,0.242 -0.676,1.639 -1.948,2.915 -3.586,3.596 -0.114,0.047 -0.231,0.084 -0.349,0.125 v -2.55 c 0.73,-0.09 1.408,-0.42 1.929,-0.979 0.604,-0.645 0.931,-1.494 0.922,-2.396 l -0.016,-1.67 -0.555,0.242 c -0.025,0.011 -2.698,1.155 -4.327,0.058 -0.183,-0.123 -0.433,-0.076 -0.556,0.107 -0.123,0.184 -0.075,0.432 0.107,0.556 1.502,1.011 3.561,0.536 4.541,0.218 l 0.004,0.497 c 0.006,0.695 -0.244,1.349 -0.707,1.843 -0.455,0.488 -1.062,0.76 -1.708,0.766 -0.009,0 -0.016,0 -0.021,0 -0.641,0 -1.244,-0.262 -1.704,-0.736 -0.469,-0.484 -0.731,-1.136 -0.735,-1.831 l -0.022,-2.788 c -0.003,-0.266 0.233,-0.545 0.651,-0.766 0.504,-0.269 1.197,-0.42 1.949,-0.426 1.224,0.021 2.046,0.503 2.05,0.854 -0.041,0.209 -0.97,0.748 -2.007,0.757 -0.015,0 -0.027,0 -0.041,0 -0.844,0 -1.437,-0.203 -1.508,-0.238 0.047,-0.146 0.544,-0.517 1.432,-0.475 0.524,0.021 0.839,0.172 0.958,0.308 0.146,0.167 0.398,0.183 0.564,0.035 0.166,-0.146 0.182,-0.398 0.035,-0.564 -0.307,-0.347 -0.85,-0.552 -1.527,-0.578 -0.805,-0.032 -1.521,0.193 -1.943,0.603 -0.209,0.203 -0.317,0.431 -0.315,0.657 0.01,1.041 2.121,1.05 2.354,1.053 1.145,-0.01 2.807,-0.621 2.801,-1.558 -0.009,-0.946 -1.214,-1.653 -2.813,-1.653 -0.015,0 -0.029,10e-4 -0.043,10e-4 -0.879,0.007 -1.703,0.191 -2.318,0.519 -0.699,0.372 -1.084,0.897 -1.078,1.476 l 0.022,2.792 c 0.009,0.901 0.351,1.746 0.964,2.38 0.51,0.529 1.161,0.845 1.862,0.938 v 2.525 c -0.092,-0.033 -0.187,-0.062 -0.276,-0.1 -1.636,-0.681 -2.908,-1.957 -3.584,-3.595 -0.002,-0.002 -0.002,-0.004 -0.002,-0.006 -0.08,-0.207 -0.309,-0.31 -0.518,-0.229 -0.162,0.062 -0.256,0.217 -0.252,0.381 -0.001,0.016 0.006,0.029 0.007,0.045 0.004,0.029 0.004,0.061 0.017,0.091 0.352,0.916 0.391,1.878 0.145,2.739 -1.162,-1.012 -1.719,-2.562 -1.398,-4.067 2.647,0.146 1.463,-4.27 1.463,-4.27 -0.465,0.824 -1.263,1.245 -1.617,1.455 -1.768,1.036 -1.104,2.025 -0.586,2.505 -0.312,1.281 -0.09,2.592 0.558,3.693 -1.058,-0.863 -1.892,-1.979 -2.429,-3.273 -0.861,-2.07 -0.864,-4.354 -0.008,-6.425 0.002,-0.005 0,-0.01 0.002,-0.015 0.678,0.252 1.547,0.529 2.244,-0.729 0.287,-0.52 0.153,-1.209 1.687,-2.149 0,0 -0.99,-0.574 -2.192,-0.161 1.063,-1.891 -0.839,-2.959 -0.839,-2.959 0.091,1.099 -0.735,1.28 -1.08,2.285 -0.711,-1.023 -1.817,-1.162 -1.817,-1.162 0.647,1.675 0.127,2.144 0.043,2.731 -0.19,1.326 0.541,1.68 1.199,1.891 -0.479,1.179 -0.703,2.418 -0.678,3.654 -0.247,-0.282 -0.518,-0.546 -0.826,-0.771 -1.099,-0.804 -2.433,-1.123 -3.755,-0.899 -0.218,0.037 -0.364,0.243 -0.327,0.461 0.035,0.217 0.233,0.363 0.461,0.328 1.106,-0.188 2.228,0.081 3.148,0.756 0.925,0.678 1.54,1.682 1.732,2.827 0.013,0.066 0.057,0.113 0.095,0.164 0.057,0.16 0.106,0.322 0.173,0.48 0.844,2.031 2.354,3.652 4.291,4.645 -0.475,0.723 -1.184,1.252 -2.059,1.485 -1.506,0.399 -2.726,0.028 -3.855,-0.659 -0.051,-0.031 -0.102,-0.061 -0.152,-0.091 -0.088,-0.056 -0.174,-0.118 -0.26,-0.179 -1.244,-1.192 -1.521,-2.504 -0.802,-3.725 0.022,0.008 0.041,0.025 0.063,0.032 0.131,0.037 0.264,0.056 0.396,0.056 h 10e-4 c 0.628,0 1.189,-0.42 1.368,-1.026 0.216,-0.755 -0.222,-1.547 -0.976,-1.766 -0.738,-0.212 -1.553,0.239 -1.764,0.974 -0.105,0.363 -0.064,0.749 0.12,1.083 0.036,0.065 0.097,0.11 0.142,0.169 -0.554,0.895 -0.684,1.835 -0.412,2.756 C 11.01,29.792 10.631,29.476 10.249,29.19 8.368,27.784 6.743,26.566 4.712,27.448 4.51,27.536 4.416,27.771 4.504,27.973 c 0.088,0.203 0.325,0.294 0.526,0.208 1.287,-0.56 2.353,-0.062 3.848,0.998 -1.059,-0.06 -2.023,0.344 -2.792,1.229 -0.146,0.168 -0.126,0.42 0.041,0.564 0.075,0.064 0.169,0.098 0.263,0.098 0.111,0 0.223,-0.047 0.303,-0.139 1.029,-1.189 2.479,-1.284 4.078,-0.268 0.022,0.016 0.049,0.021 0.074,0.029 0.049,0.04 0.098,0.075 0.146,0.115 0.076,0.064 0.156,0.131 0.236,0.195 -0.229,0.01 -0.457,0.052 -0.688,0.127 -0.033,-0.067 -0.055,-0.141 -0.104,-0.201 -0.248,-0.307 -0.644,-0.446 -0.959,-0.446 -0.002,0 -0.004,0 -0.006,0 -0.666,0.048 -1.193,0.327 -1.572,0.833 -1.071,1.436 -0.478,4.238 -0.449,4.357 l 0.154,0.718 0.521,-0.521 c 0.685,-0.688 1.133,-0.92 1.601,-1.055 1.203,-0.352 2.277,-0.77 2.221,-2.023 -0.021,-0.437 -0.164,-0.744 -0.36,-0.977 0.651,0.088 1.349,0.482 2.147,0.989 0.062,0.038 0.127,0.053 0.191,0.056 0.733,0.352 1.522,0.583 2.396,0.583 0.445,0 0.914,-0.06 1.404,-0.188 1.108,-0.297 2.004,-0.982 2.582,-1.922 0.902,0.367 1.852,0.555 2.799,0.554 0.615,0 1.229,-0.087 1.834,-0.241 0.603,0.154 1.216,0.242 1.832,0.241 0.961,0 1.924,-0.188 2.838,-0.565 0.021,-0.01 0.037,-0.021 0.059,-0.027 0.577,0.961 1.482,1.66 2.609,1.961 0.49,0.132 0.957,0.189 1.402,0.189 0.873,0 1.662,-0.23 2.396,-0.583 0.065,-0.004 0.133,-0.019 0.19,-0.056 0.801,-0.508 1.498,-0.9 2.148,-0.989 -0.196,0.231 -0.342,0.54 -0.361,0.976 -0.058,1.256 1.018,1.674 2.223,2.025 0.467,0.135 0.916,0.364 1.6,1.053 l 0.52,0.521 0.155,-0.719 c 0.026,-0.118 0.622,-2.922 -0.45,-4.356 -0.377,-0.506 -0.906,-0.786 -1.623,-0.835 -0.267,0 -0.664,0.141 -0.914,0.448 -0.049,0.062 -0.067,0.134 -0.103,0.2 -0.229,-0.075 -0.46,-0.117 -0.688,-0.125 0.078,-0.065 0.158,-0.131 0.236,-0.196 0.049,-0.04 0.096,-0.076 0.145,-0.116 0.025,-0.009 0.054,-0.014 0.076,-0.027 1.601,-1.02 3.047,-0.924 4.078,0.267 0.078,0.092 0.189,0.14 0.303,0.14 0.094,0 0.188,-0.033 0.263,-0.099 0.167,-0.146 0.187,-0.397 0.041,-0.563 -0.771,-0.888 -1.731,-1.291 -2.793,-1.229 1.496,-1.062 2.562,-1.56 3.849,-0.999 0.2,0.086 0.438,-0.006 0.526,-0.208 0.087,-0.204 -0.007,-0.441 -0.209,-0.53 z m -7.649,-0.649 c -0.082,0.146 -0.214,0.252 -0.375,0.299 -0.324,0.093 -0.681,-0.104 -0.771,-0.424 -0.098,-0.332 0.097,-0.682 0.428,-0.776 0.059,-0.017 0.115,-0.024 0.174,-0.024 0.275,0 0.521,0.187 0.6,0.453 0.041,0.157 0.023,0.325 -0.056,0.472 z M 12.31,26.319 c 0.076,-0.266 0.322,-0.452 0.6,-0.452 0.059,0 0.115,0.01 0.174,0.025 0.331,0.096 0.521,0.443 0.43,0.773 -0.096,0.321 -0.445,0.521 -0.775,0.426 C 12.58,27.044 12.448,26.94 12.367,26.792 12.282,26.648 12.263,26.48 12.31,26.319 z M 9.5,34.049 C 9.005,34.193 8.574,34.42 8.117,34.793 8.013,33.871 8,32.518 8.541,31.795 8.775,31.481 9.1,31.313 9.523,31.281 c 0.047,0 0.207,0.047 0.293,0.153 0.014,0.017 0.004,0.042 0.012,0.062 -0.414,0.289 -0.826,0.717 -1.229,1.342 -0.119,0.188 -0.063,0.435 0.121,0.554 0.066,0.043 0.143,0.063 0.217,0.063 0.131,0 0.26,-0.065 0.336,-0.186 0.354,-0.553 0.699,-0.926 1.049,-1.159 0.016,-0.002 0.048,-0.006 0.104,-0.006 0.615,0 0.704,0.413 0.719,0.724 0.022,0.506 -0.208,0.803 -1.645,1.221 z M 21.422,30.86 c -0.028,-0.022 -0.058,-0.047 -0.094,-0.062 -0.222,-0.086 -0.425,-0.199 -0.623,-0.315 0.153,-0.437 0.262,-0.89 0.283,-1.358 0.653,0.81 1.475,1.471 2.42,1.947 -0.665,0.032 -1.332,-0.039 -1.986,-0.212 z m 7.125,-0.059 c -0.036,0.014 -0.065,0.037 -0.095,0.061 -0.652,0.174 -1.319,0.243 -1.985,0.213 1.009,-0.511 1.87,-1.23 2.544,-2.115 0.006,0.51 0.104,1.002 0.264,1.474 -0.229,0.138 -0.469,0.265 -0.728,0.367 z m 11.025,1.303 c 0.059,0 0.093,0.004 0.104,0.006 0.349,0.233 0.694,0.606 1.048,1.159 0.076,0.119 0.205,0.186 0.338,0.186 0.074,0 0.147,-0.021 0.215,-0.063 0.188,-0.119 0.24,-0.366 0.121,-0.554 -0.399,-0.625 -0.812,-1.053 -1.228,-1.344 0.009,-0.018 -0.002,-0.043 0.013,-0.06 0.086,-0.106 0.244,-0.153 0.287,-0.153 0.428,0.03 0.752,0.198 0.987,0.514 0.539,0.72 0.526,2.074 0.423,2.996 -0.457,-0.371 -0.886,-0.6 -1.381,-0.742 -1.438,-0.418 -1.669,-0.715 -1.646,-1.221 0.015,-0.309 0.104,-0.724 0.719,-0.724 z"
           id="path3622"
           style="fill:#ff3d7f" />
      </g>
      <text
         xml:space="preserve"
         style="font-size:48px;font-style:normal;font-variant:normal;font-weight:normal;font-stretch:normal;line-height:125%;letter-spacing:0px;word-spacing:0px;fill:#ffffff;fill-opacity:1;stroke:none;font-family:Bebas Neue;-inkscape-font-specification:Bebas Neue"
         x="117.42741"
         y="91.202721"
         id="text3546"
         sodipodi:linespacing="125%"
         transform="matrix(0.8865089,0.00318269,-0.00478102,1.1280031,0,0)"
         inkscape:transform-center-x="72.060385"
         inkscape:transform-center-y="7.3108961"><tspan
           sodipodi:role="line"
           id="tspan3548"
           x="117.42741"
           y="91.202721">MAMAN</tspan></text>
      <text
         xml:space="preserve"
         style="font-size:40px;font-style:normal;font-variant:normal;font-weight:normal;font-stretch:normal;line-height:125%;letter-spacing:0px;word-spacing:0px;fill:#ff3d7f;fill-opacity:1;stroke:none;font-family:Bebas Neue;-inkscape-font-specification:Bebas Neue"
         x="-154.18336"
         y="30.030653"
         id="text3550"
         sodipodi:linespacing="125%"
         transform="matrix(-0.00441474,-0.99999025,0.99999025,-0.00441474,0,0)"><tspan
           sodipodi:role="line"
           id="tspan3552"
           x="-154.18336"
           y="30.030653"
           style="font-size:28px;fill:#ff3d7f">Carte CADEAU</tspan></text>
      <text
         transform="matrix(-0.00124035,0.99999923,-0.99999923,-0.00124035,0,0)"
         sodipodi:linespacing="125%"
         id="text3651"
         y="-276.92725"
         x="28.215065"
         style="font-size:40px;font-style:normal;font-variant:normal;font-weight:normal;font-stretch:normal;line-height:125%;letter-spacing:0px;word-spacing:0px;fill:#ff3d7f;fill-opacity:1;stroke:none;font-family:Bebas Neue;-inkscape-font-specification:Bebas Neue"
         xml:space="preserve"><tspan
           style="font-size:28px;fill:#ff3d7f"
           y="-276.92725"
           x="28.215065"
           id="tspan3653"
           sodipodi:role="line">Carte CADEAU</tspan></text>
    </g>
  </g>
</svg>
