<?xml version="1.0" encoding="UTF-8" standalone="no"?>
<!-- Created with Inkscape (http://www.inkscape.org/) -->

<svg
   xmlns:dc="http://purl.org/dc/elements/1.1/"
   xmlns:cc="http://creativecommons.org/ns#"
   xmlns:rdf="http://www.w3.org/1999/02/22-rdf-syntax-ns#"
   xmlns:svg="http://www.w3.org/2000/svg"
   xmlns="http://www.w3.org/2000/svg"
   xmlns:sodipodi="http://sodipodi.sourceforge.net/DTD/sodipodi-0.dtd"
   xmlns:inkscape="http://www.inkscape.org/namespaces/inkscape"
   width="300px"
   height="191px"
   id="svg2985"
   version="1.1"
   inkscape:version="0.48.4 r9939"
   sodipodi:docname="2.svg"
   inkscape:export-filename="/home/rdevera/workspacephpnew/catbibips15/prestashop/modules/giftcard/logo.png"
   inkscape:export-xdpi="15.423112"
   inkscape:export-ydpi="15.423112">
  <defs
     id="defs3" />
  <sodipodi:namedview
     id="base"
     pagecolor="#ffffff"
     bordercolor="#666666"
     borderopacity="1.0"
     inkscape:pageopacity="0.0"
     inkscape:pageshadow="2"
     inkscape:zoom="3.3941126"
     inkscape:cx="199.31824"
     inkscape:cy="105.98566"
     inkscape:document-units="mm"
     inkscape:current-layer="layer1"
     showgrid="false"
     inkscape:window-width="1920"
     inkscape:window-height="1041"
     inkscape:window-x="1920"
     inkscape:window-y="0"
     inkscape:window-maximized="1">
    <inkscape:grid
       type="xygrid"
       id="grid6082" />
  </sodipodi:namedview>
  <metadata
     id="metadata2989">
    <rdf:RDF>
      <cc:Work
         rdf:about="">
        <dc:format>image/svg+xml</dc:format>
        <dc:type
           rdf:resource="http://purl.org/dc/dcmitype/StillImage" />
        <dc:title></dc:title>
      </cc:Work>
    </rdf:RDF>
  </metadata>
  <g
     inkscape:label="Layer 1"
     inkscape:groupmode="layer"
     id="layer1">
    <path
       style="fill:#ff3d7f;fill-opacity:0.97674417000000002;fill-rule:nonzero;stroke:none"
       d="M 15.932032,0.3047849 286.79914,0.02783276 c 8.20002,-0.0086075 14.80801,8.24344034 14.8161,18.50185624 l 0.12178,154.027721 c 0.008,10.25834 -6.58682,18.52365 -14.78683,18.53213 L 16.083064,191.3664 C 7.8830368,191.37541 1.2750494,183.1229 1.2669398,172.86448 L 1.1451822,18.836894 C 1.137114,8.578502 7.7320077,0.3131668 15.932032,0.3047849 z"
       id="var_color1"
       inkscape:connector-curvature="0" />
    <path
       style="opacity:0.57999998;fill:#ffffff;fill-opacity:0.97674417;fill-rule:nonzero;stroke:none"
       d="m 47.395833,-23.28125 c -16.024748,0 -30.888392,4.431508 -43.1249997,11.96875 l 4.0625,13.5625 -5,5 -5,10 0,77.78125 c 13.2148907,9.98854 30.3419887,16.03125 49.0624997,16.03125 41.812233,0 75.687497,-30.089284 75.687497,-67.1875 0,-37.0982153 -33.875264,-67.15625 -75.687497,-67.15625 z"
       id="path29925"
       inkscape:connector-curvature="0" />
    <path
       style="opacity:0.57999998;fill:#ffffff;fill-opacity:0.97674417;fill-rule:nonzero;stroke:none"
       d="m 143.86085,32.888861 c -0.0301,4.881144 -3.50483,8.810014 -7.76074,8.775361 -4.25593,-0.0347 -7.68156,-4.019681 -7.65135,-8.900823 0.0301,-4.881152 3.50481,-8.809998 7.76075,-8.775354 4.25592,0.0347 7.68154,4.019672 7.65134,8.900816 z"
       id="path29947"
       inkscape:connector-curvature="0" />
    <path
       style="opacity:0.57999998;fill:#ffffff;fill-opacity:0.97674417;fill-rule:nonzero;stroke:none"
       d="m 137.01632,12.209884 c -0.0301,4.881144 -3.5048,8.810013 -7.76072,8.77536 -4.25593,-0.0347 -7.68156,-4.019681 -7.65134,-8.900823 0.0301,-4.8811434 3.5048,-8.8099987 7.76072,-8.7753618 4.25594,0.034691 7.68157,4.0196818 7.65134,8.9008248 z"
       id="path29947-9"
       inkscape:connector-curvature="0" />
    <path
       style="opacity:0.57999998;fill:#ffffff;fill-opacity:0.97674417;fill-rule:nonzero;stroke:none"
       d="m 145.5567,57.734755 c -0.0301,4.881135 -3.50482,8.809998 -7.76076,8.775353 -4.25592,-0.03469 -7.68153,-4.019681 -7.65134,-8.900825 0.0301,-4.881143 3.50481,-8.810006 7.76075,-8.775352 4.25591,0.0347 7.68155,4.019672 7.65135,8.900824 z"
       id="path29947-2"
       inkscape:connector-curvature="0" />
    <path
       style="opacity:0.57999998;fill:#ffffff;fill-opacity:0.97674417;fill-rule:nonzero;stroke:none"
       inkscape:transform-center-x="-7.8310638"
       inkscape:transform-center-y="-20.138623"
       d="m 141.02822,77.900259 c -0.0301,4.881143 -3.50481,8.810014 -7.76075,8.775362 -4.25594,-0.0347 -7.68154,-4.019691 -7.65135,-8.900826 0.0301,-4.881152 3.50482,-8.810005 7.76076,-8.77536 4.25592,0.0347 7.68155,4.019672 7.65134,8.900824 z"
       id="path29947-3"
       inkscape:connector-curvature="0" />
    <path
       style="opacity:0.57999998;fill:#ffffff;fill-opacity:0.97674417;fill-rule:nonzero;stroke:none"
       d="m 132.83453,99.719473 c -0.0301,4.881137 -3.50481,8.809997 -7.76073,8.775347 -4.25593,-0.0346 -7.68156,-4.01968 -7.65134,-8.90082 0.0301,-4.881142 3.50479,-8.810005 7.76073,-8.775351 4.25592,0.0347 7.68154,4.019665 7.65134,8.900824 z"
       id="path29947-4"
       inkscape:connector-curvature="0" />
    <path
       style="opacity:0.57999998;fill:#ffffff;fill-opacity:0.97674417;fill-rule:nonzero;stroke:none"
       d="m 120.97393,113.93294 c -0.0302,4.88112 -3.50481,8.81 -7.76074,8.77533 -4.25594,-0.0346 -7.68155,-4.01968 -7.65135,-8.90081 0.0301,-4.88115 3.50482,-8.81001 7.76075,-8.77536 4.25592,0.0347 7.68156,4.01967 7.65134,8.90084 z"
       id="path29947-0"
       inkscape:connector-curvature="0" />
    <path
       style="opacity:0.57999998;fill:#ffffff;fill-opacity:0.97674417;fill-rule:nonzero;stroke:none"
       d="m 101.07505,127.23918 c -0.0302,4.88113 -3.504821,8.80998 -7.760745,8.77535 -4.25593,-0.0346 -7.681553,-4.01968 -7.651341,-8.90082 0.03027,-4.88115 3.50481,-8.81001 7.760742,-8.77536 4.255924,0.0346 7.681554,4.01967 7.651344,8.90083 z"
       id="path29947-6"
       inkscape:connector-curvature="0" />
    <path
       style="opacity:0.57999998;fill:#ffffff;fill-opacity:0.97674417;fill-rule:nonzero;stroke:none"
       d="m 79.016114,133.79371 c -0.0302,4.88116 -3.504811,8.81002 -7.760735,8.77537 -4.255931,-0.0346 -7.681546,-4.01968 -7.65134,-8.90082 0.0302,-4.88115 3.504802,-8.81001 7.760735,-8.77536 4.255921,0.0346 7.681552,4.01968 7.65134,8.90081 z"
       id="path29947-69"
       inkscape:connector-curvature="0" />
    <path
       style="opacity:0.57999998;fill:#ffffff;fill-opacity:0.97674417;fill-rule:nonzero;stroke:none"
       d="m 59.93449,133.63838 c -0.0302,4.88116 -3.50481,8.81002 -7.760735,8.77536 -4.255933,-0.0347 -7.681551,-4.01966 -7.651343,-8.9008 0.03021,-4.88118 3.504805,-8.81003 7.760737,-8.77538 4.255926,0.0346 7.68155,4.01968 7.651341,8.90082 z"
       id="path29947-1"
       inkscape:connector-curvature="0" />
    <path
       style="opacity:0.57999998;fill:#ffffff;fill-opacity:0.97674417;fill-rule:nonzero;stroke:none"
       d="m 37.20937,129.24458 c -0.03022,4.88112 -3.504811,8.80998 -7.760738,8.77533 -4.255933,-0.0346 -7.68155,-4.01966 -7.65134,-8.9008 0.03021,-4.88117 3.504804,-8.81003 7.760735,-8.77536 4.255927,0.0346 7.681551,4.01966 7.651343,8.90083 z"
       id="path29947-29"
       inkscape:connector-curvature="0" />
    <path
       style="opacity:0.57999998;fill:#ffffff;fill-opacity:0.97674417;fill-rule:nonzero;stroke:none"
       d="m 16.717234,119.81831 c -0.03022,4.88114 -3.504811,8.81 -7.7607361,8.77537 -4.2559339,-0.0346 -7.6815517,-4.0197 -7.651343,-8.90083 0.030212,-4.88113 3.5048041,-8.81 7.7607369,-8.77536 4.2559262,0.0346 7.6815502,4.01968 7.6513422,8.90082 z"
       id="path29947-00"
       inkscape:connector-curvature="0" />
    <path
       style="opacity:0.57999998;fill:#ffffff;fill-opacity:0.97674417;fill-rule:nonzero;stroke:none"
       d="m 151.69971,11.487656 c -0.0216,3.486527 -2.50343,6.292864 -5.54338,6.268114 -3.03994,-0.02474 -5.48682,-2.871203 -5.46524,-6.35773 0.0216,-3.4865359 2.50344,-6.2928582 5.54339,-6.2681159 3.03995,0.024737 5.48681,2.8711945 5.46523,6.3577319 z"
       id="path29947-8"
       inkscape:connector-curvature="0" />
    <path
       style="opacity:0.57999998;fill:#ffffff;fill-opacity:0.97674417;fill-rule:nonzero;stroke:none"
       d="m 158.93374,30.907158 c -0.0216,3.486528 -2.50342,6.292849 -5.54337,6.268106 -3.03995,-0.02474 -5.48683,-2.871203 -5.46526,-6.357729 0.0216,-3.486537 2.50345,-6.292867 5.5434,-6.268116 3.03995,0.02474 5.48681,2.871203 5.46523,6.357739 z"
       id="path29947-8-7"
       inkscape:connector-curvature="0" />
    <path
       style="opacity:0.57999998;fill:#ffffff;fill-opacity:0.97674417;fill-rule:nonzero;stroke:none"
       d="m 164.63562,51.172867 c -0.0216,3.486529 -2.50343,6.292858 -5.54337,6.268117 -3.03995,-0.02474 -5.48684,-2.871204 -5.46526,-6.357739 0.0216,-3.486528 2.50345,-6.292859 5.54339,-6.268107 3.03995,0.02474 5.48682,2.871194 5.46524,6.357729 z"
       id="path29947-8-9"
       inkscape:connector-curvature="0" />
    <path
       style="opacity:0.57999998;fill:#ffffff;fill-opacity:0.97674417;fill-rule:nonzero;stroke:none"
       d="m 159.41848,68.790547 c -0.0216,3.486528 -2.50344,6.292866 -5.54338,6.268116 -3.03996,-0.02474 -5.48682,-2.871197 -5.46525,-6.35774 0.0216,-3.486526 2.50343,-6.292849 5.54339,-6.268106 3.03994,0.02474 5.48682,2.871203 5.46524,6.35773 z"
       id="path29947-8-6"
       inkscape:connector-curvature="0" />
    <path
       style="opacity:0.57999998;fill:#ffffff;fill-opacity:0.97674417;fill-rule:nonzero;stroke:none"
       d="m 155.6187,89.80375 c -0.0216,3.486529 -2.50343,6.292858 -5.54338,6.268108 -3.03994,-0.02474 -5.48682,-2.871194 -5.46525,-6.357721 0.0216,-3.486537 2.50345,-6.292867 5.54339,-6.268116 3.03995,0.02474 5.48683,2.871195 5.46524,6.357729 z"
       id="path29947-8-0"
       inkscape:connector-curvature="0" />
    <path
       style="opacity:0.57999998;fill:#ffffff;fill-opacity:0.97674417;fill-rule:nonzero;stroke:none"
       d="m 148.18585,104.89504 c -0.0216,3.48651 -2.50344,6.29285 -5.54338,6.26809 -3.03995,-0.0247 -5.48683,-2.87118 -5.46525,-6.35772 0.0216,-3.48653 2.50343,-6.292856 5.54339,-6.268114 3.03994,0.02474 5.48683,2.871204 5.46524,6.357744 z"
       id="path29947-8-8"
       inkscape:connector-curvature="0" />
    <path
       style="opacity:0.57999998;fill:#ffffff;fill-opacity:0.97674417;fill-rule:nonzero;stroke:none"
       d="m 137.81736,119.96239 c -0.0216,3.48653 -2.50342,6.29286 -5.54338,6.26811 -3.03995,-0.0248 -5.48683,-2.87118 -5.46525,-6.35773 0.0216,-3.48654 2.50344,-6.29285 5.54339,-6.26811 3.03995,0.0247 5.48682,2.8712 5.46524,6.35773 z"
       id="path29947-8-1"
       inkscape:connector-curvature="0" />
    <path
       style="opacity:0.57999998;fill:#ffffff;fill-opacity:0.97674417;fill-rule:nonzero;stroke:none"
       d="m 123.80017,131.633 c -0.0216,3.48654 -2.50344,6.29287 -5.54339,6.26812 -3.03996,-0.0248 -5.48681,-2.87119 -5.46524,-6.35773 0.0216,-3.48654 2.50342,-6.29286 5.54338,-6.26812 3.03994,0.0247 5.48683,2.8712 5.46525,6.35773 z"
       id="path29947-8-5"
       inkscape:connector-curvature="0" />
    <path
       style="opacity:0.57999998;fill:#ffffff;fill-opacity:0.97674417;fill-rule:nonzero;stroke:none"
       d="m 107.57083,144.96913 c -0.0216,3.48654 -2.50345,6.29285 -5.54339,6.26812 -3.039951,-0.0249 -5.486817,-2.87113 -5.46524,-6.35775 0.02155,-3.48652 2.503431,-6.29285 5.54339,-6.2681 3.03994,0.0248 5.48681,2.87121 5.46524,6.35773 z"
       id="path29947-8-01"
       inkscape:connector-curvature="0" />
    <path
       style="opacity:0.57999998;fill:#ffffff;fill-opacity:0.97674417;fill-rule:nonzero;stroke:none"
       d="m 89.191857,149.87007 c -0.02155,3.48652 -2.503437,6.29284 -5.543385,6.26812 -3.039945,-0.0249 -5.486819,-2.87116 -5.46525,-6.35768 0.02155,-3.48657 2.503437,-6.29289 5.543392,-6.26814 3.039946,0.0248 5.486827,2.87123 5.465243,6.3577 z"
       id="path29947-8-2"
       inkscape:connector-curvature="0" />
    <path
       style="opacity:0.57999998;fill:#ffffff;fill-opacity:0.97674417;fill-rule:nonzero;stroke:none"
       d="m 70.823313,153.08767 c -0.02155,3.48651 -2.50344,6.29285 -5.543386,6.26811 -3.039955,-0.0248 -5.486824,-2.87123 -5.465246,-6.35775 0.02157,-3.48652 2.503434,-6.29285 5.543387,-6.26811 3.039946,0.025 5.486819,2.87113 5.465245,6.35775 z"
       id="path29947-8-89"
       inkscape:connector-curvature="0" />
    <path
       style="opacity:0.57999998;fill:#ffffff;fill-opacity:0.97674417;fill-rule:nonzero;stroke:none"
       d="m 44.44948,145.29705 c -0.02158,3.48653 -2.503435,6.29288 -5.543382,6.26804 -3.039953,-0.0248 -5.486824,-2.87114 -5.465246,-6.35766 0.02158,-3.48654 2.503432,-6.29287 5.543385,-6.26812 3.039946,0.0247 5.486822,2.87119 5.465243,6.35774 z"
       id="path29947-8-15"
       inkscape:connector-curvature="0" />
    <path
       style="opacity:0.57999998;fill:#ffffff;fill-opacity:0.97674417;fill-rule:nonzero;stroke:none"
       d="m 20.256542,140.89128 c -0.02157,3.48653 -2.503436,6.29286 -5.543383,6.26812 -3.039952,-0.025 -5.4868216,-2.87122 -5.4652442,-6.35774 0.02158,-3.48654 2.5034322,-6.29286 5.5433842,-6.26811 3.039946,0.0247 5.486822,2.87118 5.465243,6.35773 z"
       id="path29947-8-04"
       inkscape:connector-curvature="0" />
    <path
       style="opacity:0.57999998;fill:#ffffff;fill-opacity:0.97674417;fill-rule:nonzero;stroke:none"
       d="m 55.369553,159.696 c -0.02157,3.48644 -2.503437,6.29276 -5.543385,6.26804 -3.03995,-0.0249 -5.486821,-2.87116 -5.465244,-6.35768 0.02158,-3.48661 2.503432,-6.29293 5.543384,-6.2682 3.039947,0.0248 5.486823,2.87132 5.465245,6.35784 z"
       id="path29947-8-84"
       inkscape:connector-curvature="0" />
    <path
       style="opacity:0.45000006;fill:#ffffff;fill-opacity:0.97674417;fill-rule:nonzero;stroke:none"
       d="m 165.6596,9.0759994 c -0.0129,2.0919116 -1.50206,3.7757196 -3.32603,3.7608716 -1.82397,-0.01486 -3.29208,-1.722727 -3.27914,-3.8146466 0.0129,-2.0919199 1.50205,-3.7757102 3.32602,-3.7608614 1.82397,0.014858 3.29211,1.7227176 3.27915,3.8146364 z"
       id="path29947-8-3"
       inkscape:connector-curvature="0" />
    <path
       style="opacity:0.57999998;fill:#ffffff;fill-opacity:0.97674417;fill-rule:nonzero;stroke:none"
       d="m 174.92955,52.923274 c -0.0129,2.091911 -1.50208,3.775717 -3.32604,3.760868 -1.82398,-0.01486 -3.2921,-1.722725 -3.27915,-3.814644 0.0128,-2.09192 1.50206,-3.775708 3.32603,-3.76086 1.82397,0.01486 3.2921,1.722716 3.27916,3.814636 z"
       id="path29947-8-3-59"
       inkscape:connector-curvature="0" />
    <path
       style="opacity:0.57999998;fill:#ffffff;fill-opacity:0.97674417;fill-rule:nonzero;stroke:none"
       d="m 176.30879,67.244513 c -0.0129,2.091919 -1.50206,3.775719 -3.32603,3.760871 -1.82398,-0.01486 -3.29209,-1.722728 -3.27914,-3.814646 0.0129,-2.091912 1.50205,-3.77571 3.32602,-3.760861 1.82397,0.01486 3.29209,1.722716 3.27915,3.814636 z"
       id="path29947-8-3-2"
       inkscape:connector-curvature="0" />
    <path
       style="opacity:0.57999998;fill:#ffffff;fill-opacity:0.97674417;fill-rule:nonzero;stroke:none"
       d="m 171.79074,85.726575 c -0.0129,2.091911 -1.50207,3.775711 -3.32604,3.760863 -1.82397,-0.01486 -3.29209,-1.722719 -3.27915,-3.81463 0.0129,-2.091928 1.50207,-3.775726 3.32603,-3.760876 1.82398,0.01486 3.29211,1.722716 3.27916,3.814643 z"
       id="path29947-8-3-6"
       inkscape:connector-curvature="0" />
    <path
       style="opacity:0.57999998;fill:#ffffff;fill-opacity:0.97674417;fill-rule:nonzero;stroke:none"
       d="m 166.55961,100.83578 c -0.0128,2.09191 -1.50207,3.77571 -3.32603,3.76086 -1.82397,-0.0148 -3.29208,-1.72272 -3.27915,-3.81463 0.0128,-2.091927 1.50207,-3.775723 3.32603,-3.760875 1.82398,0.01486 3.2921,1.722716 3.27915,3.814645 z"
       id="path29947-8-3-8"
       inkscape:connector-curvature="0" />
    <path
       style="opacity:0.57999998;fill:#ffffff;fill-opacity:0.97674417;fill-rule:nonzero;stroke:none"
       d="m 160.59459,115.93898 c -0.013,2.09193 -1.50207,3.77572 -3.32604,3.76087 -1.82397,-0.0148 -3.29209,-1.7227 -3.27915,-3.81463 0.0128,-2.09192 1.50206,-3.77573 3.32603,-3.76086 1.82397,0.0148 3.29211,1.72271 3.27916,3.81462 z"
       id="path29947-8-3-56"
       inkscape:connector-curvature="0" />
    <path
       style="opacity:0.57999998;fill:#ffffff;fill-opacity:0.97674417;fill-rule:nonzero;stroke:none"
       d="m 152.46428,125.13223 c -0.0129,2.09191 -1.50207,3.7757 -3.32602,3.76085 -1.82398,-0.0148 -3.29211,-1.72271 -3.27915,-3.81462 0.0129,-2.09193 1.50206,-3.77573 3.32603,-3.76088 1.82396,0.0148 3.29209,1.72272 3.27914,3.81465 z"
       id="path29947-8-3-90"
       inkscape:connector-curvature="0" />
    <rect
       style="fill:#000000;fill-opacity:1;stroke:none;opacity:0.88"
       id="rect5702"
       width="300.83334"
       height="25"
       x="0.4166666"
       y="106"
       ry="0" />
    <path
       style="opacity:0.57999998;fill:#ffffff;fill-opacity:0.97674417;fill-rule:nonzero;stroke:none"
       d="m 142.86617,134.31351 c -0.0129,2.09191 -1.50207,3.77571 -3.32604,3.76088 -1.82396,-0.0148 -3.29208,-1.72272 -3.27914,-3.81464 0.013,-2.09194 1.50205,-3.77572 3.32603,-3.76088 1.82397,0.0148 3.2921,1.72271 3.27915,3.81464 z"
       id="path29947-8-3-7"
       inkscape:connector-curvature="0" />
    <path
       style="opacity:0.57999998;fill:#ffffff;fill-opacity:0.97674417;fill-rule:nonzero;stroke:none"
       d="m 130.31678,145.99607 c -0.0128,2.09197 -1.50206,3.77563 -3.32602,3.76087 -1.82397,-0.0149 -3.29209,-1.72276 -3.27915,-3.81464 0.0128,-2.09194 1.50205,-3.77573 3.32603,-3.76088 1.82397,0.0148 3.29209,1.72272 3.27914,3.81465 z"
       id="path29947-8-3-1"
       inkscape:connector-curvature="0" />
    <path
       style="opacity:0.57999998;fill:#ffffff;fill-opacity:0.97674417;fill-rule:nonzero;stroke:none"
       d="m 117.03882,156.81398 c -0.0128,2.09194 -1.50206,3.77569 -3.32604,3.76092 -1.82396,-0.0149 -3.29207,-1.72277 -3.27914,-3.81463 0.0129,-2.09195 1.50206,-3.77569 3.32603,-3.7609 1.82397,0.0149 3.2921,1.72275 3.27915,3.81461 z"
       id="path29947-8-3-4"
       inkscape:connector-curvature="0" />
    <path
       style="opacity:0.57999998;fill:#ffffff;fill-opacity:0.97674417;fill-rule:nonzero;stroke:none"
       d="m 101.57486,165.07195 c -0.0128,2.09185 -1.50206,3.77569 -3.326035,3.76082 -1.823969,-0.0149 -3.292092,-1.72274 -3.279146,-3.8146 0.01292,-2.09195 1.50206,-3.77579 3.326029,-3.76085 1.823972,0.0149 3.292092,1.72267 3.279152,3.81463 z"
       id="path29947-8-3-72"
       inkscape:connector-curvature="0" />
    <path
       style="opacity:0.57999998;fill:#ffffff;fill-opacity:0.97674417;fill-rule:nonzero;stroke:none"
       d="m 86.86542,170.00284 c -0.01292,2.09187 -1.502065,3.77571 -3.326035,3.76083 -1.823969,-0.0149 -3.292086,-1.72276 -3.279146,-3.8147 0.01292,-2.09186 1.502065,-3.77569 3.326037,-3.76084 1.823968,0.0149 3.292091,1.72268 3.279144,3.81471 z"
       id="path29947-8-3-52"
       inkscape:connector-curvature="0" />
    <path
       style="opacity:0.57999998;fill:#ffffff;fill-opacity:0.97674417;fill-rule:nonzero;stroke:none"
       d="m 71.437716,172.40248 c -0.01292,2.09193 -1.502058,3.77568 -3.326028,3.7609 -1.823969,-0.0149 -3.292093,-1.72275 -3.279145,-3.81462 0.01292,-2.09194 1.502058,-3.77576 3.326028,-3.76092 1.823969,0.0149 3.292092,1.72269 3.279145,3.81464 z"
       id="path29947-8-3-21"
       inkscape:connector-curvature="0" />
    <path
       style="opacity:0.57999998;fill:#ffffff;fill-opacity:0.97674417;fill-rule:nonzero;stroke:none"
       d="m 56.025322,172.32778 c -0.01295,2.09194 -1.502062,3.77568 -3.326031,3.76082 -1.823971,-0.0149 -3.292093,-1.72269 -3.279146,-3.81462 0.01295,-2.09194 1.502058,-3.77569 3.32603,-3.76084 1.823967,0.0149 3.292094,1.72277 3.279147,3.81464 z"
       id="path29947-8-3-51"
       inkscape:connector-curvature="0" />
    <path
       style="opacity:0.57999998;fill:#ffffff;fill-opacity:0.97674417;fill-rule:nonzero;stroke:none"
       d="m 37.672397,173.02017 c -0.01295,2.09186 -1.502063,3.77567 -3.326032,3.76082 -1.823969,-0.0149 -3.292093,-1.72277 -3.279146,-3.81463 0.01295,-2.09193 1.502058,-3.77576 3.326029,-3.76083 1.823969,0.0149 3.292095,1.72269 3.279149,3.81464 z"
       id="path29947-8-3-61"
       inkscape:connector-curvature="0" />
    <path
       style="opacity:0.57999998;fill:#ffffff;fill-opacity:0.97674417;fill-rule:nonzero;stroke:none"
       d="m 12.068943,159.3434 c -0.01294,2.09195 -1.502063,3.77579 -3.3260317,3.76094 -1.8239708,-0.0149 -3.2920932,-1.72267 -3.2791459,-3.81463 0.012948,-2.09202 1.5020587,-3.77568 3.3260304,-3.76091 1.8239672,0.0149 3.2920932,1.72274 3.2791472,3.8146 z"
       id="path29947-8-3-3"
       inkscape:connector-curvature="0" />
    <path
       style="opacity:0.57999998;fill:#ffffff;fill-opacity:0.97674417;fill-rule:nonzero;stroke:none"
       d="m 172.09287,36.906635 c -0.013,2.091919 -1.50205,3.775724 -3.32603,3.760875 -1.82397,-0.01486 -3.29208,-1.722724 -3.27914,-3.814644 0.0128,-2.091921 1.50205,-3.775711 3.32603,-3.76086 1.82396,0.01486 3.29209,1.722707 3.27914,3.814629 z"
       id="path29947-8-3-33"
       inkscape:connector-curvature="0" />
    <g
       transform="matrix(0.72653249,0.00591449,-0.00515693,0.83326338,-44.4206,-153.31725)"
       style="font-size:40px;font-style:normal;font-variant:normal;font-weight:normal;font-stretch:normal;line-height:125%;letter-spacing:0px;word-spacing:0px;opacity:0;fill:#ffffff;fill-opacity:1;stroke:none;font-family:Sans;-inkscape-font-specification:System"
       id="text30419">
      <path
         d="m 135.97276,191.16588 0,4.16015 c -1.32815,-1.23695 -2.74742,-2.16143 -4.25782,-2.77343 -1.49741,-0.61196 -3.09246,-0.91795 -4.78515,-0.91797 -3.33335,2e-5 -5.88543,1.02216 -7.65625,3.0664 -1.77084,2.03128 -2.65626,4.97398 -2.65625,8.82813 -1e-5,3.84116 0.88541,6.78386 2.65625,8.82812 1.77082,2.03126 4.3229,3.04688 7.65625,3.04688 1.69269,0 3.28774,-0.30599 4.78515,-0.91797 1.5104,-0.61197 2.92967,-1.53645 4.25782,-2.77344 l 0,4.1211 c -1.38024,0.9375 -2.84508,1.64062 -4.39454,2.10937 -1.53647,0.46875 -3.16408,0.70313 -4.88281,0.70313 -4.41407,0 -7.89063,-1.34766 -10.42969,-4.04297 -2.53906,-2.70833 -3.80859,-6.39973 -3.80859,-11.07422 0,-4.68748 1.26953,-8.37888 3.80859,-11.07422 2.53906,-2.7083 6.01562,-4.06247 10.42969,-4.0625 1.74478,3e-5 3.3854,0.23441 4.92188,0.70313 1.54945,0.45575 3.00127,1.14586 4.35547,2.07031"
         id="path3378"
         inkscape:connector-curvature="0" />
    </g>
    <g
       transform="matrix(0.58755531,0.00828704,-0.00637672,1.0303209,-44.4206,-153.31725)"
       style="font-size:22.64392662px;font-style:normal;font-variant:normal;font-weight:normal;font-stretch:normal;line-height:125%;letter-spacing:0px;word-spacing:0px;fill:#ffffff;fill-opacity:1;stroke:none;font-family:Sans;-inkscape-font-specification:System"
       id="text30608">
      <text
         xml:space="preserve"
         style="font-size:22px;font-style:normal;font-weight:normal;line-height:125%;letter-spacing:0px;word-spacing:0px;fill:#ffffff;fill-opacity:1;stroke:none;font-family:Sans"
         x="128.22456"
         y="331.69479"
         id="text3459"
         sodipodi:linespacing="125%"
         transform="matrix(1.2364578,-0.00994504,0.0087767,0.80869134,0,0)"><tspan
           sodipodi:role="line"
           id="giftcard_code"
           x="128.22456"
           y="331.69479"
           style="font-size:16px;font-style:normal;font-variant:normal;font-weight:normal;font-stretch:normal;font-family:Serif;-inkscape-font-specification:Serif">#########################</tspan></text>
      <text
         xml:space="preserve"
         style="font-size:16.7075882px;font-style:normal;font-variant:normal;font-weight:normal;font-stretch:normal;line-height:125%;letter-spacing:0px;word-spacing:0px;fill:#ffffff;fill-opacity:1;stroke:none;font-family:SF Sports Night;-inkscape-font-specification:SF Sports Night"
         x="63.515316"
         y="356.40784"
         id="text5724"
         sodipodi:linespacing="125%"
         transform="matrix(1.3241674,-0.0106505,0.00819535,0.75512561,0,0)"><tspan
           sodipodi:role="line"
           id="tspan5726"
           x="63.515316"
           y="356.40784"
           style="font-size:16.7075882px;font-style:normal;font-variant:normal;font-weight:normal;font-stretch:normal;fill:#ffffff;font-family:Serif;-inkscape-font-specification:Serif">CODE</tspan></text>
    </g>
    <text
       xml:space="preserve"
       style="font-size:17.11797142px;font-style:normal;font-weight:normal;line-height:125%;letter-spacing:0px;word-spacing:0px;fill:#000000;fill-opacity:1;stroke:none;font-family:Sans"
       x="317.21411"
       y="165.63016"
       id="toto1234"
       sodipodi:linespacing="125%"
       transform="scale(0.93376232,1.0709363)"><tspan
         sodipodi:role="line"
         id="giftcard_price"
         x="317.21411"
         y="165.63016"
         style="font-size:43.57301331px;font-weight:bold;text-align:end;text-anchor:end;fill:#ffffff;-inkscape-font-specification:Sans Bold">100</tspan></text>
    <text
       xml:space="preserve"
       style="font-size:10.89325333px;font-style:normal;font-variant:normal;font-weight:normal;font-stretch:normal;text-align:center;line-height:125%;letter-spacing:0px;word-spacing:0px;text-anchor:middle;fill:#000000;fill-opacity:1;stroke:none;font-family:Serif;-inkscape-font-specification:Serif"
       x="159.14044"
       y="175.54732"
       id="text3475"
       sodipodi:linespacing="125%"
       transform="scale(0.93376235,1.0709363)"><tspan
         sodipodi:role="line"
         id="var_text1"
         x="160.64044"
         y="175.54732"
         style="font-size:10.89325333000000029px;font-style:normal;font-variant:normal;font-weight:normal;font-stretch:normal;text-align:center;line-height:125%;letter-spacing:0px;writing-mode:lr-tb;text-anchor:middle;fill:#ffffff;font-family:Sans;-inkscape-font-specification:Sans"
         var_text1="giftcard_shop_text">www.myshop.com</tspan></text>
    <text
       xml:space="preserve"
       style="font-size:22.301157px;font-style:normal;font-variant:normal;font-weight:normal;font-stretch:normal;text-align:end;line-height:125%;letter-spacing:0px;word-spacing:0px;text-anchor:end;fill:#000000;fill-opacity:1;stroke:none;font-family:DejaVu Sans;-inkscape-font-specification:DejaVu Sans"
       x="303.22159"
       y="19.373146"
       id="text5764"
       sodipodi:linespacing="125%"
       transform="matrix(0.95959107,0.00347321,-0.00319823,1.042099,0,0)"><tspan
         sodipodi:role="line"
         id="var_text2"
         x="303.22159"
         y="19.373146"
         style="font-size:14.3364563px;font-style:normal;font-variant:normal;font-weight:normal;font-stretch:normal;text-align:end;text-anchor:end;fill:#ffffff;font-family:DejaVu Sans;-inkscape-font-specification:DejaVu Sans">Carte Cadeau</tspan></text>
    <rect
       style="fill:#ffffff;fill-opacity:1;stroke:none"
       id="rect5704"
       width="300.90485"
       height="2.9376051"
       x="0.55964404"
       y="129"
       ry="0" />
    <rect
       style="fill:#ffffff;fill-opacity:1;stroke:none"
       id="rect5704-4"
       width="300.90485"
       height="2.9376051"
       x="0.54928774"
       y="105.06239"
       ry="0" />
    <g
       transform="matrix(3.6629822,0,0,3.2415108,6.44543,5.0574966)"
       id="g5108"
       style="fill:#ffffff">
      <path
         style="fill:#ffffff"
         inkscape:connector-curvature="0"
         d="M 24,11.765 C 23.501,12.385 22.502,13 20.5,13 18.45,13 17.451,12.355 16.964,11.721 16.41,12.354 15.285,13 13,13 10.707,13 9.582,12.351 9.031,11.715 8.542,12.351 7.542,13 5.5,13 3.495,13 2.499,12.375 2,11.75 V 16 h 22 v -4.235 z"
         id="path5110" />
      <path
         style="fill:#ffffff"
         inkscape:connector-curvature="0"
         d="m 5.5,12 c 2.89,0 2.997,-1.454 3,-1.516 0.014,-0.267 0.234,-0.479 0.5,-0.479 0.002,0 0.005,0 0.008,0 0.269,0.004 0.486,0.216 0.492,0.484 C 9.504,10.54 9.645,12 13,12 c 3.355,0 3.496,-1.46 3.501,-1.522 0.019,-0.27 0.241,-0.479 0.517,-0.471 0.27,0.01 0.482,0.224 0.482,0.493 0.002,0.053 0.09,1.5 3,1.5 3.203,0 3.326,-1.967 3.326,-1.967 C 23.422,8.854 22.314,8 21,8 H 13.853 C 14.26,7.602 14.715,7.225 15.161,6.861 16.513,5.751 17.914,4.607 17.914,2.838 17.913,1.23 16.785,0.106 15.171,0.106 c -0.93,0 -1.733,0.665 -2.172,1.124 -0.437,-0.459 -1.239,-1.124 -2.168,-1.124 -1.613,0 -2.743,1.124 -2.743,2.732 0,1.77 1.401,2.913 2.753,4.023 0.443,0.364 0.898,0.741 1.305,1.139 H 5 C 3.684,8 2.577,8.854 2.173,10.034 2.173,10.034 2.391,12 5.5,12 z"
         id="path5112" />
      <path
         style="fill:#ffffff"
         inkscape:connector-curvature="0"
         d="M 22.5,22 C 20.45,22 18.451,21.355 17.964,20.721 17.41,21.354 15.285,22 13,22 10.707,22 8.582,21.352 8.031,20.715 7.542,21.352 5.542,22 3.5,22 1.495,22 0.499,21.375 0,20.75 V 24 c 0,1.656 1.344,2 3,2 h 20 c 1.656,0 3,-0.344 3,-2 V 20.766 C 25.501,21.385 24.502,22 22.5,22 z"
         id="path5114" />
      <path
         style="fill:#ffffff"
         inkscape:connector-curvature="0"
         d="m 3.5,21 c 2.89,0 3.997,-1.454 4,-1.516 0.014,-0.268 0.234,-0.479 0.5,-0.479 0.002,0 0.005,0 0.008,0 0.269,0.004 0.486,0.216 0.492,0.484 C 8.504,19.54 9.645,21 13,21 c 3.355,0 4.496,-1.46 4.501,-1.521 0.019,-0.271 0.241,-0.479 0.517,-0.472 0.27,0.011 0.482,0.224 0.482,0.493 0.002,0.053 1.09,1.5 4,1.5 3.203,0 3.326,-1.967 3.326,-1.967 C 25.422,17.854 24.314,17 23,17 H 3 c -1.316,0 -2.423,0.854 -2.827,2.034 0,0 0.218,1.966 3.327,1.966 z"
         id="path5116" />
    </g>
  </g>
</svg>
