<?xml version="1.0" encoding="UTF-8" standalone="no"?>
<!-- Created with Inkscape (http://www.inkscape.org/) -->

<svg
   xmlns:dc="http://purl.org/dc/elements/1.1/"
   xmlns:cc="http://creativecommons.org/ns#"
   xmlns:rdf="http://www.w3.org/1999/02/22-rdf-syntax-ns#"
   xmlns:svg="http://www.w3.org/2000/svg"
   xmlns="http://www.w3.org/2000/svg"
   xmlns:sodipodi="http://sodipodi.sourceforge.net/DTD/sodipodi-0.dtd"
   xmlns:inkscape="http://www.inkscape.org/namespaces/inkscape"
   width="300px"
   height="191px"
   id="svg2985"
   version="1.1"
   inkscape:version="0.48.4 r9939"
   sodipodi:docname="5novariable.svg"
   inkscape:export-filename="/home/rdevera/workspacephpnew/catbibips15/prestashop/modules/giftcard/logo.png"
   inkscape:export-xdpi="15.423112"
   inkscape:export-ydpi="15.423112">
  <defs
     id="defs3">
    <filter
       id="filter8109"
       inkscape:label="Fancy blur"
       inkscape:menu="Blurs"
       inkscape:menu-tooltip="Smooth colorized contour which allows desaturation and hue rotation"
       color-interpolation-filters="sRGB">
      <feGaussianBlur
         id="feGaussianBlur8111"
         stdDeviation="5"
         result="result1" />
      <feComposite
         k4="0"
         k3="0"
         k1="0"
         id="feComposite8113"
         in2="result1"
         operator="arithmetic"
         k2="2"
         in="result1" />
    </filter>
  </defs>
  <sodipodi:namedview
     id="base"
     pagecolor="#ffffff"
     bordercolor="#666666"
     borderopacity="1.0"
     inkscape:pageopacity="0.0"
     inkscape:pageshadow="2"
     inkscape:zoom="1.6970563"
     inkscape:cx="-27.142341"
     inkscape:cy="58.231982"
     inkscape:document-units="mm"
     inkscape:current-layer="var_color1"
     showgrid="false"
     inkscape:window-width="1920"
     inkscape:window-height="1014"
     inkscape:window-x="0"
     inkscape:window-y="27"
     inkscape:window-maximized="1">
    <inkscape:grid
       type="xygrid"
       id="grid6082" />
  </sodipodi:namedview>
  <metadata
     id="metadata2989">
    <rdf:RDF>
      <cc:Work
         rdf:about="">
        <dc:format>image/svg+xml</dc:format>
        <dc:type
           rdf:resource="http://purl.org/dc/dcmitype/StillImage" />
        <dc:title></dc:title>
      </cc:Work>
    </rdf:RDF>
  </metadata>
  <g
     inkscape:label="Layer 1"
     inkscape:groupmode="layer"
     id="layer1">
    <g
       id="var_color1"
       style="fill:#996600"
       transform="translate(-2.0833333,2.0833333)">
      <rect
         style="fill:#ff3300;fill-opacity:1;stroke:#990000;stroke-width:1.98298811999999991"
         id="rect4099"
         width="297.16046"
         height="188.58302"
         x="3.7114422"
         y="-0.28855756"
         ry="9.8954525" />
      <text
         xml:space="preserve"
         style="font-size:25.78211212px;font-style:normal;font-variant:normal;font-weight:normal;font-stretch:normal;line-height:125%;letter-spacing:0px;word-spacing:0px;fill:#ffffff;fill-opacity:1;stroke:none;font-family:Bebas Neue;-inkscape-font-specification:Bebas Neue"
         x="163.26666"
         y="79.888634"
         id="text4101"
         sodipodi:linespacing="125%"
         transform="scale(0.94409602,1.0592143)"><tspan
           sodipodi:role="line"
           x="163.26666"
           y="79.888634"
           id="tspan4303"
           style="font-size:62.87733841px;text-align:center;text-anchor:middle">FélicitationS</tspan></text>
      <path
         inkscape:connector-curvature="0"
         d="M 126.18935,128.7738 H 115.7119 c -1.73282,0 -3.1435,1.47828 -3.1435,3.29415 v 23.21287 c 0,1.81587 1.41068,3.29415 3.1435,3.29415 h 10.47875 c 1.73282,0 3.14349,-1.47828 3.1422,-3.29415 v -23.21287 c 0,-1.81587 -1.41068,-3.29415 -3.1435,-3.29415 z m 0.44944,26.50838 c 0,0.26 -0.20394,0.47098 -0.44944,0.47098 H 115.7119 c -0.24811,0 -0.44945,-0.21235 -0.44945,-0.47098 v -23.21287 c 0,-0.25999 0.20264,-0.47098 0.44945,-0.47098 v -0.001 h 10.47745 c 0.2468,0 0.44944,0.21235 0.44944,0.47098 v 23.21423 z m 6.35974,-25.0968 v 26.97665 c 0,0.77998 -0.60272,1.41294 -1.34703,1.41294 -0.74431,0 -1.34703,-0.63296 -1.34703,-1.41158 v -26.97801 c 0,-0.77861 0.60272,-1.41158 1.34703,-1.41158 0.74431,0 1.34703,0.63297 1.34703,1.41158 z m 53.80573,6.43857 c -0.009,-1.74644 -0.44294,-3.173 -1.29247,-4.23611 -0.0299,-0.0408 -0.0572,-0.0776 -0.0805,-0.10754 0.0234,-0.0299 0.052,-0.0681 0.0844,-0.1089 0.85602,-1.05086 1.28857,-2.457 1.28857,-4.17894 0,-2.0922 -0.91577,-3.80597 -2.57844,-4.8228 -1.11581,-0.68061 -2.87591,-0.82354 -4.15539,-0.82354 h -15.71488 c -1.18986,0 -1.82635,-0.14837 -2.1394,-0.26271 -0.0442,-0.44376 0.13379,-1.37892 0.20524,-1.75598 l 0.0338,-0.17696 c 1.17816,-6.26024 2.09133,-14.35405 -0.25719,-17.34602 -0.67547,-0.86165 -1.58474,-1.31766 -2.63301,-1.31766 -4.18656,0 -5.24652,2.65983 -6.71565,6.33921 -0.94435,2.36171 -2.11731,5.30331 -4.43986,9.04394 -4.21514,6.78704 -9.4149,10.01176 -12.14013,11.32806 -1.30416,0.63297 -2.07575,2.13439 -2.01599,3.86859 l 0.001,21.3058 c 0.0546,1.64708 1.48992,3.35677 2.78629,3.99654 7.29109,3.58954 19.65724,4.07277 30.79197,4.07277 l 3.78128,-0.007 c 3.11882,0 5.46865,-0.83442 6.97934,-2.48422 1.27169,-1.38708 1.89909,-3.30913 1.81466,-5.5565 -0.0195,-0.46417 0.26629,-0.9406 0.70923,-1.1897 2.04847,-1.15023 3.30717,-3.15531 3.54878,-5.64362 0.1195,-1.2319 -0.0961,-2.55637 -0.63909,-3.94209 -0.009,-0.0245 -0.0169,-0.0449 -0.0234,-0.064 0.0507,-0.0436 0.14418,-0.11706 0.30915,-0.20963 2.6382,-1.47964 2.52519,-5.14132 2.49141,-5.7212 z m -3.76829,3.23562 c -2.22903,1.2496 -1.79647,3.10086 -1.5055,3.83591 0.3676,0.93516 0.52478,1.82812 0.45074,2.58224 -0.15198,1.56948 -0.87161,2.72788 -2.1394,3.44116 -1.35352,0.7582 -2.19005,2.24737 -2.1303,3.78963 0.0403,1.0182 -0.11171,2.4502 -1.06386,3.48745 -0.98461,1.074 -2.67846,1.61713 -5.03738,1.61713 l -3.77999,0.007 c -7.11443,0 -21.91614,0 -29.64499,-3.80597 -0.56115,-0.27632 -1.22882,-1.16928 -1.24051,-1.49189 l -0.001,-21.30717 c -0.0169,-0.50501 0.1338,-1.09714 0.45334,-1.25096 2.98762,-1.44561 8.68358,-4.97253 13.26633,-12.35306 2.45895,-3.95707 3.73453,-7.15729 4.66849,-9.49587 1.48731,-3.72566 1.92636,-4.60637 4.23072,-4.60637 0.20394,0 0.36631,0.0476 0.55336,0.28858 1.23402,1.57221 1.11452,7.46493 -0.30525,15.00881 l -0.0312,0.16743 c -0.2546,1.32855 -0.72872,3.80324 1.0132,4.73976 0.82354,0.44104 1.98871,0.65747 3.56176,0.65747 h 15.71098 c 1.43406,0 2.43946,0.21916 2.79667,0.43831 0.83654,0.51182 1.24441,1.2918 1.24441,2.38486 0,1.0318 -0.21822,1.82267 -0.64558,2.34946 -1.06645,1.3095 -1.07295,2.53459 -0.0221,3.85498 0.43645,0.54721 0.66766,1.40478 0.66766,2.47878 l 0.003,0.11979 c 0.003,0.0218 0.14549,2.37941 -1.07294,3.06274 z m -15.46289,-2.07722 c 0.0364,0.12251 0.0546,0.36208 -0.26758,0.60982 l -3.85403,3.62085 -0.026,0.0259 c -0.15068,0.1157 -0.23641,0.39748 -0.17796,0.58805 l 1.09633,5.32509 c 0.0714,0.23413 0.0559,0.42742 -0.0429,0.5649 -0.14029,0.21099 -0.42476,0.23822 -0.72222,0.0231 l -4.46455,-2.53867 -0.0364,-0.0231 c -0.15328,-0.11162 -0.44684,-0.11162 -0.59103,0 l -4.50611,2.56181 c -0.13509,0.1021 -0.26369,0.14702 -0.38579,0.14702 -0.13899,0 -0.2546,-0.0613 -0.33124,-0.17016 -0.0948,-0.13748 -0.11041,-0.33077 -0.0429,-0.5649 l 1.09113,-5.29651 0.003,-0.0286 c 0.0623,-0.19057 -0.0247,-0.47235 -0.18056,-0.58805 l -3.87741,-3.64671 c -0.31565,-0.24638 -0.30006,-0.48731 -0.26369,-0.60982 0.0403,-0.12251 0.16497,-0.32669 0.56375,-0.32669 l 5.11532,-0.43968 h 0.0273 c 0.19095,0 0.42087,-0.17423 0.47802,-0.36344 l 2.1355,-5.11002 c 0.1247,-0.39612 0.34942,-0.45056 0.46893,-0.45056 0.1221,0 0.34552,0.0544 0.47412,0.45056 l 2.11991,5.08007 0.013,0.0286 c 0.0572,0.18921 0.28707,0.36345 0.47932,0.36481 l 5.1439,0.43968 c 0.39878,0 0.51829,0.20418 0.56115,0.32669 z"
         id="path4746"
         style="fill:#ffffff" />
    </g>
  </g>
</svg>
