<?xml version="1.0" encoding="UTF-8" standalone="no"?>
<!-- Created with Inkscape (http://www.inkscape.org/) -->

<svg
   xmlns:dc="http://purl.org/dc/elements/1.1/"
   xmlns:cc="http://creativecommons.org/ns#"
   xmlns:rdf="http://www.w3.org/1999/02/22-rdf-syntax-ns#"
   xmlns:svg="http://www.w3.org/2000/svg"
   xmlns="http://www.w3.org/2000/svg"
   xmlns:sodipodi="http://sodipodi.sourceforge.net/DTD/sodipodi-0.dtd"
   xmlns:inkscape="http://www.inkscape.org/namespaces/inkscape"
   width="300px"
   height="191px"
   id="svg2985"
   version="1.1"
   inkscape:version="0.48.4 r9939"
   sodipodi:docname="6novariable.svg"
   inkscape:export-filename="/home/rdevera/workspacephpnew/catbibips15/prestashop/modules/giftcard/logo.png"
   inkscape:export-xdpi="15.423112"
   inkscape:export-ydpi="15.423112">
  <defs
     id="defs3">
    <filter
       id="filter8109"
       inkscape:label="Fancy blur"
       inkscape:menu="Blurs"
       inkscape:menu-tooltip="Smooth colorized contour which allows desaturation and hue rotation"
       color-interpolation-filters="sRGB">
      <feGaussianBlur
         id="feGaussianBlur8111"
         stdDeviation="5"
         result="result1" />
      <feComposite
         k4="0"
         k3="0"
         k1="0"
         id="feComposite8113"
         in2="result1"
         operator="arithmetic"
         k2="2"
         in="result1" />
    </filter>
  </defs>
  <sodipodi:namedview
     id="base"
     pagecolor="#ffffff"
     bordercolor="#666666"
     borderopacity="1.0"
     inkscape:pageopacity="0.0"
     inkscape:pageshadow="2"
     inkscape:zoom="1.6970563"
     inkscape:cx="-27.142341"
     inkscape:cy="58.231982"
     inkscape:document-units="mm"
     inkscape:current-layer="var_color1"
     showgrid="false"
     inkscape:window-width="1920"
     inkscape:window-height="1014"
     inkscape:window-x="0"
     inkscape:window-y="27"
     inkscape:window-maximized="1">
    <inkscape:grid
       type="xygrid"
       id="grid6082" />
  </sodipodi:namedview>
  <metadata
     id="metadata2989">
    <rdf:RDF>
      <cc:Work
         rdf:about="">
        <dc:format>image/svg+xml</dc:format>
        <dc:type
           rdf:resource="http://purl.org/dc/dcmitype/StillImage" />
        <dc:title></dc:title>
      </cc:Work>
    </rdf:RDF>
  </metadata>
  <g
     inkscape:label="Layer 1"
     inkscape:groupmode="layer"
     id="layer1">
    <g
       id="var_color1"
       style="fill:#996600"
       transform="translate(-2.0833333,2.0833333)">
      <rect
         style="fill:#ff3d7f;fill-opacity:1;stroke:#d81848;stroke-width:1.98298811999999991"
         id="rect4099"
         width="297.16046"
         height="188.58302"
         x="3.7114422"
         y="-0.28855756"
         ry="9.8954525" />
      <path
         inkscape:connector-curvature="0"
         d="m 73.837604,61.158277 c 0,22.123071 0,44.254463 0,66.385863 0,7.66023 -6.787898,15.48699 -13.162808,17.3854 -6.810437,2.03162 -10.97778,-3.03912 -10.97778,-10.23308 0,-22.12307 0,-44.237812 0,-66.360883 0,-7.685207 6.795411,-15.511961 13.162823,-17.410365 6.810423,-2.014973 10.977765,3.055764 10.977765,10.233065 z M 199.2185,80.558636 c 0.23276,11.756785 -3.66426,23.979844 -8.53743,34.229564 -6.18721,13.00573 -15.13012,23.95486 -26.43076,31.67338 -5.17352,3.56367 -12.77987,1.88175 -13.95123,-5.46207 -1.26899,-7.98497 3.91205,-15.12896 9.56612,-19.16723 0.1427,-0.0999 0.24779,-0.19151 0.39046,-0.30808 0.7809,-0.51623 2.07993,-1.60698 0.15769,-0.14155 0.0825,-0.0666 0.16519,-0.14154 0.24028,-0.19983 0.93859,-0.79933 1.86967,-1.60698 2.75569,-2.50623 0.15769,-0.1582 0.29285,-0.30807 0.45053,-0.46627 0.61572,-0.73272 1.22392,-1.47376 1.80211,-2.25644 0.76588,-1.00748 1.49424,-2.01497 2.19254,-3.07241 1.12631,-1.95669 2.20007,-3.98832 3.15367,-6.08655 0.25529,-0.53289 0.50309,-1.09076 0.74337,-1.66527 0.2628,-0.69941 0.64575,-1.75686 0.81845,-2.27309 0.68329,-2.09824 1.30652,-4.238104 1.77956,-6.419604 0.0451,-0.208159 0.0901,-0.43297 0.1427,-0.641128 0.14271,-0.815981 0.23277,-1.606982 0.31537,-2.414637 0.13514,-1.332214 0.22527,-2.656101 0.24779,-3.979988 -0.0375,-0.532885 -0.0901,-1.174013 -0.15018,-1.548698 -0.11262,-0.707738 -0.21774,-1.423803 -0.39045,-2.114889 -0.007,-0.02497 -0.0225,-0.04996 -0.0375,-0.08327 -0.1577,-0.383012 -0.36043,-0.774349 -0.56316,-1.149035 -0.0977,-0.09992 -0.17271,-0.183179 -0.28534,-0.266443 -0.0526,-0.02497 -0.12759,-0.06661 -0.18772,-0.09159 -0.25529,0.01665 -0.53312,0.04163 -0.79593,0.06661 -0.20273,0.05828 -0.45052,0.108243 -0.67577,0.174854 -0.21025,0.06661 -0.43552,0.149874 -0.65327,0.22481 -0.75838,0.383012 -1.51677,0.791003 -2.26013,1.240624 -0.6908,0.432971 -2.68813,1.865099 -2.79325,1.906731 -0.47305,0.366359 -0.92357,0.732718 -1.39662,1.124055 -2.63556,2.239784 -5.16601,4.621116 -7.62137,7.110691 -3.90454,3.930028 -13.20787,6.760987 -16.05368,-0.291423 -2.64308,-6.527846 -5.78924,-12.880838 -9.71631,-18.551073 -0.28532,-0.383011 -0.66076,-0.882592 -0.78091,-1.040792 -0.55564,-0.691085 -1.10378,-1.382171 -1.70448,-2.031625 -1.13382,-1.27393 -2.32021,-2.531206 -3.59669,-3.621956 -0.60821,-0.516232 -1.22392,-1.057445 -1.88469,-1.515393 -0.23277,-0.174853 -0.80344,-0.516232 -1.13381,-0.691085 -1.0212,-0.516233 -2.0574,-0.949203 -3.14617,-1.215645 0,0 -0.0225,0 -0.0301,0 -0.47305,-0.03331 -0.97613,-0.04996 -1.44918,-0.03331 -0.21025,0.04163 -0.44302,0.08327 -0.58568,0.149874 -0.0676,0.02497 -0.15769,0.04996 -0.21775,0.06661 -0.44303,0.274769 -1.01368,0.68276 -1.2014,0.791002 -0.1652,0.166527 -0.33789,0.3164 -0.49557,0.466274 -0.12018,0.208158 -0.22527,0.424643 -0.3304,0.624476 -0.11262,0.299747 -0.21024,0.657779 -0.32287,1.015812 -0.12759,0.832634 -0.27783,2.048279 -0.30036,2.597817 -0.015,0.466274 -0.0301,0.90757 -0.0375,1.373844 0.007,0.158202 0.015,0.258117 0.0375,0.333054 0.27032,3.080744 0.79593,6.128183 1.58435,9.100683 0.1427,0.474602 0.27032,0.940876 0.39797,1.423803 0.12758,0.374686 0.2628,0.84096 0.33789,1.04912 0.55564,1.56535 1.12631,3.139027 1.74953,4.679399 2.61304,6.377972 5.74419,12.489503 9.17568,18.359563 5.65407,9.66688 12.06653,18.70928 18.43395,27.81829 1.77957,2.53121 1.15635,7.23559 0.37543,9.9583 -1.16385,3.98832 -3.48405,7.58529 -6.40494,10.21641 -5.11345,4.61279 -11.74367,5.84509 -16.06871,-0.29142 -1.65192,-2.35635 -3.29633,-4.6794 -4.93323,-7.0524 -7.62134,-10.8742 -15.07001,-22.10642 -20.633977,-34.44605 -6.247266,-13.80506 -10.797574,-29.783297 -6.577656,-45.120405 5.075901,-18.44283 24.388373,-37.385233 42.709703,-30.182954 10.61735,4.171494 18.41893,14.479488 24.08802,25.44527 8.22207,-6.411277 17.88581,-11.465362 27.73728,-9.092357 10.03167,2.40631 12.74983,14.529453 12.95256,24.271264 z m -35.85422,38.226204 c -1.52428,1.64861 -0.6758,0.791 0,0 l 0,0 z m 11.04535,-22.439474 c -0.428,2.323047 -0.1427,0.949203 0,0 l 0,0 z m -14.30415,25.295404 c 0.045,-0.0416 0.0976,-0.0583 0.15768,-0.10824 0,0 0.007,0 0.007,-0.008 0.06,-0.0416 0.11262,-0.0916 0.15768,-0.14155 -0.13514,0.10824 -0.15768,0.11656 -0.32288,0.25812 z M 272.63142,57.877701 c -1.17887,16.069825 -3.82194,32.139651 -9.93407,46.860609 -4.27997,10.26637 -12.51705,22.43947 -23.26956,24.67926 -10.41462,2.16484 -18.14112,-3.89673 -23.30713,-13.62189 -6.73534,-12.73096 -9.51356,-28.251249 -11.39826,-42.672461 -1.0287,-7.868385 3.82945,-15.845014 9.95658,-19.408685 5.14349,-3.030786 12.93756,-2.323047 13.94372,5.462075 0.97615,7.51868 2.21508,15.062339 4.12981,22.381187 0.31537,1.198993 0.65327,2.381331 1.01368,3.563671 0.18021,0.599497 0.78092,2.422964 0.95361,2.86426 0.7734,2.098236 1.59186,4.179819 2.57551,6.153161 0.7809,1.582003 1.64441,3.114049 2.60553,4.562831 0.23276,0.299747 0.49557,0.607822 0.66076,0.791001 0.25529,0.308074 0.56316,0.55786 0.856,0.84096 0.27032,-0.557864 0.54813,-1.124054 0.80344,-1.698572 1.73451,-4.86258 3.05605,-9.908337 4.05471,-15.029034 0.15768,-0.965855 0.45052,-2.639447 0.51059,-3.114049 0.25531,-1.740204 0.5106,-3.472081 0.73587,-5.245591 0.39796,-3.388818 0.70581,-6.785962 0.95361,-10.208085 0.54813,-7.776797 6.39743,-15.387066 13.17032,-17.393713 6.40495,-1.898396 11.50339,2.922544 10.98528,10.233065 z m -29.53186,43.638319 c 0.75838,-0.0666 1.32153,-0.23314 0,0 l 0,0 z"
         id="path5078"
         style="fill:#ffffff" />
    </g>
  </g>
</svg>
