<?xml version="1.0" encoding="UTF-8" standalone="no"?>
<!-- Created with Inkscape (http://www.inkscape.org/) -->

<svg
   xmlns:dc="http://purl.org/dc/elements/1.1/"
   xmlns:cc="http://creativecommons.org/ns#"
   xmlns:rdf="http://www.w3.org/1999/02/22-rdf-syntax-ns#"
   xmlns:svg="http://www.w3.org/2000/svg"
   xmlns="http://www.w3.org/2000/svg"
   xmlns:sodipodi="http://sodipodi.sourceforge.net/DTD/sodipodi-0.dtd"
   xmlns:inkscape="http://www.inkscape.org/namespaces/inkscape"
   width="300px"
   height="191px"
   id="svg2985"
   version="1.1"
   inkscape:version="0.48.4 r9939"
   sodipodi:docname="7novariable.svg"
   inkscape:export-filename="/home/rdevera/workspacephpnew/catbibips15/prestashop/modules/giftcard/logo.png"
   inkscape:export-xdpi="15.423112"
   inkscape:export-ydpi="15.423112">
  <defs
     id="defs3">
    <filter
       id="filter8109"
       inkscape:label="Fancy blur"
       inkscape:menu="Blurs"
       inkscape:menu-tooltip="Smooth colorized contour which allows desaturation and hue rotation"
       color-interpolation-filters="sRGB">
      <feGaussianBlur
         id="feGaussianBlur8111"
         stdDeviation="5"
         result="result1" />
      <feComposite
         k4="0"
         k3="0"
         k1="0"
         id="feComposite8113"
         in2="result1"
         operator="arithmetic"
         k2="2"
         in="result1" />
    </filter>
  </defs>
  <sodipodi:namedview
     id="base"
     pagecolor="#ffffff"
     bordercolor="#666666"
     borderopacity="1.0"
     inkscape:pageopacity="0.0"
     inkscape:pageshadow="2"
     inkscape:zoom="1.6970563"
     inkscape:cx="-27.142341"
     inkscape:cy="62.062144"
     inkscape:document-units="mm"
     inkscape:current-layer="var_color1"
     showgrid="false"
     inkscape:window-width="1920"
     inkscape:window-height="1014"
     inkscape:window-x="0"
     inkscape:window-y="27"
     inkscape:window-maximized="1">
    <inkscape:grid
       type="xygrid"
       id="grid6082" />
  </sodipodi:namedview>
  <metadata
     id="metadata2989">
    <rdf:RDF>
      <cc:Work
         rdf:about="">
        <dc:format>image/svg+xml</dc:format>
        <dc:type
           rdf:resource="http://purl.org/dc/dcmitype/StillImage" />
        <dc:title></dc:title>
      </cc:Work>
    </rdf:RDF>
  </metadata>
  <g
     inkscape:label="Layer 1"
     inkscape:groupmode="layer"
     id="layer1">
    <g
       id="var_color1"
       style="fill:#996600"
       transform="translate(-2.0833333,2.0833333)">
      <rect
         style="fill:#fc4040;fill-opacity:1;stroke:#d81848;stroke-width:1.98298811999999991"
         id="rect4099"
         width="297.16046"
         height="188.58302"
         x="3.7114422"
         y="-0.28855756"
         ry="9.8954525" />
      <path
         style="fill:#000000"
         inkscape:connector-curvature="0"
         d="m 167.41218,104.93966 c 0.0277,0.14559 0.0646,0.24749 0.10149,0.33484 0.0969,0.165 0.26756,0.24264 0.43825,0.24264 -0.86727,0.9851 -1.32396,2.33902 -1.07947,3.76087 0.25372,1.5092 1.20402,2.70297 2.43111,3.29015 -0.83959,1.29568 -1.22247,2.9165 -0.93646,4.57613 0.56741,3.39207 3.63974,5.66315 6.86431,5.06141 0.2445,-0.0437 0.46131,-0.13103 0.67813,-0.20382 0.005,0.0243 0.005,0.0437 0.009,0.0679 0.60893,3.62985 4.75151,7.82746 8.8987,7.06073 4.13335,-0.76673 6.67056,-6.20665 6.0524,-9.8365 0,-0.0243 -0.009,-0.0437 -0.009,-0.0679 0.24449,-0.01 0.47976,-0.01 0.71041,-0.0534 3.21996,-0.59688 5.37889,-3.83851 4.80225,-7.22572 -0.2814,-1.65963 -1.1625,-3.04752 -2.37113,-3.96468 0.96875,-0.99481 1.46696,-2.46034 1.22708,-3.96469 -0.23988,-1.417 -1.09792,-2.51857 -2.21429,-3.13487 0.15223,-0.0582 0.38289,-0.23293 0.28601,-0.74732 -0.0185,-0.10191 -0.0277,-0.271753 -0.0369,-0.490126 -0.083,-1.43641 -0.27218,-4.804208 -2.97546,-7.046171 -0.3875,-0.325134 -0.83036,-0.60174 -1.28706,-0.849229 -2.80938,-4.750828 -1.65611,-9.229902 -1.87292,-11.598037 0.72426,0.689088 1.7253,1.043338 2.76786,0.849229 1.78528,-0.329986 2.97546,-2.115793 2.65716,-3.988949 -0.30908,-1.873155 -2.02055,-3.125161 -3.79198,-2.795175 -1.78528,0.329986 -2.98007,2.120645 -2.65715,3.993801 0.0185,0.116466 0.06,0.228078 0.0969,0.339691 -0.41057,-0.150434 -0.94569,-0.184404 -1.72992,-0.03397 -5.44808,1.009369 -14.02847,7.875989 -15.36166,16.586649 -0.51667,0.519243 -0.97337,1.067602 -1.33319,1.669341 -1.81757,3.081487 -0.88572,6.308556 -0.4936,7.691586 0.0784,0.21352 0.11071,0.37366 0.12916,0.47557 z m 15.64768,13.61678 c -2.77248,0.51439 -5.54035,-2.20314 -5.69719,-3.17369 -0.16146,-0.97055 2.04361,-1.58684 4.81147,-2.10123 2.7771,-0.50954 5.04675,-0.72792 5.20821,0.24263 0.17068,0.97055 -1.55001,4.5179 -4.32249,5.03229 z m 8.59884,-8.97271 c -1.84985,0.67938 -6.55984,0.13102 -7.99452,-0.38822 -0.27679,0.70365 -1.02872,1.11128 -1.96057,1.28598 -0.93185,0.1747 -1.77605,0.0631 -2.26043,-0.49983 -1.17634,0.99966 -5.42963,3.20765 -7.3902,3.23677 -2.61564,0.0388 -1.78528,-2.71268 -3.74585,-7.81776 0.1061,-0.0825 0.21681,-0.1844 0.35521,-0.33484 0.86265,-0.8832 3.45983,-3.57161 11.28828,-5.02743 7.82384,-1.455824 11.1499,0.14073 12.23859,0.65997 0.17991,0.0922 0.31369,0.15043 0.44747,0.18926 -0.17991,5.503 1.49004,7.78864 -0.97798,8.6961 z m -6.55062,-22.298321 0.2445,0.946283 0.87188,0.325133 -0.78423,0.533801 -0.0185,0.9754 -0.71965,-0.616298 -0.88572,0.276606 0.32753,-0.912314 -0.52589,-0.805554 0.92262,0.04853 0.56741,-0.771584 z m -0.59509,-2.649594 -0.58586,0.402777 -0.0277,0.737616 -0.53974,-0.46101 -0.67351,0.208668 0.25372,-0.689089 -0.3875,-0.606592 0.69197,0.03882 0.4244,-0.587181 0.18453,0.713352 0.65967,0.242637 z m -1.68378,-3.285301 0.28601,-0.397925 0.11533,0.490126 0.46131,0.164993 -0.40596,0.276606 -0.009,0.499832 -0.37366,-0.315428 -0.4567,0.14073 0.17068,-0.465863 -0.27217,-0.412482 0.48438,0.01941 z m -3.60284,1.397587 0.28601,-0.397924 0.11533,0.485273 0.46131,0.169846 -0.40596,0.276606 v 0.499832 l -0.37827,-0.315428 -0.46131,0.140729 0.1753,-0.470715 -0.27679,-0.412482 0.48438,0.02426 z m -0.65968,3.726901 1.18096,-1.620814 0.50744,1.975063 1.83602,0.684236 -1.63304,1.116129 -0.06,2.043002 -1.50849,-1.290828 -1.8637,0.582328 0.69197,-1.911977 -1.09792,-1.688752 1.94673,0.111613 z m -4.22561,1.965358 0.42902,-0.582329 0.17991,0.713352 0.66429,0.242637 -0.59048,0.402777 -0.0138,0.732763 -0.53973,-0.46101 -0.67352,0.208668 0.24911,-0.689088 -0.39673,-0.606592 0.69197,0.03882 z m -1.66533,2.552538 0.28601,-0.397924 0.12455,0.485273 0.45209,0.169846 -0.39673,0.271753 -0.009,0.499832 -0.36904,-0.315428 -0.46593,0.14073 0.1753,-0.465863 -0.2814,-0.412482 0.48438,0.02426 z m -4.16103,6.255176 c 1.54078,-2.62533 4.9268,-4.440253 10.06581,-5.391389 5.14362,-0.951136 8.92637,-0.465862 11.2237,1.446115 2.40343,1.994474 2.58335,5.080814 2.64793,6.400758 0.005,0.04853 0.005,0.09705 0.009,0.140729 -1.33781,-0.640561 -4.7469,-2.149762 -12.64455,-0.684236 -7.89764,1.465529 -10.61015,4.110269 -11.6481,5.192429 -0.0185,-0.0437 -0.0277,-0.0874 -0.0461,-0.13588 -0.37366,-1.26656 -1.21324,-4.231584 0.39212,-6.968526 z m 19.10751,7.579976 c 0,0.98511 -0.76116,1.78581 -1.69762,1.78581 -0.93647,0 -1.69763,-0.8007 -1.69763,-1.78581 0,-0.98511 0.76116,-1.78581 1.69763,-1.78581 0.93646,0 1.69762,0.8007 1.69762,1.78581 z m -10.02891,1.8586 c 0,0.98996 -0.75655,1.7858 -1.69301,1.7858 -0.93646,0 -1.69762,-0.8007 -1.69762,-1.7858 0,-0.98511 0.76116,-1.78581 1.69762,-1.78581 0.93646,0 1.69301,0.8007 1.69301,1.78581 z m -49.70167,12.7821 c 0.68735,0.85894 1.37471,1.51891 2.50953,1.7664 -0.32753,0.42219 0.50745,0.83952 -0.10149,0.8007 -0.60431,-0.034 -2.40343,-2.03815 -2.40804,-2.5671 z m 53.22609,-12.30653 c 0.86727,-0.16014 1.67456,0.2766 2.10358,1.01907 -0.54896,-0.50468 -1.27783,-0.77644 -2.04361,-0.63086 -0.74271,0.13588 -1.32857,0.62116 -1.6884,1.25201 0.17069,-0.82011 0.79807,-1.48494 1.62843,-1.64022 z m -48.32235,31.44572 -0.009,0.0194 c -0.1753,0.56777 -0.71042,0.76674 -1.19018,0.47072 l -0.24911,-0.15044 c -0.47976,-0.30572 -0.79807,-0.77643 -0.71042,-1.06274 0.0876,-0.29602 0.61355,-0.48042 1.17635,-0.41734 l 0.28601,0.0291 c 0.55357,0.0534 0.86726,0.55806 0.69658,1.11127 z m 77.70327,16.53327 -8.10063,14.76687 c 0,0 -5.25434,-2.11579 -2.98007,-6.55119 2.27888,-4.44025 8.50658,-7.74011 11.0807,-8.21568 z m -84.02324,-15.72286 c 0.96876,0.0485 1.71147,-0.46586 2.52799,-1.18407 -0.17069,0.55321 -2.22813,2.17403 -2.71712,2.05756 -0.47977,-0.12617 0.31369,-0.34454 0.18913,-0.87349 z m 64.87882,30.32959 -16.20125,-0.005 c 0,0 -0.89956,-5.83299 3.89808,-5.98342 4.79302,-0.14558 10.61938,3.87248 12.30317,5.98827 z m -92.133078,-37.5359 c 1.563838,-1.04819 -0.11072,-3.82881 1.310118,-5.10023 1.98364,-1.77124 4.26252,-1.63052 5.2082,-3.22707 0.13378,-0.22807 0.23527,-0.38336 0.27679,-0.47556 0.0369,-0.0243 0.0646,-0.0437 0.0969,-0.0679 0.92262,0.28146 3.23379,-3.10575 5.66951,-3.99381 1.20402,-0.44159 2.17739,1.78581 2.67099,2.97473 l 1.92367,-2.669 -1.04718,0.40278 c -0.19836,-2.80489 -2.30194,-3.21737 -3.69971,-2.58166 -2.50492,1.1501 -3.25225,3.93557 -4.98216,5.10023 0.33214,-0.68424 0.4936,-1.79552 0.3875,-3.04267 -0.16146,-1.98477 -0.94569,-3.53765 -1.74837,-3.46485 -0.70581,0.0631 -1.19018,1.35391 -1.19018,3.01354 -0.1384,-0.11161 -0.27218,-0.22807 -0.42441,-0.33484 -2.02054,-1.42185 -4.317868,-1.54316 -5.120558,-0.28145 -0.80268,1.26656 0.18914,3.44544 2.218908,4.86244 1.02873,0.72791 2.12203,1.11128 3.06311,1.1501 -1.86831,0.39307 -4.119508,0 -5.535738,1.36847 -1.46697,1.41215 -0.0277,4.11997 -0.79345,4.49363 l 1.71608,1.87316 z m 6.255378,-14.00015 c 0.50744,-0.0485 1.01027,0.94143 1.10714,2.208 0.083,0.97055 -0.0969,1.81493 -0.41518,2.18373 0.005,-0.91231 -0.52128,-1.99447 -1.42545,-2.93105 0.0738,-0.82982 0.35521,-1.42185 0.73349,-1.46068 z m 0.0877,4.49364 c -0.36444,-0.23293 -0.67352,-0.94143 -0.78885,-1.83433 0.53512,0.59688 0.82575,1.26656 0.78885,1.83433 z m -3.41371,0.39307 c -1.28706,-0.90746 -1.91905,-2.29049 -1.407,-3.09605 0.51206,-0.8007 1.96519,-0.72305 3.25686,0.17956 0.0784,0.0534 0.13839,0.10676 0.20759,0.16499 0.20298,1.37333 0.69197,2.45063 1.25015,2.80488 -0.0185,0.0388 -0.0277,0.0874 -0.0507,0.12132 -0.0646,0.0971 -0.13378,0.1844 -0.22143,0.24749 -0.005,0 -0.009,0.01 -0.009,0.01 -0.64122,0.50953 -1.89599,0.34454 -3.0262,-0.4319 z m 99.44026,22.46331 c -0.95492,-2.9262 -8.35896,-25.51568 -9.47534,-25.25363 0.0415,4.29467 -2.78632,9.2299 -7.07651,10.02575 -4.35017,0.81041 -8.66343,-2.90679 -9.94587,-6.87147 -1.20864,0.16014 -2.37114,-0.0437 -3.44139,-0.48042 l -0.79345,3.7269 h -5.25895 c 0,-0.0679 0.0185,-0.13103 0.0185,-0.20382 0,-5.77475 -4.45165,-10.4625 -9.94125,-10.4625 h -1.14406 c -10.84081,0 -19.61034,8.9533 -20.1962,20.21165 -0.083,-0.034 -0.11072,-0.12132 -0.20298,-0.14073 l -0.37366,-0.0291 0.30908,-0.9851 -1.90983,-0.66483 -0.65968,2.12065 c -0.3183,0.12617 -0.62277,0.30087 -0.86265,0.45615 -0.0738,-0.0679 -0.15684,-0.1019 -0.23988,-0.13587 l -0.30908,-0.10191 c -0.0876,-0.034 -0.1753,-0.0582 -0.26756,-0.0485 -0.10149,-0.28631 -0.25833,-0.59203 -0.43824,-0.91231 l 0.66428,-2.11094 -8.68649,-3.00384 -1.18557,3.78513 5.12517,1.77125 c -0.19836,0.80555 0.0415,1.57228 0.60432,2.03815 -0.22604,0 -0.46131,-0.0194 -0.71503,-0.0291 l -0.59048,-0.034 0.06,0.28146 -5.18514,-1.79066 -2.29733,7.34704 8.68188,3.00384 2.13587,-6.82294 c 0.42902,-0.33969 0.83036,-0.72791 1.15328,-1.11613 0.0507,0.0437 0.11532,0.0728 0.17529,0.097 l 0.30447,0.10191 c 0.0646,0.0291 0.12455,0.0437 0.18914,0.0437 0.0369,0.51439 0.14762,1.08216 0.29985,1.61596 l -2.14048,6.83265 1.90982,0.65997 1.49465,-4.77994 c 0.23066,0.30086 0.46131,0.50953 0.67352,0.61629 l 0.0876,0.0388 c 0.29524,0.10191 0.50283,0.0194 0.63199,-0.0728 0.3506,-0.23778 0.39673,-0.7085 0.46131,-1.27141 0.0415,-0.38822 0.0969,-0.93173 0.28602,-1.10643 l 0.4567,-0.41733 -0.49822,-0.3591 c -0.2122,-0.14073 -0.40595,-0.29602 -0.59509,-0.41734 0.27678,-0.01 0.54434,-0.0873 0.78423,-0.21837 0.29062,-0.15044 0.50744,-0.4319 0.68735,-0.73762 0.2814,2.50887 0.99182,4.877 2.01132,7.05103 0,0 -17.2392,6.41531 -24.205,0 -6.9658,-6.42503 -4.82993,-9.26873 -9.96433,-9.26873 -5.572638,0 -10.093489,4.75568 -10.093489,10.62264 0,5.86696 4.516241,10.61778 10.093489,10.61778 h 5.1344 l -3.62591,6.60458 H 90.285641 c -1.9698,0 -3.57055,-1.69361 -3.57055,-3.76087 0,-2.06727 1.60075,-3.75117 3.57055,-3.75117 1.18095,0 2.14509,-1.01422 2.14509,-2.26137 0,-1.2423 -0.96414,-2.25652 -2.14509,-2.25652 -4.33172,0 -7.86536,3.71234 -7.86536,8.26906 0,4.55671 3.52903,8.27391 7.86536,8.27391 h 69.528829 c 1.19018,0 2.14971,-1.00452 2.14971,-2.24682 0,-1.26171 -0.95953,-2.26622 -2.14971,-2.26622 h -12.4185 l -3.63052,-6.60458 h 0.82575 c 11.21909,0 11.07608,-9.57444 11.07608,-21.36174 0,-0.15043 -0.0415,-0.30087 -0.0461,-0.4513 0.0185,0 0.0277,0 0.0461,0 3.1646,0 5.93708,-1.57229 7.76387,-3.9841 l 6.26461,-0.82496 -4.34556,20.45428 c 0.19837,1.20348 2.57412,1.88771 6.20925,2.08667 1.5454,3.04267 7.78694,2.1255 11.20525,2.68842 2.98007,3.11545 -1.78066,6.23091 -0.28601,5.96401 5.74333,-1.07245 10.75317,5.01773 12.01254,4.02777 1.0195,-0.79585 0.10149,-8.99697 -0.92723,-14.08264 0.28601,-0.0679 0.53051,-0.1747 0.80268,-0.25719 0.23066,1.30053 0.82575,2.42637 1.89138,3.05237 4.17948,-0.40763 3.39525,5.43991 4.1518,4.06659 2.92932,-5.3186 10.56864,-5.43992 10.6609,-7.08014 0.0461,-1.21804 -5.23588,-4.99832 -9.47994,-7.51689 z m -67.42064,-6.42017 -0.005,0.0388 c -0.30908,0.9754 -1.25015,1.3442 -2.09435,0.82496 l -0.43363,-0.28631 c -0.36905,-0.22808 -0.67352,-0.50954 -0.89956,-0.80555 0.5259,1.18406 1.35164,1.81007 2.49569,2.60591 -0.68735,0.6163 -0.21681,2.5671 -0.95491,2.33417 -0.0185,-0.005 -0.0323,0 -0.0507,-0.005 -0.72426,-0.31058 -2.10358,-3.11061 -1.97903,-5.18272 -0.15223,0.16014 -0.32753,0.25719 -0.48899,0.19896 l -0.29985,-0.10191 c -0.16146,-0.0582 -0.25372,-0.23778 -0.2814,-0.46586 -1.07947,1.74698 -3.75508,3.13487 -4.52085,2.93105 -0.86727,-0.21837 0.72426,-1.54317 0.50744,-2.51372 1.37009,0.0776 2.39421,0.0971 3.47829,-0.53865 -0.34599,0.10191 -0.75655,0.13102 -1.18096,0.10191 l -0.50744,-0.0582 c -0.97337,-0.1019 -1.52233,-0.9754 -1.21325,-1.9605 l 0.0138,-0.0291 c 0.30446,-0.9851 0.67351,-2.53312 1.51771,-2.00903 l 0.43364,0.27661 c 0.74271,0.47071 1.71146,2.10123 1.81756,2.82429 0.12917,-0.11161 0.2814,-0.16985 0.41518,-0.11647 l 0.30908,0.10191 c 0.13378,0.0582 0.22604,0.18926 0.26756,0.3591 0.4936,-0.50468 2.19584,-1.21318 3.05849,-1.12098 l 0.50283,0.0534 c 0.10611,0.01 0.13378,0.0971 0.20759,0.12132 -0.005,0.25234 -0.0692,0.47071 -0.0692,0.7085 0,0.45616 0.0507,0.8929 0.0784,1.31509 -0.0415,0.13588 -0.0876,0.28146 -0.12455,0.39792 z m -25.69504,26.24845 3.62591,-6.59972 h 26.91289 l 3.62591,6.59972 h -34.16471 z m 62.93208,-29.9899 c 1.09331,-0.19897 2.13587,0.56777 2.33423,1.71786 0.18914,1.15495 -0.53973,2.25653 -1.63304,2.46034 -1.08408,0.20382 -2.13587,-0.56292 -2.32962,-1.71787 -0.19375,-1.15495 0.5259,-2.25652 1.62843,-2.46033 z m -1.36087,7.64791 c 1.09331,-0.20382 2.13587,0.56291 2.33424,1.71786 0.18913,1.15496 -0.53974,2.25653 -1.63305,2.45549 -1.10253,0.20867 -2.14509,-0.55321 -2.33884,-1.71787 -0.19375,-1.15495 0.53512,-2.25167 1.63765,-2.45548 z m 18.71079,9.55018 c -13.1566,2.44092 -21.248,1.89257 -22.59042,0.0243 -0.48899,-0.70364 0.12917,-3.28045 0.77501,-3.67837 0.65506,-0.39793 12.00793,1.30053 21.19725,-0.0825 0.92723,-0.13587 0.74732,-4.07144 0.89494,-3.13972 0.16146,0.92202 0.65506,6.71134 -0.27678,6.87633 z m -59.44918,-15.1745 c -0.0876,0.29116 -0.61355,0.47071 -1.17174,0.41248 l -0.28601,-0.0291 c -0.55357,-0.0485 -0.86726,-0.55806 -0.69197,-1.11613 l 0.005,-0.0194 c 0.1753,-0.55806 0.71042,-0.76673 1.19018,-0.47071 l 0.24911,0.15528 c 0.47976,0.30573 0.79807,0.77644 0.70581,1.06761 z m -1.46697,-18.74612 c -0.005,-0.27661 0.54434,-0.60174 1.21324,-0.71821 l 0.33676,-0.0534 c 0.66429,-0.11646 1.21786,0.22323 1.21325,0.75703 v 0.0194 c 0,0.52895 -0.54896,0.87834 -1.20402,0.76188 l -0.3506,-0.0631 c -0.6689,-0.11162 -1.20863,-0.43675 -1.20863,-0.70365 z m 2.58334,20.04665 c 0.24911,1.08216 0.56741,1.97021 1.36548,2.52827 -0.39211,0.3494 0.11994,1.02393 -0.33676,0.82012 -0.46131,-0.20382 -1.19941,-2.79518 -1.02872,-3.34839 z m -15.72149,-3.30957 -4.8207,-7.65276 4.26251,-2.96502 4.82071,7.65276 -4.26252,2.96502 z m 8.67265,-16.73223 -0.005,-0.0194 c 0,-0.5241 0.54435,-0.86864 1.20864,-0.75703 l 0.34137,0.0679 c 0.6689,0.11647 1.21786,0.42704 1.21786,0.70365 0,0.2669 -0.53974,0.59203 -1.20864,0.70365 l -0.35059,0.0679 c -0.65507,0.11646 -1.19941,-0.22808 -1.20403,-0.76674 z m 0.20298,2.55739 c 1.13944,-0.25234 1.80834,-0.9026 2.50031,-1.7761 0,0.5241 -1.7945,2.54284 -2.40343,2.58166 -0.59971,0.0388 0.23065,-0.38337 -0.0969,-0.80556 z m -2.50492,-3.78513 c -0.0369,0.32513 -0.0415,0.67938 -0.0323,1.00451 v 0.28631 c 0,0.81041 0.59509,1.46553 1.46697,1.69847 -0.25834,0.0679 -0.53974,0.13102 -0.83959,0.19896 l -0.70119,0.15043 0.30908,0.38822 h -2.57873 l 3.01697,8.18171 h 3.50597 v -7.44409 c 0.53973,-0.5338 1.01488,-1.13069 1.3378,-1.72272 0.0738,0.01 0.15223,0.0145 0.23527,0.0145 h 0.38289 c 0.0784,0 0.16607,-0.01 0.23988,-0.0243 0.31369,0.59689 0.79807,1.19377 1.3378,1.73243 l 0.005,7.42953 3.51519,-0.005 3.00775,-8.18171 -2.58335,0.005 0.30447,-0.39792 -0.70119,-0.14558 c -0.29063,-0.0631 -0.57664,-0.12617 -0.83036,-0.18926 0.31369,-0.0874 0.59509,-0.22323 0.83497,-0.41734 0.40595,-0.32513 0.62738,-0.78614 0.62738,-1.31994 l -0.005,-0.24749 c 0.009,-0.32999 0.005,-0.67938 -0.0369,-1.00452 l 3.75508,-0.005 1.64227,-4.46452 -3.01698,-5.94945 -6.52755,0.0146 v 9.97723 c -0.47515,0.28145 -0.93185,0.60173 -1.24093,0.8929 -0.10149,-0.0243 -0.21682,-0.0437 -0.33215,-0.0437 h -0.38288 c -0.11533,0 -0.23066,0.0194 -0.33215,0.0485 -0.30908,-0.29117 -0.76116,-0.61145 -1.24554,-0.89776 l -0.005,-9.97722 -6.52756,0.005 -3.00775,5.94945 1.64689,4.45967 h 3.75507 z m 1.54078,-0.92202 0.60432,0.11161 c 1.02411,0.1844 2.7448,1.29083 3.12769,1.88286 0.1061,-0.14073 0.26294,-0.22808 0.44286,-0.22808 l 0.3875,-0.005 c 0.17068,0.005 0.33214,0.0922 0.44747,0.23293 0.38289,-0.58718 2.09435,-1.71301 3.12308,-1.89256 l 0.60431,-0.11161 c 1.16251,-0.20382 1.02873,1.2423 1.03334,2.17887 v 0.0388 c 0,0.92688 -0.95491,1.53347 -2.12203,1.3248 l -0.59509,-0.11161 c -0.51206,-0.0776 -0.96876,-0.23779 -1.34242,-0.42704 1.02873,0.87349 2.22352,1.1501 3.8335,1.5092 -0.59048,0.75217 0.77039,2.37784 -0.30908,2.30505 -0.96414,-0.0631 -3.56594,-2.0333 -4.17948,-3.87734 -0.11994,0.19411 -0.2814,0.31058 -0.49822,0.31058 h -0.38288 c -0.20298,0 -0.38289,-0.12132 -0.49361,-0.31543 -0.61354,1.84404 -3.21534,3.82881 -4.17486,3.88704 -1.07947,0.0679 0.27217,-1.55287 -0.30908,-2.3099 1.60536,-0.3494 2.79093,-0.64056 3.82427,-1.50435 -0.36444,0.18926 -0.82114,0.34454 -1.33319,0.43189 l -0.59971,0.11162 c -1.15789,0.19896 -2.12203,-0.39308 -2.11741,-1.32965 v -0.034 c 0,-0.93658 -0.13379,-2.37784 1.02872,-2.17888 z m -13.88547,23.05049 -4.81148,-7.65276 4.25791,-2.96502 4.81609,7.65276 -4.26252,2.96502 z m 1.31935,-12.52491 -2.25581,-3.58617 4.26251,-2.96987 2.25582,3.58617 -4.26252,2.96987 z m -4.81609,-1.80521 2.25581,3.59102 -4.26251,2.96502 -2.25581,-3.59102 4.26251,-2.96502 z"
         id="path6650" />
      <text
         xml:space="preserve"
         style="font-size:64px;font-style:normal;font-variant:normal;font-weight:normal;font-stretch:normal;line-height:125%;letter-spacing:0px;word-spacing:0px;fill:#ffffff;fill-opacity:1;stroke:none;font-family:Bebas Neue;-inkscape-font-specification:Bebas Neue"
         x="25.653563"
         y="60.458935"
         id="text6676"
         sodipodi:linespacing="125%"><tspan
           sodipodi:role="line"
           id="tspan6678"
           x="25.653563"
           y="60.458935">JOYEUX NOËL</tspan></text>
      <path
         sodipodi:type="star"
         style="fill:#ffffff;fill-opacity:1;"
         id="path6680"
         sodipodi:sides="5"
         sodipodi:cx="259.86174"
         sodipodi:cy="96.719096"
         sodipodi:r1="19.002924"
         sodipodi:r2="9.501462"
         sodipodi:arg1="2.0899424"
         sodipodi:arg2="2.718261"
         inkscape:flatsided="false"
         inkscape:rounded="0"
         inkscape:randomized="0"
         d="m 250.43364,113.21825 0.76536,-12.59595 -9.94235,-7.771332 12.21598,-3.164458 4.31862,-11.857209 6.78452,10.640213 12.6114,0.443172 -8.02291,9.740471 3.47566,12.131103 -11.74296,-4.62027 z"
         transform="translate(2.0833333,-2.0833333)"
         inkscape:transform-center-x="0.63981243"
         inkscape:transform-center-y="-1.1953168" />
      <path
         sodipodi:type="star"
         style="fill:#ffffff;fill-opacity:1;"
         id="path6682"
         sodipodi:sides="5"
         sodipodi:cx="25.927249"
         sodipodi:cy="104.37942"
         sodipodi:r1="19.808107"
         sodipodi:r2="9.9040536"
         sodipodi:arg1="2.1010121"
         sodipodi:arg2="2.7293306"
         inkscape:flatsided="false"
         inkscape:rounded="0"
         inkscape:randomized="0"
         d="M 15.909904,121.46783 16.85299,108.3478 6.5796722,100.13297 19.348991,96.975581 l 4.638144,-12.309029 6.948788,11.168658 13.139848,0.607438 -8.474732,10.059992 3.482728,12.68445 -12.18646,-4.95124 z"
         transform="translate(2.0833333,-2.0833333)"
         inkscape:transform-center-x="0.59952834"
         inkscape:transform-center-y="-1.3122258" />
      <path
         sodipodi:type="star"
         style="fill:#ffffff;fill-opacity:1;"
         id="path6684"
         sodipodi:sides="5"
         sodipodi:cx="269.28983"
         sodipodi:cy="144.4488"
         sodipodi:r1="13.756312"
         sodipodi:r2="6.8781559"
         sodipodi:arg1="2.3864883"
         sodipodi:arg2="3.0148068"
         inkscape:flatsided="false"
         inkscape:rounded="0"
         inkscape:randomized="0"
         d="m 259.27248,153.8769 3.1944,-8.55837 -5.23923,-7.48335 9.12662,0.39338 5.49807,-7.29529 2.44616,8.80149 8.63722,2.97461 -7.61481,5.04625 -0.15997,9.13369 -7.15237,-5.68274 z"
         transform="translate(2.0833333,-2.0833333)"
         inkscape:transform-center-x="-0.79185936"
         inkscape:transform-center-y="-0.53751562" />
      <path
         sodipodi:type="star"
         style="fill:#ffffff;fill-opacity:1;"
         id="path6686"
         sodipodi:sides="5"
         sodipodi:cx="43.604918"
         sodipodi:cy="142.09178"
         sodipodi:r1="10.290908"
         sodipodi:r2="5.1454537"
         sodipodi:arg1="1.801887"
         sodipodi:arg2="2.4302055"
         inkscape:flatsided="false"
         inkscape:rounded="0"
         inkscape:randomized="0"
         d="m 41.247897,152.10913 -1.540437,-6.65796 -6.357963,-2.50552 5.856071,-3.52246 0.418174,-6.82104 5.159689,4.48096 6.616408,-1.71011 -2.667208,6.29185 3.670991,5.76412 -6.808114,-0.59238 z"
         transform="translate(2.0833333,-2.0833333)"
         inkscape:transform-center-x="0.72836004"
         inkscape:transform-center-y="0.26385987" />
      <path
         sodipodi:type="star"
         style="fill:#ffffff;fill-opacity:1;"
         id="path6688"
         sodipodi:sides="5"
         sodipodi:cx="110.78006"
         sodipodi:cy="84.344727"
         sodipodi:r1="10.137938"
         sodipodi:r2="5.0689685"
         sodipodi:arg1="2.1910458"
         sodipodi:arg2="2.8193643"
         inkscape:flatsided="false"
         inkscape:rounded="0"
         inkscape:randomized="0"
         d="m 104.8875,92.594306 1.08448,-6.644333 -4.85864,-4.66014 6.65426,-1.021813 2.93066,-6.060901 3.02808,6.012818 6.66988,0.914298 -4.7828,4.737938 1.19156,6.625968 -5.98402,-3.084611 z"
         transform="translate(2.0833333,-2.0833333)"
         inkscape:transform-center-x="0.025278389"
         inkscape:transform-center-y="-0.9440142" />
      <path
         sodipodi:type="star"
         style="fill:#ffffff;fill-opacity:1;"
         id="path6690"
         sodipodi:sides="5"
         sodipodi:cx="216.84608"
         sodipodi:cy="83.755472"
         sodipodi:r1="7.1927819"
         sodipodi:r2="3.5963906"
         sodipodi:arg1="2.1815223"
         sodipodi:arg2="2.8098408"
         inkscape:flatsided="false"
         inkscape:rounded="0"
         inkscape:randomized="0"
         d="m 212.72129,89.648027 0.7245,-4.721213 -3.47849,-3.273352 4.71402,-0.769895 2.03823,-4.319766 2.18893,4.245391 4.73819,0.60359 -3.36119,3.393692 0.89013,4.692804 -4.26626,-2.147974 z"
         transform="translate(2.0833333,-2.0833333)"
         inkscape:transform-center-x="0.039100837"
         inkscape:transform-center-y="-0.64955616" />
      <path
         sodipodi:type="star"
         style="fill:#ffffff;fill-opacity:1;"
         id="path6692"
         sodipodi:sides="5"
         sodipodi:cx="223.91715"
         sodipodi:cy="123.2356"
         sodipodi:r1="6.2638735"
         sodipodi:r2="3.1319364"
         sodipodi:arg1="2.2896263"
         sodipodi:arg2="2.9179449"
         inkscape:flatsided="false"
         inkscape:rounded="0"
         inkscape:randomized="0"
         d="m 219.79236,127.94965 1.07085,-4.01942 -2.70402,-3.16081 4.15361,-0.22363 2.17052,-3.54842 1.49622,3.88121 4.04548,0.96777 -3.2289,2.62235 0.32972,4.14653 -3.49178,-2.26051 z"
         transform="translate(2.0833333,-2.0833333)"
         inkscape:transform-center-x="-0.17495881"
         inkscape:transform-center-y="-0.42930254" />
    </g>
  </g>
</svg>
